<svg width="233" height="256" viewBox="0 0 233 256" fill="none" xmlns="http://www.w3.org/2000/svg">
<defs>
<linearGradient id="paint0_linear_1615_242821" x1="2.54506" y1="172.705" x2="9.92654" y2="172.705" gradientUnits="userSpaceOnUse">
<stop stop-color="#2DB5E9"/>
<stop offset="1" stop-color="#365EA9"/>
</linearGradient>
<linearGradient id="paint1_linear_1615_242821" x1="275.424" y1="1684.34" x2="417.642" y2="1684.34" gradientUnits="userSpaceOnUse">
<stop stop-color="#2DB5E9"/>
<stop offset="1" stop-color="#365EA9"/>
</linearGradient>
<linearGradient id="paint2_linear_1615_242821" x1="88.708" y1="3440.02" x2="118.693" y2="3440.02" gradientUnits="userSpaceOnUse">
<stop stop-color="#2DB5E9"/>
<stop offset="1" stop-color="#365EA9"/>
</linearGradient>
<linearGradient id="paint3_linear_1615_242821" x1="88.7077" y1="3357.52" x2="118.692" y2="3357.52" gradientUnits="userSpaceOnUse">
<stop stop-color="#2DB5E9"/>
<stop offset="1" stop-color="#365EA9"/>
</linearGradient>
<linearGradient id="paint4_linear_1615_242821" x1="3077.59" y1="1957.76" x2="3206.03" y2="1957.76" gradientUnits="userSpaceOnUse">
<stop stop-color="#2DB5E9"/>
<stop offset="1" stop-color="#365EA9"/>
</linearGradient>
<linearGradient id="paint5_linear_1615_242821" x1="3538.12" y1="1957.76" x2="3683.41" y2="1957.76" gradientUnits="userSpaceOnUse">
<stop stop-color="#2DB5E9"/>
<stop offset="1" stop-color="#365EA9"/>
</linearGradient>
<linearGradient id="paint6_linear_1615_242821" x1="1659.64" y1="3976.99" x2="1689.62" y2="3976.99" gradientUnits="userSpaceOnUse">
<stop stop-color="#2DB5E9"/>
<stop offset="1" stop-color="#365EA9"/>
</linearGradient>
<linearGradient id="paint7_linear_1615_242821" x1="1659.64" y1="3930.01" x2="1689.62" y2="3930.01" gradientUnits="userSpaceOnUse">
<stop stop-color="#2DB5E9"/>
<stop offset="1" stop-color="#365EA9"/>
</linearGradient>
<linearGradient id="paint8_linear_1615_242821" x1="3800.31" y1="550.206" x2="3928.74" y2="550.206" gradientUnits="userSpaceOnUse">
<stop stop-color="#2DB5E9"/>
<stop offset="1" stop-color="#365EA9"/>
</linearGradient>
<linearGradient id="paint9_linear_1615_242821" x1="4301.52" y1="550.206" x2="4446.65" y2="550.206" gradientUnits="userSpaceOnUse">
<stop stop-color="#2DB5E9"/>
<stop offset="1" stop-color="#365EA9"/>
</linearGradient>
<linearGradient id="paint10_linear_1615_242821" x1="2031.05" y1="1208.75" x2="2061.1" y2="1208.75" gradientUnits="userSpaceOnUse">
<stop stop-color="#2DB5E9"/>
<stop offset="1" stop-color="#365EA9"/>
</linearGradient>
<linearGradient id="paint11_linear_1615_242821" x1="2031.05" y1="1001.29" x2="2061.1" y2="1001.29" gradientUnits="userSpaceOnUse">
<stop stop-color="#2DB5E9"/>
<stop offset="1" stop-color="#365EA9"/>
</linearGradient>
<linearGradient id="paint12_linear_1615_242821" x1="743.709" y1="6118.87" x2="1059.03" y2="6118.87" gradientUnits="userSpaceOnUse">
<stop stop-color="#2DB5E9"/>
<stop offset="1" stop-color="#365EA9"/>
</linearGradient>
<linearGradient id="paint13_linear_1615_242821" x1="6121.71" y1="2956.67" x2="6437.03" y2="2956.67" gradientUnits="userSpaceOnUse">
<stop stop-color="#2DB5E9"/>
<stop offset="1" stop-color="#365EA9"/>
</linearGradient>
<linearGradient id="paint14_linear_1615_242821" x1="5980.94" y1="1253.99" x2="6472.35" y2="1253.99" gradientUnits="userSpaceOnUse">
<stop stop-color="#2DB5E9"/>
<stop offset="1" stop-color="#365EA9"/>
</linearGradient>
<linearGradient id="paint15_linear_1615_242821" x1="12379.4" y1="702.254" x2="21618.8" y2="702.254" gradientUnits="userSpaceOnUse">
<stop stop-color="#2DB5E9"/>
<stop offset="1" stop-color="#365EA9"/>
</linearGradient>
<linearGradient id="paint16_linear_1615_242821" x1="887.561" y1="1208.78" x2="1076.59" y2="1208.78" gradientUnits="userSpaceOnUse">
<stop stop-color="#2DB5E9"/>
<stop offset="1" stop-color="#365EA9"/>
</linearGradient>
<linearGradient id="paint17_linear_1615_242821" x1="231.186" y1="20872.7" x2="990.083" y2="20872.7" gradientUnits="userSpaceOnUse">
<stop stop-color="#2DB5E9"/>
<stop offset="1" stop-color="#365EA9"/>
</linearGradient>
<linearGradient id="paint18_linear_1615_242821" x1="1863.16" y1="6730.09" x2="2455.23" y2="6730.09" gradientUnits="userSpaceOnUse">
<stop stop-color="#2DB5E9"/>
<stop offset="1" stop-color="#365EA9"/>
</linearGradient>
<linearGradient id="paint19_linear_1615_242821" x1="11691.3" y1="4648.17" x2="19210.9" y2="4648.17" gradientUnits="userSpaceOnUse">
<stop stop-color="#2DB5E9"/>
<stop offset="1" stop-color="#365EA9"/>
</linearGradient>
<linearGradient id="paint20_linear_1615_242821" x1="4811.48" y1="4970.47" x2="5125.05" y2="4970.47" gradientUnits="userSpaceOnUse">
<stop stop-color="#2DB5E9"/>
<stop offset="1" stop-color="#365EA9"/>
</linearGradient>
<linearGradient id="paint21_linear_1615_242821" x1="13822.1" y1="23643.4" x2="15817" y2="23643.4" gradientUnits="userSpaceOnUse">
<stop stop-color="#2DB5E9"/>
<stop offset="1" stop-color="#365EA9"/>
</linearGradient>
<linearGradient id="paint22_linear_1615_242821" x1="2910.2" y1="6921.78" x2="2970.11" y2="6921.78" gradientUnits="userSpaceOnUse">
<stop stop-color="#2DB5E9"/>
<stop offset="1" stop-color="#365EA9"/>
</linearGradient>
<linearGradient id="paint23_linear_1615_242821" x1="38.8581" y1="149.456" x2="107.076" y2="150.194" gradientUnits="userSpaceOnUse">
<stop stop-color="#D7EDF3"/>
<stop offset="1" stop-color="#B1DBDB"/>
</linearGradient>
<linearGradient id="paint24_linear_1615_242821" x1="38.4338" y1="149.468" x2="107.527" y2="150.216" gradientUnits="userSpaceOnUse">
<stop stop-color="#CBE8EF"/>
<stop offset="1" stop-color="#D9EEF4"/>
</linearGradient>
<linearGradient id="paint25_linear_1615_242821" x1="22336.1" y1="26019" x2="33008.2" y2="26019" gradientUnits="userSpaceOnUse">
<stop stop-color="#2DB5E9"/>
<stop offset="1" stop-color="#365EA9"/>
</linearGradient>
<linearGradient id="paint26_linear_1615_242821" x1="18680.7" y1="27171.6" x2="40656.5" y2="27171.6" gradientUnits="userSpaceOnUse">
<stop stop-color="#D7EDF3"/>
<stop offset="1" stop-color="#B1DBDB"/>
</linearGradient>
<linearGradient id="paint27_linear_1615_242821" x1="84.1797" y1="111.945" x2="181.112" y2="111.945" gradientUnits="userSpaceOnUse">
<stop stop-color="#CBE8EF"/>
<stop offset="1" stop-color="#B4D6D6"/>
</linearGradient>
<clipPath id="clip0_1615_242821">
<rect width="231.033" height="255.19" fill="white" transform="translate(0.984375 0.405029)"/>
</clipPath>
</defs>
<g clip-path="url(#clip0_1615_242821)">
<g opacity="0.79">
<path opacity="0.79" d="M8.14173 174.49H4.31713C3.85828 174.468 3.42562 174.27 3.10879 173.937C2.79196 173.604 2.61523 173.163 2.61523 172.703C2.61523 172.244 2.79196 171.802 3.10879 171.469C3.42562 171.137 3.85828 170.939 4.31713 170.916H8.14173C8.60058 170.939 9.03324 171.137 9.35007 171.469C9.6669 171.802 9.84362 172.244 9.84362 172.703C9.84362 173.163 9.6669 173.604 9.35007 173.937C9.03324 174.27 8.60058 174.468 8.14173 174.49Z" fill="url(#paint0_linear_1615_242821)"/>
<path opacity="0.79" d="M22.8998 174.49H18.6121C18.1532 174.468 17.7205 174.27 17.4037 173.937C17.0869 173.604 16.9102 173.163 16.9102 172.703C16.9102 172.244 17.0869 171.802 17.4037 171.469C17.7205 171.137 18.1532 170.939 18.6121 170.916H22.8998C23.3587 170.939 23.7914 171.137 24.1082 171.469C24.425 171.802 24.6017 172.244 24.6017 172.703C24.6017 173.163 24.425 173.604 24.1082 173.937C23.7914 174.27 23.3587 174.468 22.8998 174.49Z" fill="url(#paint1_linear_1615_242821)"/>
<path opacity="0.79" d="M13.4958 183.894C13.261 183.894 13.0286 183.848 12.8118 183.758C12.5949 183.668 12.398 183.536 12.2322 183.37C12.0664 183.204 11.935 183.007 11.8456 182.79C11.7561 182.573 11.7104 182.34 11.7109 182.105V178.281C11.7109 177.807 11.899 177.353 12.2337 177.019C12.5684 176.684 13.0224 176.496 13.4958 176.496C13.9691 176.496 14.4231 176.684 14.7578 177.019C15.0925 177.353 15.2806 177.807 15.2806 178.281V182.105C15.2811 182.34 15.2354 182.573 15.1459 182.79C15.0565 183.007 14.9251 183.204 14.7593 183.37C14.5935 183.536 14.3966 183.668 14.1798 183.758C13.9629 183.848 13.7305 183.894 13.4958 183.894Z" fill="url(#paint2_linear_1615_242821)"/>
<path opacity="0.79" d="M13.4957 169.607C13.0224 169.607 12.5684 169.419 12.2337 169.085C11.899 168.75 11.7109 168.296 11.7109 167.823V163.539C11.7109 163.066 11.899 162.612 12.2337 162.277C12.5684 161.942 13.0224 161.754 13.4957 161.754C13.9691 161.754 14.4231 161.942 14.7578 162.277C15.0925 162.612 15.2806 163.066 15.2806 163.539V167.831C15.2783 168.303 15.0893 168.755 14.7548 169.088C14.4203 169.42 13.9676 169.607 13.4957 169.607Z" fill="url(#paint3_linear_1615_242821)"/>
<path opacity="0.79" d="M175.26 203.77H171.435C170.962 203.77 170.508 203.581 170.173 203.247C169.838 202.912 169.65 202.458 169.65 201.985C169.65 201.511 169.838 201.057 170.173 200.723C170.508 200.388 170.962 200.2 171.435 200.2H175.26C175.733 200.2 176.187 200.388 176.522 200.723C176.857 201.057 177.045 201.511 177.045 201.985C177.045 202.458 176.857 202.912 176.522 203.247C176.187 203.581 175.733 203.77 175.26 203.77Z" fill="url(#paint4_linear_1615_242821)"/>
<path opacity="0.79" d="M190.022 203.77H185.734C185.261 203.77 184.807 203.581 184.472 203.247C184.137 202.912 183.949 202.458 183.949 201.985C183.949 201.511 184.137 201.057 184.472 200.723C184.807 200.388 185.261 200.2 185.734 200.2H190.022C190.495 200.2 190.949 200.388 191.284 200.723C191.619 201.057 191.807 201.511 191.807 201.985C191.807 202.458 191.619 202.912 191.284 203.247C190.949 203.581 190.495 203.77 190.022 203.77Z" fill="url(#paint5_linear_1615_242821)"/>
<path opacity="0.79" d="M180.601 213.174C180.128 213.174 179.674 212.985 179.339 212.651C179.004 212.316 178.816 211.862 178.816 211.389V207.564C178.816 207.091 179.004 206.637 179.339 206.302C179.674 205.967 180.128 205.779 180.601 205.779C181.075 205.779 181.529 205.967 181.863 206.302C182.198 206.637 182.386 207.091 182.386 207.564V211.389C182.386 211.862 182.198 212.316 181.863 212.651C181.529 212.985 181.075 213.174 180.601 213.174Z" fill="url(#paint6_linear_1615_242821)"/>
<path opacity="0.79" d="M180.601 198.891C180.128 198.891 179.674 198.703 179.339 198.368C179.004 198.034 178.816 197.58 178.816 197.106V192.819C178.816 192.345 179.004 191.891 179.339 191.556C179.674 191.222 180.128 191.034 180.601 191.034C181.075 191.034 181.529 191.222 181.863 191.556C182.198 191.891 182.386 192.345 182.386 192.819V197.106C182.386 197.58 182.198 198.034 181.863 198.368C181.529 198.703 181.075 198.891 180.601 198.891Z" fill="url(#paint7_linear_1615_242821)"/>
<path opacity="0.79" d="M214.543 54.0279H210.718C210.245 54.0279 209.791 53.8398 209.456 53.5051C209.122 53.1704 208.934 52.7164 208.934 52.2431C208.934 51.7697 209.122 51.3157 209.456 50.981C209.791 50.6463 210.245 50.4583 210.718 50.4583H214.543C215.016 50.4583 215.47 50.6463 215.805 50.981C216.14 51.3157 216.328 51.7697 216.328 52.2431C216.328 52.7164 216.14 53.1704 215.805 53.5051C215.47 53.8398 215.016 54.0279 214.543 54.0279Z" fill="url(#paint8_linear_1615_242821)"/>
<path opacity="0.79" d="M229.301 54.0279H225.017C224.544 54.0279 224.09 53.8398 223.755 53.5051C223.42 53.1704 223.232 52.7164 223.232 52.2431C223.232 51.7697 223.42 51.3157 223.755 50.981C224.09 50.6463 224.544 50.4583 225.017 50.4583H229.301C229.774 50.4583 230.228 50.6463 230.563 50.981C230.898 51.3157 231.086 51.7697 231.086 52.2431C231.086 52.7164 230.898 53.1704 230.563 53.5051C230.228 53.8398 229.774 54.0279 229.301 54.0279Z" fill="url(#paint9_linear_1615_242821)"/>
<path opacity="0.79" d="M219.896 63.4324C219.423 63.4324 218.969 63.2444 218.634 62.9096C218.299 62.5749 218.111 62.1209 218.111 61.6476V57.823C218.134 57.3641 218.332 56.9315 218.664 56.6146C218.997 56.2978 219.439 56.1211 219.898 56.1211C220.358 56.1211 220.799 56.2978 221.132 56.6146C221.465 56.9315 221.663 57.3641 221.685 57.823V61.6476C221.685 61.8823 221.639 62.1148 221.549 62.3316C221.459 62.5484 221.327 62.7454 221.161 62.9111C220.995 63.0769 220.798 63.2083 220.58 63.2978C220.363 63.3872 220.131 63.433 219.896 63.4324Z" fill="url(#paint10_linear_1615_242821)"/>
<path opacity="0.79" d="M219.896 49.1495C219.422 49.1484 218.968 48.9594 218.634 48.624C218.299 48.2886 218.111 47.8342 218.111 47.3604V43.0769C218.134 42.618 218.332 42.1854 218.664 41.8685C218.997 41.5517 219.439 41.375 219.898 41.375C220.358 41.375 220.799 41.5517 221.132 41.8685C221.465 42.1854 221.663 42.618 221.685 43.0769V47.3604C221.685 47.8349 221.497 48.29 221.161 48.6255C220.826 48.961 220.371 49.1495 219.896 49.1495Z" fill="url(#paint11_linear_1615_242821)"/>
<path opacity="0.79" d="M34.5769 215.672C33.4315 215.672 32.3118 215.333 31.3596 214.696C30.4074 214.059 29.6656 213.154 29.228 212.096C28.7904 211.037 28.6768 209.872 28.9015 208.749C29.1262 207.626 29.6792 206.595 30.4903 205.786C31.3015 204.977 32.3344 204.427 33.4582 204.206C34.5821 203.984 35.7464 204.101 36.8037 204.542C37.861 204.983 38.7637 205.727 39.3977 206.681C40.0316 207.635 40.3682 208.756 40.3648 209.902C40.3581 211.433 39.7456 212.9 38.6611 213.981C37.5767 215.062 36.1083 215.67 34.5769 215.672ZM34.5769 207.666C34.1387 207.665 33.7101 207.794 33.3452 208.037C32.9802 208.279 32.6952 208.625 32.5262 209.029C32.3571 209.433 32.3116 209.878 32.3954 210.309C32.4791 210.739 32.6884 211.134 32.9967 211.446C33.3051 211.757 33.6987 211.97 34.128 212.058C34.5573 212.146 35.003 212.104 35.4089 211.939C35.8147 211.774 36.1626 211.492 36.4086 211.13C36.6545 210.767 36.7876 210.34 36.7909 209.902C36.7932 209.609 36.7376 209.319 36.6274 209.048C36.5172 208.778 36.3545 208.531 36.1488 208.324C35.943 208.116 35.6982 207.951 35.4285 207.838C35.1587 207.725 34.8693 207.667 34.5769 207.666Z" fill="url(#paint12_linear_1615_242821)"/>
<path opacity="0.79" d="M225.018 103.697C223.874 103.697 222.755 103.357 221.803 102.721C220.851 102.085 220.109 101.182 219.671 100.124C219.233 99.0663 219.118 97.9026 219.342 96.7798C219.565 95.6571 220.116 94.6258 220.926 93.8163C221.735 93.0069 222.766 92.4556 223.889 92.2323C225.012 92.009 226.176 92.1236 227.233 92.5617C228.291 92.9997 229.195 93.7416 229.831 94.6934C230.467 95.6452 230.806 96.7643 230.806 97.909C230.804 99.4434 230.193 100.914 229.109 101.999C228.024 103.084 226.553 103.695 225.018 103.697ZM225.018 95.6907C224.579 95.6899 224.15 95.8193 223.785 96.0625C223.419 96.3057 223.134 96.6519 222.966 97.0572C222.797 97.4624 222.753 97.9086 222.838 98.3391C222.923 98.7697 223.134 99.1654 223.444 99.476C223.754 99.7867 224.149 99.9984 224.58 100.084C225.01 100.17 225.456 100.127 225.862 99.9588C226.268 99.791 226.614 99.5067 226.858 99.1418C227.102 98.777 227.232 98.3479 227.232 97.909C227.232 97.3214 226.999 96.7578 226.584 96.3419C226.169 95.9261 225.606 95.6919 225.018 95.6907Z" fill="url(#paint13_linear_1615_242821)"/>
</g>
<g opacity="0.79">
<path opacity="0.79" d="M183.294 47.0034C182.917 47.0038 182.549 46.8848 182.244 46.6634C178.812 44.1619 175.236 41.8632 171.535 39.7791C171.123 39.5464 170.82 39.1593 170.692 38.7031C170.565 38.2468 170.625 37.7588 170.857 37.3463C171.09 36.9338 171.477 36.6306 171.933 36.5035C172.39 36.3764 172.878 36.4357 173.29 36.6685C177.107 38.8224 180.796 41.1948 184.339 43.7737C184.645 43.9954 184.872 44.3083 184.989 44.6674C185.105 45.0265 185.105 45.4133 184.988 45.7723C184.871 46.1312 184.643 46.4437 184.337 46.665C184.031 46.8862 183.663 47.0047 183.285 47.0034H183.294Z" fill="url(#paint14_linear_1615_242821)"/>
<path opacity="0.79" d="M84.9298 30.7658C84.5043 30.7626 84.0938 30.6078 83.7722 30.3292C83.4505 30.0506 83.2386 29.6665 83.1746 29.2458C83.1107 28.8251 83.1987 28.3953 83.4231 28.0337C83.6474 27.6721 83.9933 27.4023 84.3987 27.2727C103.877 21.2493 124.617 20.5756 144.445 25.3221C144.905 25.4349 145.302 25.7258 145.548 26.1311C145.794 26.5363 145.869 27.0226 145.756 27.483C145.643 27.9434 145.352 28.3402 144.947 28.5861C144.542 28.8319 144.055 28.9067 143.595 28.794C124.393 24.1955 104.307 24.8487 85.444 30.6851C85.277 30.7349 85.1041 30.7621 84.9298 30.7658Z" fill="url(#paint15_linear_1615_242821)"/>
<path opacity="0.79" d="M41.7156 56.0676C41.3583 56.0678 41.0092 55.9608 40.7134 55.7604C40.4177 55.56 40.1888 55.2755 40.0566 54.9436C39.9243 54.6118 39.8946 54.2479 39.9714 53.899C40.0483 53.5501 40.228 53.2322 40.4875 52.9866C42.2553 51.3166 44.0996 49.6847 45.9651 48.1379C46.3297 47.8353 46.7996 47.6899 47.2714 47.7337C47.7432 47.7776 48.1783 48.007 48.4809 48.3716C48.7835 48.7362 48.9289 49.2061 48.885 49.6779C48.8412 50.1497 48.6117 50.5847 48.2471 50.8874C46.4368 52.3874 44.652 53.964 42.9394 55.5831C42.6079 55.8942 42.1703 56.0675 41.7156 56.0676Z" fill="url(#paint16_linear_1615_242821)"/>
<path opacity="0.79" d="M7.76643 150.981C7.33207 150.981 6.91274 150.822 6.58667 150.535C6.26061 150.248 6.05008 149.853 5.99437 149.422C4.79875 139.915 4.79875 130.295 5.99437 120.788C7.81479 106.249 12.4772 92.2098 19.7162 79.47C19.95 79.058 20.338 78.7559 20.7946 78.6299C21.2513 78.504 21.7392 78.5647 22.1512 78.7985C22.5631 79.0324 22.8653 79.4203 22.9912 79.877C23.1171 80.3336 23.0565 80.8216 22.8226 81.2335C15.8062 93.5652 11.2852 107.157 9.51725 121.235C8.35569 130.444 8.35569 139.762 9.51725 148.971C9.57623 149.441 9.44654 149.915 9.15658 150.29C8.86663 150.664 8.44008 150.908 7.97041 150.969L7.76643 150.981Z" fill="url(#paint17_linear_1615_242821)"/>
<path opacity="0.79" d="M62.4813 233.113C62.168 233.113 61.8602 233.031 61.5889 232.875C57.2407 230.361 53.0641 227.561 49.0867 224.495C48.721 224.202 48.4847 223.778 48.4288 223.314C48.3729 222.849 48.5017 222.381 48.7877 222.01C49.0736 221.639 49.4936 221.396 49.9573 221.332C50.421 221.268 50.8912 221.389 51.2667 221.669C55.1192 224.637 59.1636 227.347 63.3737 229.781C63.7145 229.977 63.981 230.28 64.1317 230.644C64.2825 231.007 64.309 231.41 64.2073 231.79C64.1055 232.17 63.8812 232.505 63.5691 232.744C63.2569 232.984 62.8745 233.113 62.4813 233.113Z" fill="url(#paint18_linear_1615_242821)"/>
<path opacity="0.79" d="M117.963 247.939C107.944 247.945 97.9677 246.62 88.2969 244C88.0706 243.938 87.8587 243.833 87.6732 243.689C87.4878 243.545 87.3324 243.367 87.216 243.163C87.0996 242.96 87.0244 242.735 86.9948 242.502C86.9651 242.27 86.9816 242.033 87.0433 241.807C87.105 241.581 87.2106 241.369 87.3542 241.183C87.4977 240.998 87.6764 240.843 87.8801 240.726C88.0837 240.61 88.3082 240.535 88.5409 240.505C88.7736 240.475 89.0098 240.492 89.2361 240.554C106.25 245.153 124.12 245.602 141.344 241.862C141.573 241.812 141.81 241.808 142.041 241.85C142.271 241.891 142.492 241.978 142.689 242.104C142.886 242.231 143.057 242.395 143.191 242.588C143.324 242.78 143.419 242.997 143.469 243.227C143.519 243.456 143.523 243.692 143.482 243.923C143.44 244.154 143.354 244.374 143.227 244.571C143.1 244.769 142.936 244.939 142.743 245.073C142.551 245.207 142.334 245.301 142.105 245.351C134.173 247.074 126.08 247.941 117.963 247.939Z" fill="url(#paint19_linear_1615_242821)"/>
<path opacity="0.79" d="M172.414 233.699C172.019 233.698 171.636 233.567 171.324 233.326C171.012 233.084 170.788 232.747 170.688 232.365C170.587 231.984 170.616 231.58 170.769 231.216C170.922 230.852 171.191 230.55 171.534 230.355C174.207 228.85 176.846 227.214 179.379 225.489C179.572 225.357 179.791 225.265 180.02 225.217C180.25 225.169 180.487 225.167 180.717 225.211C180.948 225.255 181.167 225.343 181.363 225.472C181.559 225.601 181.728 225.767 181.86 225.961C181.992 226.155 182.085 226.373 182.133 226.602C182.18 226.832 182.182 227.069 182.138 227.299C182.095 227.53 182.006 227.749 181.877 227.945C181.749 228.142 181.583 228.31 181.389 228.442C178.771 230.223 176.047 231.914 173.289 233.465C173.022 233.618 172.721 233.699 172.414 233.699Z" fill="url(#paint20_linear_1615_242821)"/>
<path opacity="0.79" d="M200.382 211.333C200.038 211.333 199.701 211.232 199.413 211.044C199.124 210.857 198.896 210.59 198.756 210.275C198.616 209.961 198.57 209.613 198.623 209.273C198.676 208.933 198.827 208.615 199.056 208.359C211.249 194.874 219.89 178.563 224.196 160.9C224.252 160.672 224.352 160.458 224.491 160.269C224.63 160.08 224.804 159.92 225.005 159.798C225.205 159.677 225.428 159.596 225.659 159.56C225.891 159.525 226.128 159.535 226.355 159.591C226.583 159.647 226.797 159.747 226.986 159.885C227.175 160.024 227.335 160.199 227.457 160.399C227.578 160.6 227.659 160.822 227.695 161.054C227.73 161.285 227.72 161.522 227.664 161.75C223.217 179.987 214.295 196.828 201.704 210.751C201.536 210.936 201.332 211.083 201.105 211.183C200.877 211.283 200.631 211.335 200.382 211.333Z" fill="url(#paint21_linear_1615_242821)"/>
<path opacity="0.79" d="M229.048 136.856C228.813 136.856 228.581 136.811 228.363 136.721C228.146 136.632 227.949 136.5 227.783 136.335C227.617 136.169 227.485 135.972 227.395 135.755C227.305 135.538 227.259 135.306 227.259 135.071C227.259 131.782 227.114 128.463 226.834 125.208C226.596 122.539 226.256 119.853 225.822 117.223C225.784 116.992 225.792 116.755 225.846 116.527C225.899 116.299 225.997 116.083 226.134 115.893C226.271 115.702 226.444 115.541 226.643 115.417C226.842 115.294 227.064 115.21 227.295 115.172C227.526 115.135 227.763 115.143 227.991 115.196C228.219 115.249 228.435 115.347 228.625 115.484C228.815 115.621 228.977 115.794 229.101 115.993C229.224 116.192 229.307 116.414 229.345 116.645C229.796 119.36 230.144 122.135 230.391 124.889C230.692 128.25 230.845 131.688 230.845 135.088C230.841 135.561 230.649 136.012 230.312 136.344C229.975 136.675 229.52 136.859 229.048 136.856Z" fill="url(#paint22_linear_1615_242821)"/>
</g>
<path d="M39.1985 120.748L38.5768 178.194C38.4718 187.896 46.2516 195.846 55.9533 195.951L89.0384 196.309C98.7402 196.414 106.69 188.634 106.795 178.932L107.417 121.486C107.522 111.784 99.742 103.834 90.0403 103.729L56.9552 103.371C47.2534 103.266 39.3035 111.046 39.1985 120.748Z" fill="url(#paint23_linear_1615_242821)"/>
<path d="M50.4515 195.453C46.8338 194.244 43.6923 191.92 41.4781 188.814C39.2639 185.708 38.091 181.98 38.1278 178.166L38.7482 120.72C38.811 115.952 40.7605 111.402 44.1701 108.067C47.5797 104.732 52.1715 102.884 56.9406 102.927L90.0276 103.284C92.3916 103.31 94.7274 103.801 96.9016 104.729C99.0758 105.658 101.046 107.005 102.699 108.695C104.353 110.385 105.657 112.383 106.538 114.577C107.419 116.771 107.859 119.117 107.833 121.481L107.217 178.931C107.16 183.7 105.213 188.252 101.805 191.589C98.3957 194.925 93.8028 196.773 89.0332 196.728L55.9462 196.371C54.0781 196.351 52.2244 196.042 50.4515 195.453ZM95.263 105.027C93.5754 104.474 91.812 104.187 90.0361 104.177L56.9406 103.803C52.4001 103.76 48.028 105.519 44.7832 108.696C41.5384 111.872 39.6859 116.206 39.6321 120.746L39.0117 178.196C38.963 182.738 40.7206 187.114 43.8979 190.361C47.0753 193.607 51.4122 195.459 55.9547 195.508L89.0459 195.865C93.5884 195.914 97.9643 194.156 101.211 190.979C104.458 187.802 106.309 183.465 106.359 178.922L106.979 121.473C107.015 117.845 105.901 114.299 103.796 111.344C101.691 108.389 98.7037 106.178 95.263 105.027Z" fill="url(#paint24_linear_1615_242821)"/>
<path d="M51.6871 168.515C51.0847 168.315 50.5734 167.907 50.2448 167.364C49.9162 166.821 49.792 166.179 49.8943 165.552C49.9967 164.926 50.3189 164.356 50.8033 163.946C51.2876 163.536 51.9023 163.312 52.537 163.314L82.7089 163.475C83.0593 163.477 83.406 163.548 83.729 163.684C84.052 163.82 84.3451 164.018 84.5916 164.268C84.838 164.517 85.0329 164.812 85.1653 165.137C85.2976 165.461 85.3647 165.809 85.3627 166.159C85.3608 166.51 85.2898 166.856 85.1539 167.179C85.018 167.502 84.8197 167.795 84.5705 168.042C84.3214 168.288 84.0261 168.483 83.7015 168.615C83.377 168.748 83.0296 168.815 82.6791 168.813L52.5073 168.651C52.2283 168.651 51.9512 168.605 51.6871 168.515Z" fill="white"/>
<path d="M51.8395 180.911C51.2371 180.711 50.7257 180.303 50.3971 179.76C50.0686 179.217 49.9443 178.574 50.0467 177.948C50.149 177.321 50.4713 176.752 50.9556 176.342C51.44 175.932 52.0547 175.707 52.6894 175.709L75.7559 175.833C76.1064 175.835 76.453 175.906 76.7761 176.042C77.0991 176.177 77.3922 176.376 77.6386 176.625C77.8851 176.874 78.08 177.169 78.2123 177.494C78.3446 177.818 78.4117 178.166 78.4098 178.516C78.4078 178.867 78.3369 179.213 78.2009 179.536C78.065 179.859 77.8668 180.153 77.6176 180.399C77.3684 180.645 77.0731 180.84 76.7486 180.973C76.4241 181.105 76.0766 181.172 75.7262 181.17L52.6596 181.047C52.3808 181.045 52.1039 180.999 51.8395 180.911Z" fill="white"/>
<path d="M202.139 180.941C199.679 183.433 196.749 185.411 193.518 186.761C190.288 188.112 186.821 188.807 183.32 188.807C179.818 188.807 176.352 188.112 173.121 186.761C169.891 185.411 166.96 183.433 164.501 180.941L142.59 158.814C151.199 155.423 159.004 150.27 165.503 143.685C171.947 137.187 176.996 129.44 180.339 120.92L202.139 142.933C207.134 147.997 209.935 154.824 209.935 161.937C209.935 169.05 207.134 175.877 202.139 180.941Z" fill="url(#paint25_linear_1615_242821)"/>
<path d="M132.644 160.275C159.329 160.275 180.961 138.643 180.961 111.958C180.961 85.2726 159.329 63.6401 132.644 63.6401C105.959 63.6401 84.3262 85.2726 84.3262 111.958C84.3262 138.643 105.959 160.275 132.644 160.275Z" fill="url(#paint26_linear_1615_242821)"/>
<path d="M132.646 160.399C121.438 160.392 110.579 156.499 101.92 149.384C93.2605 142.269 87.336 132.371 85.1559 121.377C82.9758 110.384 84.6749 98.9741 89.9638 89.0927C95.2527 79.2114 103.804 71.4695 114.161 67.1862C124.518 62.9029 136.04 62.3432 146.763 65.6024C157.487 68.8616 166.748 75.7381 172.97 85.0602C179.192 94.3824 181.989 105.573 180.885 116.727C179.78 127.88 174.843 138.305 166.914 146.226C162.417 150.729 157.075 154.299 151.194 156.732C145.313 159.164 139.01 160.41 132.646 160.399ZM132.646 63.785C124.724 63.7853 116.924 65.7394 109.938 69.474C102.952 73.2086 96.9939 78.6085 92.5929 85.1955C88.1919 91.7824 85.4832 99.3531 84.7068 107.237C83.9305 115.121 85.1104 123.074 88.142 130.393C91.1736 137.712 95.9635 144.17 102.087 149.196C108.211 154.222 115.48 157.66 123.249 159.205C131.019 160.751 139.05 160.356 146.631 158.057C154.212 155.757 161.108 151.624 166.71 146.022L166.812 146.124L166.71 146.022C173.448 139.285 178.036 130.701 179.895 121.357C181.754 112.012 180.8 102.325 177.154 93.5227C173.507 84.72 167.333 77.1963 159.41 71.903C151.488 66.6097 142.174 63.7846 132.646 63.785Z" fill="url(#paint27_linear_1615_242821)"/>
<path d="M132.646 131.922C143.672 131.922 152.61 122.984 152.61 111.958C152.61 100.932 143.672 91.9934 132.646 91.9934C121.62 91.9934 112.682 100.932 112.682 111.958C112.682 122.984 121.62 131.922 132.646 131.922Z" fill="white"/>
</g>
</svg>
