<svg width="92" height="20" viewBox="0 0 92 20" fill="none" xmlns="http://www.w3.org/2000/svg">
<path d="M18.6208 17.0469H18.9414C19.0216 17.0469 19.0788 16.9897 19.1017 16.944L20.0178 14.8408H24.3922L25.3197 16.944C25.3426 16.9897 25.3999 17.0469 25.48 17.0469H25.7778C25.9037 17.0469 25.9037 16.9783 25.8808 16.9097L22.3882 8.95404C22.3539 8.88545 22.2966 8.87402 22.2393 8.87402H22.205C22.1477 8.87402 22.0905 8.90832 22.0676 8.95404L18.5406 16.9097C18.5063 17.0011 18.5406 17.0469 18.6208 17.0469ZM20.2239 14.395L22.2164 9.78847H22.2393L24.1975 14.395H20.2239Z" fill="white"/>
<path d="M27.167 16.8983C27.167 16.9783 27.2357 17.0469 27.3159 17.0469H27.5335C27.6136 17.0469 27.6823 16.9783 27.6823 16.8983V9.94849H27.6938C33.1331 17.1269 33.2247 17.1612 33.2362 17.1612H33.385C33.4767 17.1612 33.5683 17.1154 33.5683 17.0126V9.19408C33.5683 9.11406 33.4996 9.04548 33.4194 9.04548H33.1904C33.1102 9.04548 33.0415 9.11406 33.0415 9.19408V16.0753C33.0415 16.0753 33.0415 16.0753 33.0301 16.0753L27.5335 8.93118H27.3388C27.2472 8.93118 27.167 8.98833 27.167 9.07977V16.8983Z" fill="white"/>
<path d="M35.4289 13.0576C35.4289 15.3551 37.2726 17.1612 39.5742 17.1612C41.0744 17.1612 42.1164 16.5668 42.3225 16.4296C42.4141 16.361 42.4829 16.3039 42.4829 16.1324V13.4805C42.4829 13.4119 42.4141 13.3434 42.334 13.3434H39.9865C39.8605 13.3434 39.8376 13.3891 39.8376 13.4805V13.7091C39.8376 13.812 39.8605 13.8577 39.9865 13.8577H41.9446V16.0067C41.8301 16.0981 40.9598 16.6354 39.5628 16.6354C37.5703 16.6354 36.0015 15.0122 36.0015 13.0347C36.0015 11.0573 37.5703 9.43412 39.5628 9.43412C40.5018 9.43412 41.3377 9.7999 41.979 10.3943C42.0477 10.4629 42.105 10.4743 42.1737 10.3943C42.2309 10.3371 42.2996 10.2685 42.3569 10.2C42.4141 10.1428 42.4027 10.0514 42.3454 9.99421C41.6011 9.31981 40.7308 8.93118 39.5742 8.93118C37.2726 8.93118 35.4289 10.7715 35.4289 13.0576Z" fill="white"/>
<path d="M44.5116 16.8983C44.5116 16.9783 44.5803 17.0469 44.6605 17.0469H49.2524C49.3326 17.0469 49.4013 16.9783 49.4013 16.8983V16.7154C49.4013 16.6354 49.3326 16.5668 49.2524 16.5668H45.0613V13.1833H48.6913C48.7714 13.1833 48.8402 13.1147 48.8402 13.0347V12.8404C48.8402 12.7604 48.7714 12.6918 48.6913 12.6918H45.0613V9.53699H49.2524C49.3326 9.53699 49.4013 9.46841 49.4013 9.3884V9.19408C49.4013 9.11406 49.3326 9.04548 49.2524 9.04548H44.6605C44.5803 9.04548 44.5116 9.11406 44.5116 9.19408V16.8983Z" fill="white"/>
<path d="M51.3555 16.8983C51.3555 16.9783 51.4242 17.0469 51.5043 17.0469H55.5466C55.6268 17.0469 55.6955 17.0011 55.6955 16.9211V16.7154C55.6955 16.6354 55.684 16.5668 55.5466 16.5668H51.8937V9.19408C51.8937 9.11406 51.825 9.04548 51.7563 9.04548H51.5043C51.4242 9.04548 51.3555 9.11406 51.3555 9.19408V16.8983Z" fill="white"/>
<path d="M56.2812 12.7573C56.2812 15.3853 58.4006 17.4746 61.0334 17.4746C62.205 17.4746 63.3371 17.0673 64.2323 16.2C64.3244 16.108 64.3508 15.9372 64.2454 15.8452L63.4293 15.0043C63.3503 14.9254 63.2055 14.9123 63.1002 15.0043C62.5473 15.451 61.8759 15.7532 61.0861 15.7532C59.4011 15.7532 58.1374 14.3604 58.1374 12.7179C58.1374 11.0622 59.3879 9.65619 61.0729 9.65619C61.8101 9.65619 62.5473 9.94528 63.1002 10.4315C63.2055 10.5366 63.3371 10.5366 63.4293 10.4315L64.2323 9.60363C64.3376 9.49851 64.3376 9.34083 64.2191 9.23571C63.324 8.43416 62.363 8.01367 61.0334 8.01367C58.4006 8.01367 56.2812 10.1292 56.2812 12.7573Z" fill="white"/>
<path d="M65.2546 12.7573C65.2546 15.3853 67.3477 17.4746 69.9805 17.4746C72.6133 17.4746 74.7195 15.3853 74.7195 12.7573C74.7195 10.1292 72.6133 8.01367 69.9805 8.01367C67.3477 8.01367 65.2546 10.1292 65.2546 12.7573ZM66.966 12.7573C66.966 11.1016 68.3218 9.7219 69.9805 9.7219C71.6392 9.7219 73.0082 11.1016 73.0082 12.7573C73.0082 14.4129 71.6392 15.7664 69.9805 15.7664C68.3218 15.7664 66.966 14.4129 66.966 12.7573Z" fill="white"/>
<path d="M76.4414 17.0935C76.4414 17.2249 76.5467 17.3432 76.6916 17.3432H77.9026C78.0343 17.3432 78.1528 17.2249 78.1528 17.0935V13.7428H79.6139L81.3648 17.2249C81.3911 17.2775 81.4569 17.3432 81.5754 17.3432H82.9576C83.1814 17.3432 83.2735 17.133 83.1814 16.9621L81.3779 13.6245C82.5232 13.1646 83.3262 12.1791 83.3262 10.9702C83.3262 9.40653 82.0361 8.14507 80.4564 8.14507H76.6916C76.5467 8.14507 76.4414 8.26334 76.4414 8.39474V17.0935ZM78.1659 12.3368V9.7219H80.3116C81.0093 9.7219 81.6149 10.3001 81.6149 10.9965C81.6149 11.7323 81.0093 12.3368 80.3116 12.3368H78.1659Z" fill="white"/>
<path d="M85.2088 17.0935C85.2088 17.2249 85.3141 17.3432 85.459 17.3432H86.67C86.8017 17.3432 86.9201 17.2249 86.9201 17.0935V14.0056H88.5656C90.1716 14.0056 91.5012 12.6784 91.5012 11.0491C91.5012 9.45909 90.1716 8.14507 88.5525 8.14507H85.459C85.3141 8.14507 85.2088 8.26334 85.2088 8.39474V17.0935ZM86.9201 12.4025V9.76132H88.4472C89.1843 9.76132 89.8031 10.3132 89.8031 11.0359C89.8031 11.8112 89.1843 12.4025 88.4472 12.4025H86.9201Z" fill="white"/>
<path d="M9.86069 9.60813C7.68558 5.54616 4.19748 3.41295 2.07031 4.84419C-0.0568541 6.27542 -0.0180271 10.7281 2.15708 14.7905C4.33219 18.8528 7.82028 20.9857 9.94785 19.5548C12.0754 18.124 12.0362 13.6705 9.86069 9.60813ZM3.165 14.1292C1.02 10.1215 0.581811 5.99701 2.18719 4.91696C3.79257 3.8369 6.83376 6.21057 8.97876 10.2183C11.1238 14.2261 11.5635 18.3506 9.95815 19.4306C8.35277 20.5107 5.31277 18.137 3.16619 14.1292H3.165Z" fill="white"/>
<path d="M7.87287 19.5048C9.99013 20.948 13.4949 18.8349 15.6961 14.786C17.8974 10.7371 17.9695 6.2832 15.8522 4.8401C13.735 3.397 10.2322 5.50925 8.02738 9.55895C5.82256 13.6087 5.75521 18.0614 7.87287 19.5048ZM7.86217 19.3807C6.26431 18.2915 6.73143 14.1694 8.90535 10.1743C11.0793 6.17919 14.1351 3.82293 15.7349 4.91208C17.3348 6.00123 16.8657 10.1229 14.6914 14.1184C12.5171 18.1139 9.46002 20.4698 7.86217 19.3807Z" fill="white"/>
<path d="M8.85408 1.94678C7.71146 1.94678 6.78516 2.81683 6.78516 3.89174C6.78516 4.77722 7.41471 5.52468 8.27604 5.75959C7.91423 5.62496 7.61148 5.36744 7.42093 5.03221C7.23037 4.69699 7.16418 4.30548 7.23397 3.9264C7.30376 3.54732 7.50508 3.20489 7.80259 2.9592C8.10009 2.7135 8.47478 2.58025 8.8609 2.58283C9.24702 2.5854 9.61989 2.72363 9.91409 2.97327C10.2083 3.22291 10.405 3.568 10.4697 3.94797C10.5344 4.32795 10.463 4.71854 10.268 5.05119C10.073 5.38385 9.76679 5.63731 9.40321 5.7671C10.2792 5.54089 10.9226 4.78711 10.9226 3.89174C10.9226 2.81762 9.99631 1.94678 8.85408 1.94678Z" fill="white"/>
<path d="M8.96911 1.89076e-05C6.93069 -0.00393588 5.27698 0.613012 5.27539 1.37747C5.27539 2.00787 6.39702 2.54176 7.93346 2.71182C6.81976 2.54453 6.02697 2.11623 6.02776 1.61555C6.02776 0.971315 7.34234 0.45126 8.96158 0.454424C10.5808 0.457588 11.8934 0.981598 11.8914 1.62583C11.8914 2.13244 11.0785 2.56154 9.94494 2.72091C11.5079 2.56272 12.6569 2.02804 12.6581 1.39092C12.6597 0.62804 11.0079 0.00357822 8.96911 1.89076e-05Z" fill="white"/>
</svg>
