<svg width="24" height="12" viewBox="0 0 24 12" fill="none" xmlns="http://www.w3.org/2000/svg">
<path fill-rule="evenodd" clip-rule="evenodd" d="M23.2238 11.1983H23.326V0.78125H22.7132V7.60338C22.8562 7.84848 22.9787 8.11402 23.0604 8.44082C23.1626 8.84934 23.2238 9.31912 23.2238 9.87061V11.1983ZM21.8757 6.80678V0.78125H21.5285V6.6638C21.6102 6.68423 21.6715 6.70465 21.7328 6.74551C21.7736 6.76593 21.8349 6.78636 21.8757 6.80678ZM20.9362 6.54125V0.78125H20.3234V6.54125C20.4051 6.54125 20.4664 6.54125 20.5481 6.54125C20.6706 6.52082 20.8136 6.54125 20.9362 6.54125ZM20.017 6.56168V0.78125H19.6698V6.64338C19.7719 6.60253 19.8945 6.5821 20.017 6.56168ZM19.3226 6.76593V0.78125H18.2196V6.62295C18.4851 6.6638 18.7098 6.84763 18.8119 7.09274C18.9549 6.97019 19.1183 6.86806 19.3226 6.76593ZM17.423 5.74465V0.78125H16.8102V5.64253C16.994 5.64253 17.2391 5.66295 17.423 5.74465ZM17.9132 6.13274V0.78125H17.566V5.80593L17.5864 5.82636C17.7294 5.88763 17.8315 6.01019 17.9132 6.13274ZM16.5651 5.66295V0.78125H16.2996V5.7038C16.3813 5.68338 16.4834 5.66295 16.5651 5.66295ZM16.1566 5.74465V0.78125H15.8094V6.60253C15.8298 6.60253 15.8298 6.60253 15.8298 6.60253V6.337V5.90806C15.8298 5.90806 15.8502 5.88763 15.8706 5.86721C15.9523 5.82636 16.0545 5.78551 16.1566 5.74465ZM14.8698 6.76593V0.78125H14.257V6.56168C14.4613 6.60253 14.6451 6.6638 14.8085 6.74551C14.8289 6.74551 14.8494 6.76593 14.8698 6.76593ZM15.3396 6.78636V0.78125H14.9923V6.84763C15.0536 6.88848 15.1149 6.92934 15.1557 6.97019C15.217 6.90891 15.2783 6.84763 15.3396 6.78636ZM14.0119 6.54125V0.78125H13.7464V6.52082C13.8281 6.52082 13.9302 6.52082 14.0119 6.54125ZM13.6034 6.52082V0.78125H13.2562V6.54125C13.3583 6.54125 13.4809 6.52082 13.6034 6.52082ZM12.6638 6.72508V0.78125H12.0511V7.11317C12.2145 6.97019 12.3983 6.84763 12.6026 6.74551C12.6026 6.74551 12.623 6.72508 12.6638 6.72508ZM6.53617 6.6638V0.78125H5.9234V6.99061C6.04596 6.90891 6.16851 6.82721 6.29106 6.76593C6.37277 6.72508 6.45447 6.70465 6.53617 6.6638ZM7.02638 6.56168V0.78125H6.67915V6.62295C6.78128 6.60253 6.90383 6.56168 7.02638 6.56168ZM11.6017 5.19317V0.78125H11.3362V5.00934C11.4587 5.07061 11.5609 5.13189 11.6017 5.19317ZM11.1932 4.96848V0.78125H10.846V4.90721C10.9685 4.92763 11.0911 4.94806 11.1932 4.96848ZM10.2536 4.92763V0.78125H9.64085V7.5421C9.64085 7.56253 9.66128 7.56253 9.66128 7.58295V5.29529C9.66128 5.13189 9.90638 4.98891 10.2536 4.92763ZM9.33447 7.17444V0.78125H8.98723V6.88848C9.10979 6.97019 9.23234 7.07231 9.33447 7.17444ZM8.64 6.72508V0.78125H7.53702V6.52082C7.94553 6.52082 8.31319 6.5821 8.64 6.72508ZM0 11.1983H0.612766V0.78125H0V11.1983ZM0.755745 11.1983L0.77617 11.137V5.86721C0.77617 5.66295 0.817021 5.51997 0.898723 5.43827C0.96 5.37699 1.02128 5.33614 1.10298 5.31572V0.78125H0.755745V11.1983ZM5.6783 7.17444V0.78125H5.41277V6.97019C5.43319 7.11316 5.45362 7.25614 5.45362 7.41955C5.53532 7.33785 5.5966 7.25614 5.6783 7.17444ZM5.26979 6.45955V0.78125H4.92255V5.94891C5.06553 6.09189 5.18808 6.25529 5.26979 6.45955ZM4.33021 5.5404V0.78125H3.71745V5.35657C3.84 5.37699 3.96255 5.39742 4.06468 5.43827C4.16681 5.4587 4.24851 5.49955 4.33021 5.5404ZM3.41106 5.31572V0.78125H3.06383V5.29529C3.18638 5.31572 3.30894 5.31572 3.41106 5.31572ZM2.7166 5.29529V0.78125H1.61362V5.29529H2.7166ZM22.2843 7.09274V0.78125H22.0187V6.88848C22.1209 6.94976 22.2026 7.01104 22.2843 7.09274ZM23.6528 11.1983H24V0.78125H23.6528V11.1983Z" fill="black"/>
<path d="M5.1473 9.58472C5.1473 9.76855 5.12687 9.93196 5.0656 10.0749C5.02475 10.2179 4.94304 10.3609 4.86134 10.463C4.77964 10.5856 4.67751 10.6673 4.55496 10.749C4.4324 10.8307 4.28943 10.892 4.14645 10.9532C4.00347 11.0145 3.84006 11.0349 3.67666 11.0758C3.51326 11.0962 3.32943 11.1166 3.12517 11.1166H1.77709C1.69538 11.1166 1.61368 11.0962 1.55241 11.0349C1.49113 10.9941 1.4707 10.9124 1.4707 10.7898V6.33706C1.4707 6.21451 1.49113 6.13281 1.55241 6.09196C1.61368 6.03068 1.67496 6.01025 1.77709 6.01025H3.06389C3.37028 6.01025 3.63581 6.03068 3.86049 6.09196C4.08517 6.15323 4.269 6.21451 4.41198 6.33706C4.55496 6.43919 4.67751 6.58217 4.75921 6.74557C4.84092 6.90898 4.88177 7.09281 4.88177 7.31749C4.88177 7.44004 4.86134 7.56259 4.84092 7.66472C4.80006 7.76685 4.75921 7.86898 4.69794 7.9711C4.63666 8.05281 4.55496 8.13451 4.47326 8.21621C4.39155 8.27749 4.28943 8.33876 4.16687 8.37962C4.30985 8.40004 4.45283 8.46132 4.57538 8.52259C4.69794 8.58387 4.80006 8.66557 4.90219 8.7677C4.98389 8.86983 5.0656 8.99238 5.12687 9.13536C5.12687 9.25791 5.1473 9.42132 5.1473 9.58472ZM3.81964 7.44004C3.81964 7.33791 3.79921 7.25621 3.77879 7.15408C3.73794 7.07238 3.69709 7.01111 3.63581 6.94983C3.57453 6.88855 3.49283 6.8477 3.3907 6.82728C3.28858 6.80685 3.16602 6.78642 3.00262 6.78642H2.47155V8.11408H3.06389C3.20687 8.11408 3.32943 8.09366 3.43155 8.05281C3.51326 8.01196 3.59496 7.97111 3.65623 7.90983C3.71751 7.84855 3.75836 7.76685 3.77879 7.68515C3.79921 7.62387 3.81964 7.52174 3.81964 7.44004ZM4.08517 9.62557C4.08517 9.50302 4.06475 9.40089 4.02389 9.29876C3.98304 9.19664 3.92177 9.13536 3.84006 9.07408C3.75836 9.01281 3.67666 8.97196 3.55411 8.93111C3.43155 8.89025 3.28858 8.86983 3.08432 8.86983H2.47155V10.32H3.2273C3.37028 10.32 3.49283 10.2996 3.59496 10.2792C3.69709 10.2588 3.77879 10.1975 3.86049 10.1362C3.92177 10.0749 3.98304 10.0137 4.02389 9.91153C4.06475 9.85025 4.08517 9.74813 4.08517 9.62557Z" fill="black"/>
<path d="M9.47705 9.19677C9.47705 9.50316 9.4362 9.76869 9.35449 10.0138C9.27279 10.2589 9.15024 10.4632 8.98684 10.647C8.82343 10.8308 8.61918 10.9534 8.37407 11.0555C8.12896 11.1576 7.84301 11.1985 7.5162 11.1985C7.20981 11.1985 6.92386 11.1576 6.69918 11.0759C6.47449 10.9942 6.27024 10.8717 6.12726 10.6878C5.98428 10.5244 5.86173 10.3202 5.78003 10.0751C5.7596 9.85039 5.71875 9.56443 5.71875 9.25805C5.71875 8.95167 5.7596 8.68613 5.8413 8.44103C5.92301 8.19592 6.04556 7.97124 6.20896 7.80784C6.37237 7.62401 6.57662 7.50145 6.8013 7.39933C7.04641 7.2972 7.33237 7.25635 7.63875 7.25635C7.94513 7.25635 8.23109 7.2972 8.45577 7.3789C8.68045 7.4606 8.88471 7.58316 9.02769 7.74656C9.17067 7.90996 9.29322 8.11422 9.37492 8.35933C9.45662 8.60443 9.47705 8.86996 9.47705 9.19677ZM8.4762 9.23762C8.4762 9.05379 8.45577 8.91082 8.43535 8.76784C8.41492 8.62486 8.35364 8.50231 8.29237 8.37975C8.23109 8.27762 8.12896 8.19592 8.02683 8.13465C7.92471 8.07337 7.78173 8.05294 7.61832 8.05294C7.47535 8.05294 7.33237 8.07337 7.23024 8.13465C7.12811 8.19592 7.02598 8.27762 6.96471 8.37975C6.90343 8.48188 6.84215 8.60443 6.8013 8.74741C6.74003 8.86996 6.74003 9.03337 6.74003 9.2172C6.74003 9.40103 6.76045 9.54401 6.78088 9.68699C6.8013 9.82996 6.86258 9.95252 6.92386 10.0751C6.98513 10.1772 7.06684 10.2589 7.18939 10.3202C7.29152 10.3815 7.43449 10.4019 7.5979 10.4019C7.74088 10.4019 7.88386 10.3815 7.98598 10.3202C8.08811 10.2589 8.19024 10.1976 8.25152 10.0955C8.31279 9.99337 8.37407 9.87082 8.41492 9.72784C8.45577 9.58486 8.4762 9.42145 8.4762 9.23762Z" fill="black"/>
<path d="M11.2753 10.994C11.2753 11.0144 11.2753 11.0348 11.2549 11.0553C11.2345 11.0757 11.2141 11.0961 11.1732 11.0961C11.1324 11.1165 11.0915 11.1165 11.0302 11.1165C10.969 11.1165 10.8873 11.1165 10.7851 11.1165C10.683 11.1165 10.6013 11.1165 10.54 11.1165C10.4788 11.1165 10.4175 11.0961 10.397 11.0961C10.3562 11.0757 10.3358 11.0757 10.3153 11.0553C10.2949 11.0348 10.2949 11.0144 10.2949 10.994V5.8059C10.2949 5.78547 10.2949 5.76505 10.3153 5.74462C10.3358 5.7242 10.3562 5.70377 10.397 5.68335C10.4379 5.66292 10.4788 5.66292 10.54 5.6425C10.6013 5.6425 10.683 5.62207 10.7851 5.62207C10.8873 5.62207 10.969 5.62207 11.0302 5.6425C11.0915 5.6425 11.1528 5.66292 11.1732 5.68335C11.2141 5.70377 11.2345 5.7242 11.2549 5.74462C11.2753 5.76505 11.2753 5.78547 11.2753 5.8059V10.994Z" fill="black"/>
<path d="M15.5027 9.13541C15.5027 9.25797 15.4823 9.33967 15.421 9.40095C15.3597 9.46222 15.2984 9.48265 15.1963 9.48265H13.0516C13.0516 9.62563 13.0721 9.76861 13.1129 9.89116C13.1538 10.0137 13.1946 10.1158 13.2763 10.1975C13.358 10.2792 13.4601 10.3405 13.5827 10.3814C13.7052 10.4222 13.8482 10.4426 14.0116 10.4426C14.1955 10.4426 14.3384 10.4222 14.461 10.4018C14.5835 10.3814 14.7061 10.3405 14.8082 10.3201C14.9104 10.2792 14.9921 10.2588 15.0533 10.2384C15.1146 10.218 15.1759 10.1975 15.2167 10.1975C15.2372 10.1975 15.2576 10.1975 15.278 10.218C15.2984 10.218 15.2984 10.2384 15.3189 10.2588C15.3189 10.2792 15.3393 10.3201 15.3393 10.3609C15.3393 10.4018 15.3393 10.4631 15.3393 10.5244C15.3393 10.5856 15.3393 10.6265 15.3393 10.6673C15.3393 10.7082 15.3393 10.749 15.3189 10.7695C15.3189 10.7899 15.2984 10.8307 15.2984 10.8512C15.278 10.8716 15.278 10.892 15.2576 10.9124C15.2372 10.9329 15.1963 10.9533 15.1146 10.9941C15.0329 11.035 14.9308 11.0554 14.8287 11.0963C14.7061 11.1371 14.5835 11.1575 14.4201 11.178C14.2772 11.1984 14.1138 11.2188 13.9299 11.2188C13.6235 11.2188 13.3376 11.178 13.1129 11.0963C12.8882 11.0146 12.684 10.892 12.5206 10.7286C12.3572 10.5652 12.255 10.3609 12.1733 10.1158C12.0916 9.87073 12.0508 9.58478 12.0508 9.25797C12.0508 8.95158 12.0916 8.66563 12.1733 8.42052C12.255 8.17541 12.3776 7.95073 12.5206 7.78733C12.684 7.6035 12.8678 7.48095 13.0925 7.37882C13.3172 7.27669 13.5623 7.23584 13.8482 7.23584C14.1342 7.23584 14.3997 7.27669 14.604 7.35839C14.8082 7.4401 14.9921 7.56265 15.1146 7.72605C15.2576 7.88946 15.3393 8.05286 15.421 8.27754C15.4823 8.4818 15.5231 8.70648 15.5231 8.97201V9.13541H15.5027ZM14.5427 8.84946C14.5427 8.5635 14.5018 8.35924 14.3793 8.19584C14.2567 8.03244 14.0729 7.95073 13.8278 7.95073C13.7052 7.95073 13.5827 7.97116 13.501 8.01201C13.3989 8.05286 13.3376 8.11414 13.2763 8.19584C13.215 8.27754 13.1742 8.37967 13.1333 8.4818C13.0925 8.58393 13.0721 8.70648 13.0721 8.82903H14.5427V8.84946Z" fill="black"/>
<path d="M18.362 10.6469C18.362 10.7694 18.362 10.8511 18.3415 10.9124C18.3211 10.9737 18.3007 11.0145 18.2802 11.035C18.2598 11.0554 18.219 11.0758 18.1781 11.0962C18.1373 11.1167 18.076 11.1371 18.0147 11.1575C17.9534 11.1779 17.8922 11.1779 17.8105 11.1984C17.7288 11.1984 17.6675 11.2188 17.5858 11.2188C17.3815 11.2188 17.2181 11.1984 17.0751 11.1371C16.9322 11.0962 16.8096 11.0145 16.7075 10.9124C16.6054 10.8103 16.5441 10.6877 16.5032 10.5243C16.4624 10.3609 16.442 10.1771 16.442 9.97282V8.13453H16.013C15.9722 8.13453 15.9313 8.09367 15.8905 8.0324C15.87 7.97112 15.8496 7.86899 15.8496 7.72601C15.8496 7.64431 15.8496 7.58304 15.8496 7.54218C15.8496 7.48091 15.87 7.44006 15.8905 7.41963C15.9109 7.39921 15.9109 7.35836 15.9313 7.35836C15.9517 7.33793 15.9722 7.33793 15.9926 7.33793H16.4215V6.54133C16.4215 6.52091 16.4215 6.50048 16.442 6.48006C16.4624 6.45963 16.4828 6.43921 16.5237 6.41878C16.5645 6.39836 16.6054 6.39836 16.6871 6.37793C16.7483 6.37793 16.83 6.37793 16.9322 6.37793C17.0343 6.37793 17.116 6.37793 17.1773 6.37793C17.2385 6.37793 17.2998 6.39836 17.3407 6.41878C17.3815 6.43921 17.402 6.45963 17.4224 6.48006C17.4428 6.50048 17.4428 6.52091 17.4428 6.54133V7.33793H18.1985C18.219 7.33793 18.2394 7.33793 18.2598 7.35836C18.2802 7.37878 18.3007 7.39921 18.3007 7.41963C18.3211 7.46048 18.3211 7.50133 18.3211 7.54218C18.3211 7.60346 18.3211 7.66474 18.3211 7.72601C18.3211 7.86899 18.3007 7.97112 18.2802 8.0324C18.2598 8.09367 18.219 8.13453 18.1577 8.13453H17.3815V9.78899C17.3815 9.97282 17.402 10.1158 17.4632 10.2179C17.5245 10.3201 17.6266 10.3609 17.79 10.3609C17.8513 10.3609 17.8922 10.3609 17.933 10.3405C17.9739 10.3201 18.0147 10.3201 18.0351 10.2996C18.076 10.2792 18.0964 10.2792 18.1168 10.2588C18.1373 10.2588 18.1577 10.2384 18.1781 10.2384C18.1985 10.2384 18.219 10.2384 18.219 10.2588C18.2394 10.2588 18.2394 10.2792 18.2598 10.3201C18.2598 10.3405 18.2802 10.3813 18.2802 10.4222C18.3415 10.5039 18.362 10.5652 18.362 10.6469Z" fill="black"/>
<path d="M22.5491 9.19669C22.5491 9.50307 22.5083 9.76861 22.4266 10.0137C22.3449 10.2588 22.2223 10.4631 22.0589 10.6469C21.8955 10.8307 21.6913 10.9533 21.4462 11.0554C21.2011 11.1575 20.9151 11.1984 20.5883 11.1984C20.2819 11.1984 19.996 11.1575 19.7713 11.0758C19.5466 10.9941 19.3423 10.8716 19.1994 10.6878C19.0564 10.5244 18.9338 10.3201 18.8521 10.075C18.7704 9.82988 18.75 9.56435 18.75 9.23754C18.75 8.93116 18.7909 8.66563 18.8726 8.42052C18.9543 8.17541 19.0768 7.95073 19.2402 7.78733C19.4036 7.6035 19.6079 7.48095 19.8326 7.37882C20.0777 7.27669 20.3636 7.23584 20.67 7.23584C20.9764 7.23584 21.2623 7.27669 21.487 7.35839C21.7117 7.4401 21.916 7.56265 22.0589 7.72605C22.2019 7.88946 22.3245 8.09371 22.4062 8.33882C22.5083 8.60435 22.5491 8.86988 22.5491 9.19669ZM21.5279 9.23754C21.5279 9.05371 21.5074 8.91073 21.487 8.76775C21.4666 8.62478 21.4053 8.50222 21.344 8.37967C21.2828 8.27754 21.1806 8.19584 21.0785 8.13456C20.9764 8.07329 20.8334 8.05286 20.67 8.05286C20.527 8.05286 20.384 8.07329 20.2819 8.13456C20.1798 8.19584 20.0777 8.27754 20.0164 8.37967C19.9551 8.4818 19.8938 8.60435 19.853 8.74733C19.8121 8.89031 19.7917 9.05371 19.7917 9.23754C19.7917 9.42137 19.8121 9.56435 19.8326 9.70733C19.853 9.85031 19.9143 9.97286 19.9755 10.0954C20.0368 10.1975 20.1185 10.2792 20.2411 10.3405C20.3432 10.4018 20.4862 10.4222 20.6496 10.4222C20.7926 10.4222 20.9355 10.4018 21.0377 10.3405C21.1398 10.2792 21.2419 10.218 21.3032 10.1158C21.3645 10.0137 21.4257 9.89116 21.4666 9.74818C21.5074 9.58478 21.5279 9.42137 21.5279 9.23754Z" fill="black"/>
</svg>
