<svg width="176" height="200" viewBox="0 0 176 200" fill="none" xmlns="http://www.w3.org/2000/svg">
<path d="M134.498 15.9378L164.602 14.6863C165.9 14.6319 167.195 14.8369 168.413 15.2893C169.63 15.7416 170.745 16.4323 171.693 17.3209C172.64 18.2095 173.401 19.2781 173.93 20.4642C174.46 21.6503 174.747 22.9301 174.776 24.2287L175.84 70.7268C175.895 73.1809 175.025 75.5658 173.402 77.4071C171.778 79.2483 169.521 80.4109 167.08 80.6635C166.261 80.7486 165.506 81.142 164.967 81.7636C164.427 82.3853 164.145 83.1888 164.176 84.0111L167.962 182.251C168.084 185.468 166.929 188.602 164.748 190.97C162.568 193.338 159.539 194.748 156.323 194.891L41.3139 199.997C40.8856 200.016 40.4577 199.95 40.0551 199.803C39.6524 199.656 39.283 199.43 38.9681 199.139C38.6533 198.848 38.3993 198.498 38.2209 198.108C38.0424 197.718 37.9431 197.297 37.9286 196.868L32.854 26.3061C32.8292 25.4701 33.1286 24.657 33.6896 24.0366C34.2505 23.4162 35.0295 23.0366 35.8637 22.9773L134.498 15.9378Z" fill="#1D71B8"/>
<g opacity="0.3">
<path opacity="0.3" d="M37.8408 193.576L37.9409 196.798L161.748 185.416L159.383 14.8857C159.383 14.8857 129.348 19.4411 128.785 19.4411C128.221 19.4411 37.8408 193.576 37.8408 193.576Z" fill="black"/>
</g>
<path d="M118.828 6.78332L154.757 4.59326L158.468 181.344L32.0075 194.171L13.3857 18.3468L118.828 6.78332Z" fill="#EBEBEB"/>
<path d="M118.848 6.78388C118.848 6.78388 118.223 6.86523 116.971 7.00289L111.502 7.62862L90.4964 9.9626L13.3874 18.4663L13.4938 18.3349C18.4997 65.44 24.9885 126.637 32.1594 194.166L31.9779 194.022L60.3236 191.15L158.445 181.207L158.301 181.363C156.718 104.079 155.416 40.6923 154.671 4.60634L154.753 4.68142L128.015 6.27704L121.132 6.67125L118.804 6.7964C118.804 6.7964 119.587 6.73383 121.126 6.63371L128.009 6.1957L154.746 4.53125H154.822V4.60634C155.597 40.6985 156.955 104.098 158.613 181.363V181.501H158.476L60.3611 191.456L32.0155 194.334H31.8528V194.178C24.7194 126.655 18.2494 65.4588 13.2686 18.3474V18.2223H13.3874L90.4713 9.83746L111.483 7.56605L116.952 6.98412C118.185 6.8402 118.848 6.78388 118.848 6.78388Z" fill="#263238"/>
<path d="M7.08496 12.4761L24.205 190.359L156.654 177.882L137.55 0.130371L7.08496 12.4761Z" fill="white"/>
<path d="M7.08496 12.4708L137.538 0H137.669V0.131405C143.044 50.0273 149.658 111.512 156.804 177.883V178.046H156.641L155.702 178.133L24.2175 190.51H24.0736V190.36C14.0118 85.0495 7.21011 13.7724 7.08496 12.4708C7.21011 13.7724 14.1307 85.0557 24.3552 190.348L24.1925 190.216L155.696 177.814L156.635 177.72L156.491 177.902C149.364 111.512 142.775 50.046 137.419 0.143918L137.563 0.262809L7.08496 12.4708Z" fill="#263238"/>
<path d="M108.659 147.385C108.669 143.524 109.824 139.753 111.977 136.548C114.13 133.343 117.185 130.849 120.756 129.38C124.326 127.912 128.253 127.535 132.037 128.297C135.822 129.06 139.296 130.927 142.02 133.664C144.743 136.401 146.594 139.883 147.339 143.672C148.083 147.461 147.687 151.385 146.201 154.948C144.715 158.512 142.206 161.555 138.991 163.693C135.776 165.83 131.999 166.967 128.138 166.958C122.961 166.942 118.002 164.871 114.35 161.201C110.697 157.532 108.651 152.563 108.659 147.385ZM147.342 147.479C147.352 143.688 146.237 139.979 144.139 136.821C142.04 133.664 139.053 131.199 135.554 129.74C132.055 128.281 128.201 127.892 124.481 128.622C120.761 129.353 117.341 131.171 114.654 133.846C111.967 136.52 110.134 139.932 109.386 143.649C108.638 147.365 109.01 151.22 110.453 154.726C111.896 158.232 114.347 161.231 117.495 163.343C120.643 165.456 124.347 166.588 128.138 166.595C133.215 166.6 138.086 164.593 141.685 161.014C145.285 157.434 147.319 152.574 147.342 147.498V147.479Z" fill="#E0E0E0"/>
<path d="M110.886 147.392C110.894 144.025 111.901 140.736 113.78 137.941C115.658 135.146 118.322 132.97 121.437 131.689C124.551 130.409 127.975 130.08 131.276 130.746C134.578 131.411 137.607 133.041 139.982 135.428C142.357 137.815 143.971 140.853 144.619 144.158C145.268 147.462 144.922 150.885 143.625 153.992C142.329 157.1 140.139 159.754 137.335 161.617C134.53 163.481 131.236 164.471 127.868 164.462C123.354 164.447 119.029 162.641 115.845 159.441C112.661 156.24 110.877 151.907 110.886 147.392ZM142.423 147.468C142.43 144.596 141.586 141.787 139.997 139.395C138.407 137.004 136.144 135.137 133.494 134.032C130.844 132.926 127.926 132.632 125.108 133.185C122.29 133.739 119.7 135.115 117.665 137.141C115.63 139.166 114.241 141.75 113.674 144.565C113.108 147.38 113.388 150.3 114.481 152.955C115.574 155.61 117.43 157.882 119.814 159.483C122.198 161.083 125.003 161.941 127.874 161.947C131.717 161.952 135.405 160.435 138.132 157.727C140.858 155.019 142.401 151.341 142.423 147.499V147.468Z" fill="#E0E0E0"/>
<path d="M115.104 147.639C115.108 145.682 115.571 143.754 116.456 142.008L118.696 143.14C117.984 144.54 117.616 146.088 117.62 147.658C117.627 149.444 118.107 151.197 119.012 152.736C119.918 154.276 121.215 155.548 122.773 156.422C124.33 157.296 126.092 157.741 127.878 157.712C129.664 157.683 131.41 157.18 132.938 156.256L134.252 158.396C132.342 159.557 130.157 160.189 127.923 160.227C125.688 160.265 123.483 159.708 121.534 158.614C119.586 157.519 117.963 155.926 116.833 153.997C115.703 152.069 115.107 149.875 115.104 147.639Z" fill="#E0E0E0"/>
<path d="M121.862 136.497C124.317 135.22 127.123 134.786 129.849 135.263C132.575 135.74 135.067 137.101 136.942 139.136C138.817 141.171 139.969 143.766 140.222 146.522C140.474 149.277 139.812 152.039 138.338 154.381L136.217 153.042C137.389 151.167 137.912 148.959 137.706 146.757C137.501 144.556 136.578 142.483 135.079 140.857C133.58 139.232 131.588 138.144 129.411 137.761C127.233 137.378 124.99 137.721 123.026 138.737L121.862 136.497Z" fill="#E0E0E0"/>
<path d="M134.417 45.8911C134.417 45.985 109.432 48.394 78.6018 51.3287C47.772 54.2634 22.7553 56.5286 22.749 56.4347C22.7428 56.3408 47.7282 53.9318 78.5706 51.0033C109.413 48.0749 134.411 45.8035 134.417 45.8911Z" fill="#263238"/>
<path d="M73.8007 44.494C73.8007 44.5816 62.2747 45.7455 48.0393 47.0908C33.8039 48.4362 22.2592 49.4498 22.2529 49.3622C22.2467 49.2746 33.7727 48.1108 48.0143 46.7654C62.256 45.4201 73.8007 44.4064 73.8007 44.494Z" fill="#263238"/>
<path d="M134.904 53.1439C134.904 53.2315 109.918 55.6468 79.0823 58.5753C48.2462 61.5037 23.242 63.7751 23.2295 63.6875C23.217 63.5999 48.2087 61.1846 79.0573 58.2499C109.906 55.3152 134.891 53.0501 134.904 53.1439Z" fill="#263238"/>
<path d="M135.393 60.3897C135.393 60.4773 110.407 62.8926 79.5713 65.821C48.7353 68.7494 23.7373 71.0208 23.7373 70.9332C23.7373 70.8456 48.7165 68.4303 79.5588 65.5019C110.401 62.5735 135.38 60.3021 135.393 60.3897Z" fill="#263238"/>
<path d="M135.874 67.6358C135.874 67.7296 110.889 70.1387 80.0589 73.0734C49.2291 76.008 24.2123 78.2732 24.2061 78.1793C24.1998 78.0855 49.1853 75.6764 80.0276 72.748C110.87 69.8196 135.868 67.5481 135.874 67.6358Z" fill="#263238"/>
<path d="M136.376 74.9132C136.376 75.0008 111.391 77.4161 80.5612 80.3445C49.7314 83.2729 24.7084 85.5506 24.7021 85.4317C24.6959 85.3128 49.6814 82.9288 80.5237 79.9941C111.366 77.0594 136.376 74.7943 136.376 74.9132Z" fill="#263238"/>
<path d="M136.851 82.1348C136.851 82.2224 111.865 84.6377 81.0354 87.5661C50.2056 90.4946 25.1889 92.766 25.1826 92.6784C25.1764 92.5908 50.1618 90.1754 81.0041 87.247C111.846 84.3186 136.844 82.0472 136.851 82.1348Z" fill="#263238"/>
<path d="M137.341 89.3802C137.341 89.4741 112.681 91.8832 82.2764 94.749C51.8721 97.6149 27.1619 99.88 27.1494 99.7862C27.1369 99.6923 51.8032 97.2832 82.2451 94.4236C112.687 91.564 137.328 89.3051 137.341 89.3802Z" fill="#263238"/>
<path d="M94.3147 103.321C94.3147 103.415 79.4348 104.829 61.0571 106.45C42.6793 108.07 27.7807 109.403 27.7744 109.328C27.7682 109.253 42.6543 107.826 61.0321 106.199C79.4098 104.572 94.3085 103.233 94.3147 103.321Z" fill="#263238"/>
<path d="M76.2331 163.226C76.2331 163.32 67.1788 164.158 55.9969 165.103C44.8151 166.048 35.7358 166.749 35.7295 166.661C35.7232 166.574 44.7838 165.729 55.9719 164.784C67.16 163.839 76.2269 163.139 76.2331 163.226Z" fill="black"/>
<path d="M58.8202 170.149C58.8202 170.243 53.7392 170.743 47.4631 171.275C41.187 171.807 36.0873 172.17 36.0811 172.082C36.0748 171.995 41.1557 171.457 47.4381 170.956C53.7204 170.456 58.8076 170.061 58.8202 170.149Z" fill="black"/>
<path d="M57.435 119.14C57.435 119.228 51.4593 119.891 44.0756 120.623C36.692 121.355 30.6912 121.874 30.6787 121.774C30.6662 121.674 36.6545 121.023 44.0444 120.298C51.4343 119.572 57.4225 119.052 57.435 119.14Z" fill="#1D71B8"/>
<g opacity="0.3">
<path opacity="0.3" d="M21.4866 160.261L33.6446 157.909L40.4463 147.659L21.0674 154.023L21.4866 160.261Z" fill="black"/>
</g>
<path d="M0.157227 147.167L32.6202 144.088L40.4418 147.661L34.2033 154.682L1.22723 158.236L0.157227 147.167Z" fill="#1D71B8"/>
<path d="M14.7355 149.206L15.1485 153.367L14.1849 153.467L14.0159 151.759L12.1387 151.946L12.3077 153.655L11.344 153.748L10.9248 149.587L11.8884 149.493L12.0574 151.133L13.9346 150.945L13.7719 149.299L14.7355 149.206Z" fill="white"/>
<path d="M19.05 151.627L16.6284 151.865C16.698 152.06 16.8359 152.223 17.0165 152.324C17.197 152.426 17.4081 152.458 17.6108 152.416C17.759 152.408 17.9041 152.37 18.0367 152.303C18.1692 152.236 18.2863 152.143 18.3804 152.028L18.9311 152.516C18.7787 152.703 18.5884 152.855 18.3726 152.963C18.1569 153.071 17.9206 153.132 17.6796 153.142C17.4516 153.187 17.2166 153.185 16.9895 153.135C16.7625 153.084 16.5485 152.987 16.3612 152.849C16.1739 152.711 16.0175 152.536 15.9018 152.334C15.7862 152.132 15.714 151.909 15.6898 151.677C15.6638 151.455 15.6837 151.23 15.7482 151.016C15.8126 150.802 15.9204 150.604 16.0646 150.433C16.2089 150.263 16.3867 150.123 16.587 150.024C16.7873 149.925 17.0059 149.868 17.2291 149.857C17.4491 149.822 17.6739 149.834 17.8889 149.892C18.104 149.95 18.3044 150.053 18.4773 150.193C18.6501 150.334 18.7915 150.509 18.8924 150.707C18.9932 150.906 19.0511 151.123 19.0625 151.346C19.05 151.446 19.05 151.546 19.05 151.627ZM16.547 151.327L18.1239 151.171C18.0771 150.984 17.9649 150.821 17.8078 150.71C17.6507 150.6 17.4591 150.55 17.268 150.569C17.0768 150.588 16.8989 150.675 16.7665 150.814C16.6342 150.953 16.5563 151.135 16.547 151.327Z" fill="white"/>
<path d="M21.4842 149.449L21.5718 150.306H21.359C21.239 150.307 21.1207 150.335 21.0133 150.389C20.9059 150.442 20.8123 150.52 20.7397 150.616C20.6671 150.711 20.6174 150.822 20.5946 150.94C20.5718 151.058 20.5764 151.179 20.6081 151.295L20.7583 152.803L19.8322 152.897L19.5068 149.7L20.3954 149.612L20.4392 150.031C20.5538 149.857 20.7086 149.714 20.8905 149.612C21.0724 149.511 21.276 149.455 21.4842 149.449Z" fill="white"/>
<path d="M25.311 150.995L22.8894 151.239C22.9601 151.433 23.0982 151.595 23.2785 151.696C23.4587 151.797 23.6692 151.83 23.8718 151.789C24.0198 151.781 24.1645 151.742 24.2969 151.675C24.4293 151.608 24.5465 151.515 24.6414 151.401L25.1921 151.883C25.0405 152.071 24.8504 152.224 24.6344 152.332C24.4185 152.44 24.1819 152.5 23.9406 152.509C23.7125 152.555 23.4771 152.554 23.2497 152.504C23.0223 152.454 22.8079 152.357 22.6204 152.219C22.4329 152.081 22.2764 151.905 22.161 151.703C22.0457 151.5 21.9741 151.276 21.9508 151.045C21.9257 150.823 21.9463 150.598 22.0111 150.385C22.0759 150.171 22.1837 149.973 22.3279 149.802C22.472 149.632 22.6494 149.493 22.8493 149.393C23.0491 149.294 23.2672 149.236 23.4901 149.224C23.7105 149.19 23.9354 149.203 24.1504 149.262C24.3655 149.321 24.5658 149.424 24.7385 149.565C24.9113 149.706 25.0526 149.881 25.1533 150.08C25.254 150.279 25.312 150.497 25.3235 150.719C25.311 150.813 25.311 150.919 25.311 150.995ZM22.808 150.7L24.3849 150.538C24.3414 150.352 24.23 150.189 24.0724 150.081C23.9149 149.974 23.7228 149.929 23.5339 149.956C23.344 149.968 23.1658 150.052 23.0348 150.19C22.9038 150.328 22.8295 150.51 22.8268 150.7H22.808Z" fill="white"/>
<path d="M98.5963 118.34C98.635 118.349 98.6727 118.361 98.7089 118.377C98.8203 118.416 98.9273 118.466 99.028 118.528C99.4208 118.765 99.7735 119.062 100.073 119.41C101.209 120.755 102.099 122.291 102.701 123.946C103.75 126.535 104.216 129.323 104.065 132.112C104.004 132.96 103.855 133.798 103.621 134.615C103.359 135.475 103.026 136.313 102.626 137.118C101.752 138.868 100.579 140.452 99.1594 141.799C97.6063 143.293 95.7876 144.483 93.7969 145.309C91.6305 146.204 89.2808 146.567 86.9452 146.366C84.3705 146.093 81.9102 145.16 79.803 143.655C77.6957 142.151 76.0132 140.128 74.9186 137.781C74.3317 136.526 73.9635 135.181 73.8298 133.802C73.65 132.389 73.8 130.954 74.2678 129.609C74.6965 128.199 75.5757 126.968 76.7708 126.105C77.3949 125.687 78.1087 125.421 78.8545 125.329C79.6068 125.245 80.3685 125.333 81.0821 125.586C82.5216 126.107 83.7343 127.114 84.5111 128.433C85.2756 129.764 85.7411 131.246 85.8752 132.775C86.1794 135.871 85.7174 138.993 84.5298 141.867C83.3701 144.762 81.4741 147.303 79.0297 149.238C76.6262 151.088 73.7598 152.24 70.745 152.567C67.8388 152.917 64.893 152.437 62.2475 151.185C59.7275 149.933 57.6253 147.977 56.1967 145.553C54.8105 143.27 54.103 140.639 54.1568 137.969C54.1595 136.683 54.4058 135.409 54.8827 134.215C55.3333 133.05 56.0692 132.017 57.0227 131.211C57.4883 130.819 58.03 130.528 58.6137 130.356C59.1974 130.184 59.8104 130.134 60.4141 130.21C61.5747 130.399 62.6327 130.988 63.4051 131.874C64.157 132.702 64.6753 133.715 64.9069 134.809C65.1062 135.842 65.1062 136.904 64.9069 137.938C64.4901 139.85 63.7357 141.672 62.6793 143.319C61.7798 144.806 60.7316 146.199 59.5506 147.474C57.6699 149.528 55.4782 151.275 53.0555 152.649C51.5352 153.528 49.9238 154.239 48.2499 154.77C47.1048 155.133 46.4854 155.258 46.4854 155.258L46.9296 155.12C47.2237 155.02 47.668 154.92 48.2311 154.707C49.8895 154.151 51.4854 153.423 52.993 152.536C55.3851 151.178 57.5511 149.455 59.413 147.43C60.573 146.154 61.6042 144.767 62.4916 143.288C63.5327 141.661 64.2705 139.859 64.6691 137.969C64.8662 136.957 64.8662 135.915 64.6691 134.903C64.4396 133.854 63.9391 132.883 63.2174 132.087C62.4796 131.251 61.4765 130.694 60.3766 130.51C59.8074 130.442 59.2302 130.491 58.6811 130.656C58.132 130.821 57.6228 131.097 57.1854 131.468C56.2672 132.244 55.561 133.241 55.133 134.365C54.678 135.523 54.4404 136.756 54.4321 138C54.389 140.618 55.0899 143.193 56.4533 145.428C57.8542 147.793 59.9131 149.7 62.3789 150.915C64.972 152.143 67.8594 152.611 70.7074 152.267C73.6681 151.944 76.4826 150.812 78.8419 148.994C81.2408 147.092 83.102 144.596 84.242 141.755C85.4117 138.926 85.8631 135.852 85.556 132.807C85.4298 131.326 84.9813 129.891 84.242 128.602C83.5069 127.344 82.3529 126.385 80.9819 125.892C80.3155 125.651 79.6028 125.566 78.8983 125.642C78.2027 125.732 77.537 125.981 76.9522 126.368C75.816 127.192 74.9808 128.366 74.5744 129.709C74.1242 131.013 73.9766 132.401 74.1427 133.77C74.2764 135.115 74.6338 136.429 75.2002 137.656C76.2691 139.953 77.911 141.936 79.968 143.414C82.0249 144.892 84.4277 145.816 86.9452 146.097C89.2382 146.294 91.5449 145.938 93.6718 145.059C95.6367 144.25 97.4339 143.083 98.9717 141.617C100.38 140.293 101.545 138.732 102.413 137.005C102.813 136.215 103.145 135.392 103.408 134.546C103.641 133.748 103.792 132.928 103.859 132.1C104.025 129.326 103.581 126.549 102.557 123.965C101.971 122.317 101.105 120.783 99.9979 119.429C99.7039 119.082 99.3627 118.779 98.9842 118.528C98.8582 118.458 98.7287 118.396 98.5963 118.34Z" fill="black"/>
<path d="M108.588 30.8056C108.588 30.8056 108.588 30.6992 108.544 30.499C108.501 30.2988 108.488 29.9922 108.444 29.6105C108.357 28.8158 108.225 27.6645 108.056 26.169C107.731 23.1654 107.255 18.7916 106.655 13.2601L106.767 13.3477L39.1945 20.4748L39.3384 20.2933C39.9642 26.3191 40.5899 32.1822 41.1718 37.8514L40.9966 37.7074L89.2155 32.7454L103.42 31.3062L107.249 30.9245L108.25 30.8307H108.594L108.269 30.8745L107.293 30.9871L103.507 31.4063L89.3469 32.9269L41.0279 38.0516H40.8715V37.8952C40.2833 32.2636 39.6638 26.3629 39.0381 20.3747V20.212H39.2008L106.78 13.2163H106.88V13.3102C107.437 18.8729 107.875 23.2718 108.175 26.2878C108.325 27.7771 108.432 28.9222 108.513 29.7106C108.544 30.086 108.576 30.3801 108.594 30.5866L108.588 30.8056Z" fill="#455A64"/>
<path d="M59.2673 28.2249L57.6226 28.3929L57.4969 27.1616L59.1416 26.9937C59.3657 26.9708 59.5436 26.9144 59.6752 26.8244C59.8068 26.7345 59.8975 26.6196 59.9475 26.4798C60.0003 26.3367 60.018 26.1804 60.0006 26.0107C59.9821 25.829 59.9316 25.6643 59.8492 25.5166C59.7698 25.3687 59.6557 25.2548 59.5067 25.1752C59.3575 25.0925 59.1708 25.0626 58.9467 25.0855L57.9017 25.1922L58.4515 30.576L56.8568 30.7389L56.1813 24.1238L58.821 23.8542C59.351 23.8001 59.8168 23.8505 60.2182 24.0053C60.6227 24.1599 60.9452 24.3963 61.1858 24.7145C61.4261 25.0297 61.5684 25.4038 61.6126 25.837C61.6562 26.264 61.5913 26.6471 61.4178 26.9862C61.2443 27.3252 60.9743 27.6038 60.6079 27.8217C60.2442 28.0364 59.7973 28.1708 59.2673 28.2249ZM67.0607 28.4574L67.1859 29.6841L63.8421 30.0255L63.7168 28.7988L67.0607 28.4574ZM63.7344 23.3525L64.41 29.9675L62.8153 30.1304L62.1397 23.5153L63.7344 23.3525ZM70.1165 24.1055L69.0372 29.495L67.3244 29.6699L69.0795 22.8066L70.1654 22.6957L70.1165 24.1055ZM71.9858 29.1939L69.8349 24.1342L69.4839 22.7653L70.5834 22.653L73.7032 29.0185L71.9858 29.1939ZM71.6703 26.7334L71.796 27.9646L68.4022 28.3112L68.2764 27.0799L71.6703 26.7334ZM78.9362 21.8001L79.6117 28.4151L78.0215 28.5775L75.2614 24.7002L75.6817 28.8165L74.087 28.9793L73.4115 22.3642L75.0062 22.2014L77.7663 26.0787L77.346 21.9624L78.9362 21.8001ZM85.7641 24.3117L85.7915 24.5797C85.8431 25.0856 85.8184 25.5472 85.7171 25.9645C85.6186 26.3786 85.4552 26.7411 85.2268 27.0521C84.9981 27.3601 84.7158 27.6077 84.38 27.7951C84.0438 27.9794 83.6636 28.0932 83.2396 28.1365C82.8125 28.1801 82.4142 28.1458 82.0447 28.0336C81.6779 27.918 81.3498 27.7327 81.0606 27.4776C80.7741 27.2192 80.5392 26.8973 80.356 26.512C80.1755 26.1234 80.0595 25.6762 80.0078 25.1704L79.9805 24.9023C79.9288 24.3965 79.9521 23.935 80.0503 23.518C80.1515 23.1006 80.3149 22.7381 80.5406 22.4304C80.769 22.1194 81.0512 21.8717 81.3874 21.6875C81.7263 21.4998 82.1093 21.3842 82.5364 21.3406C82.9605 21.2973 83.3559 21.3334 83.7227 21.449C84.0922 21.5612 84.4203 21.7465 84.7068 22.0049C84.993 22.2603 85.2279 22.5822 85.4114 22.9705C85.5949 23.3588 85.7125 23.8059 85.7641 24.3117ZM84.1741 24.7449L84.1458 24.4678C84.1123 24.1407 84.0542 23.8558 83.9713 23.6134C83.8911 23.3675 83.7878 23.1654 83.6614 23.0069C83.5351 22.8484 83.3873 22.735 83.2181 22.6665C83.0516 22.5948 82.8669 22.5693 82.664 22.59C82.452 22.6116 82.2717 22.6744 82.1232 22.7784C81.9743 22.8793 81.8556 23.0199 81.7669 23.2004C81.6782 23.3808 81.6194 23.5995 81.5906 23.8565C81.5644 24.1101 81.5681 24.4005 81.6015 24.7276L81.6298 25.0047C81.6629 25.3288 81.718 25.6139 81.7952 25.8601C81.8751 26.1029 81.9768 26.3052 82.1005 26.467C82.2271 26.6285 82.3737 26.7452 82.5402 26.8169C82.7097 26.8884 82.9004 26.9133 83.1125 26.8916C83.3154 26.8709 83.4911 26.8086 83.6397 26.7046C83.7882 26.6007 83.9067 26.457 83.995 26.2735C84.0864 26.0898 84.1467 25.8709 84.1759 25.617C84.2078 25.3597 84.2072 25.069 84.1741 24.7449ZM90.0678 25.5708C90.0573 25.4678 90.0327 25.3769 89.9941 25.2983C89.9551 25.2165 89.891 25.1435 89.8018 25.0792C89.7126 25.0148 89.5871 24.9542 89.4252 24.8973C89.266 24.837 89.0581 24.7787 88.8013 24.7223C88.5007 24.655 88.2094 24.5746 87.9274 24.481C87.6452 24.3843 87.3897 24.265 87.161 24.1231C86.9319 23.9782 86.744 23.8015 86.5973 23.5931C86.4502 23.3816 86.3615 23.1275 86.3312 22.8307C86.3021 22.5459 86.3396 22.2835 86.4436 22.0434C86.5473 21.8002 86.7045 21.5867 86.9153 21.403C87.1288 21.2159 87.3857 21.0642 87.686 20.9478C87.9859 20.8285 88.3192 20.75 88.6857 20.7126C89.1703 20.6631 89.606 20.7043 89.9929 20.8362C90.3824 20.9648 90.6975 21.1728 90.938 21.4604C91.1813 21.7447 91.3243 22.0958 91.367 22.5138L89.7813 22.6757C89.7643 22.5091 89.7145 22.3658 89.6318 22.2457C89.5522 22.1253 89.4405 22.0357 89.2968 21.9769C89.1531 21.9181 88.9782 21.8993 88.7723 21.9203C88.5724 21.9407 88.4074 21.9882 88.2773 22.0627C88.1471 22.1372 88.0525 22.2295 87.9934 22.3396C87.9339 22.4466 87.9104 22.5607 87.9227 22.6819C87.9329 22.7819 87.9695 22.8699 88.0324 22.9462C88.0979 23.019 88.1858 23.085 88.2959 23.1442C88.409 23.203 88.543 23.2567 88.6979 23.3051C88.8559 23.3533 89.0318 23.398 89.2258 23.4394C89.5886 23.5156 89.9134 23.6095 90.2002 23.7209C90.4898 23.8291 90.7374 23.9614 90.9432 24.1179C91.1516 24.2711 91.3156 24.4533 91.4351 24.6645C91.5576 24.8754 91.6331 25.1202 91.6616 25.3988C91.6919 25.6956 91.6613 25.965 91.5697 26.207C91.4781 26.4489 91.333 26.6612 91.1343 26.8436C90.9353 27.0231 90.6901 27.169 90.3986 27.2814C90.1071 27.3938 89.7766 27.4689 89.407 27.5067C89.0678 27.5413 88.7288 27.5331 88.39 27.482C88.0539 27.4275 87.7434 27.3246 87.4586 27.1731C87.1735 27.0186 86.9363 26.8087 86.7471 26.5434C86.5605 26.2748 86.4472 25.9451 86.4073 25.5544L88.0066 25.391C88.0264 25.5849 88.0688 25.7458 88.1339 25.8738C88.199 26.0018 88.2857 26.1016 88.394 26.1732C88.502 26.2418 88.6306 26.2868 88.7797 26.3083C88.9285 26.3267 89.0968 26.3264 89.2845 26.3072C89.4875 26.2865 89.6481 26.241 89.7664 26.1708C89.8844 26.0975 89.9672 26.0095 90.0149 25.9067C90.0622 25.8009 90.0799 25.6889 90.0678 25.5708Z" fill="black"/>
</svg>
