<svg width="24" height="26" viewBox="0 0 24 26" fill="none" xmlns="http://www.w3.org/2000/svg">
<path d="M12 6.50013C15.79 6.50013 19.17 8.80763 20.82 12.4585C20.23 13.7801 19.4 14.9176 18.41 15.8385L19.82 17.366C21.21 16.0335 22.31 14.3651 23 12.4585C21.27 7.70263 17 4.33346 12 4.33346C10.73 4.33346 9.51 4.55013 8.36 4.95096L10.01 6.73846C10.66 6.59763 11.32 6.50013 12 6.50013ZM14.28 11.3643L16.35 13.6068C16.43 13.2385 16.49 12.8485 16.49 12.4476C16.5 9.76096 14.48 7.58346 12 7.58346C11.63 7.58346 11.28 7.64846 10.93 7.73513L13 9.97763C13.58 10.2485 14.03 10.7468 14.28 11.3643ZM2.01 4.19263L4.69 7.09596C3.06 8.48263 1.77 10.3243 1 12.4585C2.73 17.2143 7 20.5835 12 20.5835C13.52 20.5835 14.98 20.2693 16.32 19.6951L19.74 23.4001L21.15 21.8726L3.42 2.6543L2.01 4.19263ZM9.51 12.3176L12.12 15.1451C12.08 15.156 12.04 15.1668 12 15.1668C10.62 15.1668 9.5 13.9535 9.5 12.4585C9.5 12.4043 9.51 12.3718 9.51 12.3176ZM6.11 8.6343L7.86 10.5301C7.63 11.126 7.5 11.776 7.5 12.4585C7.5 15.1451 9.52 17.3335 12 17.3335C12.63 17.3335 13.23 17.1926 13.77 16.9435L14.75 18.0051C13.87 18.2651 12.95 18.4168 12 18.4168C8.21 18.4168 4.83 16.1093 3.18 12.4585C3.88 10.9093 4.9 9.63096 6.11 8.6343Z" fill="#959595"/>
</svg>
