<svg width="24" height="24" viewBox="0 0 24 24" fill="none" xmlns="http://www.w3.org/2000/svg">
<path d="M3.74088 9.43339C4.0111 9.34332 4.29933 9.29528 4.59837 9.29528C5.90741 9.29528 7.00029 10.2248 7.25009 11.4606L9.10557 11.0823C8.68043 8.98183 6.82495 7.40137 4.59957 7.40137C4.08916 7.40137 3.60037 7.48423 3.1416 7.63796L3.74088 9.43339Z" fill="#FFCB05"/>
<path d="M1.55164 15.4453L2.80665 14.027C2.247 13.531 1.89392 12.8068 1.89392 11.9998C1.89392 11.1939 2.247 10.4698 2.80665 9.97497L1.55164 8.55664C0.60048 9.39851 0 10.6295 0 11.9998C0 13.3713 0.60048 14.6023 1.55164 15.4453Z" fill="#00A4E0"/>
<path d="M7.25031 12.543C6.99931 13.7788 5.90764 14.7059 4.59979 14.7059C4.29955 14.7059 4.01012 14.6579 3.74111 14.5666L3.14062 16.3632C3.59939 16.5157 4.08938 16.5986 4.59979 16.5986C6.82277 16.5986 8.67825 15.0206 9.1058 12.9237L7.25031 12.543Z" fill="#EF4123"/>
<path d="M10.7282 14.0872C10.667 13.9887 10.5853 13.8314 10.5348 13.7149C10.2406 13.0327 10.2274 12.3266 10.4748 11.6492C10.7474 10.9058 11.2686 10.3378 11.9424 10.0471C12.7891 9.68323 13.7246 9.75409 14.5364 10.2357C15.0517 10.5311 15.4168 10.9875 15.6942 11.6336C15.729 11.7165 15.7602 11.8041 15.7915 11.8798L10.7282 14.0872ZM12.4192 11.1424C11.8175 11.4006 11.5076 11.9651 11.5713 12.6256L14.1173 11.5291C13.6802 11.0163 13.1109 10.8458 12.4192 11.1424ZM14.4356 13.5275C14.4344 13.5275 14.4344 13.5287 14.4344 13.5287L14.3815 13.4927C14.229 13.7389 13.9924 13.9394 13.6934 14.0692C13.1241 14.3166 12.5969 14.2529 12.2174 13.9202L12.1826 13.9731C12.1826 13.9731 12.1826 13.9719 12.1814 13.9719L11.5352 14.9387C11.6962 15.0503 11.8679 15.144 12.0481 15.2197C12.7614 15.5163 13.4916 15.5019 14.211 15.1897C14.731 14.9639 15.1393 14.6204 15.418 14.1844L14.4356 13.5275Z" fill="#FFFFFF"/>
<path d="M17.5597 8.625V13.9981L18.3956 14.3368L17.9212 15.4441L16.9989 15.0598C16.7923 14.9697 16.6506 14.8328 16.5449 14.6779C16.4428 14.5205 16.3672 14.3032 16.3672 14.0125V8.625H17.5597Z" fill="#FFFFFF"/>
<path d="M19.724 12.6288C19.724 12.1712 19.927 11.7605 20.2465 11.4818L19.389 10.5259C18.8077 11.0399 18.4414 11.7905 18.4414 12.6264C18.4402 13.4634 18.8065 14.2152 19.3866 14.7292L20.2428 13.7733C19.9246 13.4935 19.724 13.0851 19.724 12.6288Z" fill="#FFFFFF"/>
<path d="M21.2468 14.1532C21.0787 14.1532 20.9153 14.1243 20.764 14.0739L20.3545 15.2917C20.6343 15.3854 20.9334 15.437 21.2456 15.437C22.6027 15.4382 23.7352 14.475 23.9982 13.196L22.7396 12.939C22.5967 13.6331 21.983 14.1544 21.2468 14.1532Z" fill="#FFFFFF"/>
<path d="M21.2503 9.82227C20.9392 9.82227 20.6402 9.87271 20.3604 9.96518L20.7663 11.183C20.9188 11.1325 21.0809 11.1049 21.2491 11.1049C21.9865 11.1061 22.6013 11.6297 22.7407 12.3263L23.9993 12.0717C23.7411 10.7903 22.6085 9.82347 21.2503 9.82227Z" fill="#FFFFFF"/>
</svg>
