<svg width="16" height="22" viewBox="0 0 16 22" fill="none" xmlns="http://www.w3.org/2000/svg">
<path d="M15.48 11.8499C13.91 7.7699 8.32 7.5499 9.67 1.6199C9.77 1.1799 9.3 0.839896 8.92 1.0699C5.29 3.2099 2.68 7.4999 4.87 13.1199C5.05 13.5799 4.51 14.0099 4.12 13.7099C2.31 12.3399 2.12 10.3699 2.28 8.9599C2.34 8.4399 1.66 8.1899 1.37 8.6199C0.69 9.6599 0 11.3399 0 13.8699C0.38 19.4699 5.11 21.1899 6.81 21.4099C9.24 21.7199 11.87 21.2699 13.76 19.5399C15.84 17.6099 16.6 14.5299 15.48 11.8499ZM6.2 16.8799C7.64 16.5299 8.38 15.4899 8.58 14.5699C8.91 13.1399 7.62 11.7399 8.49 9.4799C8.82 11.3499 11.76 12.5199 11.76 14.5599C11.84 17.0899 9.1 19.2599 6.2 16.8799Z" fill="#26A69A"/>
</svg>
