<svg width="206" height="200" viewBox="0 0 206 200" fill="none" xmlns="http://www.w3.org/2000/svg">
<defs>
<linearGradient id="paint0_linear_1605_114758" x1="0.631295" y1="133.346" x2="7.16916" y2="133.346" gradientUnits="userSpaceOnUse">
<stop stop-color="#2DB5E9"/>
<stop offset="1" stop-color="#365EA9"/>
</linearGradient>
<linearGradient id="paint1_linear_1605_114758" x1="251.054" y1="1270.53" x2="381.774" y2="1270.53" gradientUnits="userSpaceOnUse">
<stop stop-color="#2DB5E9"/>
<stop offset="1" stop-color="#365EA9"/>
</linearGradient>
<linearGradient id="paint2_linear_1605_114758" x1="78.03" y1="2582.84" x2="105.014" y2="2582.84" gradientUnits="userSpaceOnUse">
<stop stop-color="#2DB5E9"/>
<stop offset="1" stop-color="#365EA9"/>
</linearGradient>
<linearGradient id="paint3_linear_1605_114758" x1="78.1062" y1="2535.92" x2="105.12" y2="2535.92" gradientUnits="userSpaceOnUse">
<stop stop-color="#2DB5E9"/>
<stop offset="1" stop-color="#365EA9"/>
</linearGradient>
<linearGradient id="paint4_linear_1605_114758" x1="2760.68" y1="1518" x2="2876.01" y2="1518" gradientUnits="userSpaceOnUse">
<stop stop-color="#2DB5E9"/>
<stop offset="1" stop-color="#365EA9"/>
</linearGradient>
<linearGradient id="paint5_linear_1605_114758" x1="3179.61" y1="1518" x2="3310.33" y2="1518" gradientUnits="userSpaceOnUse">
<stop stop-color="#2DB5E9"/>
<stop offset="1" stop-color="#365EA9"/>
</linearGradient>
<linearGradient id="paint6_linear_1605_114758" x1="1490.63" y1="3089.68" x2="1517.68" y2="3089.68" gradientUnits="userSpaceOnUse">
<stop stop-color="#2DB5E9"/>
<stop offset="1" stop-color="#365EA9"/>
</linearGradient>
<linearGradient id="paint7_linear_1605_114758" x1="1490.63" y1="3022.66" x2="1517.68" y2="3022.66" gradientUnits="userSpaceOnUse">
<stop stop-color="#2DB5E9"/>
<stop offset="1" stop-color="#365EA9"/>
</linearGradient>
<linearGradient id="paint8_linear_1605_114758" x1="3484.75" y1="252.342" x2="3602.85" y2="252.342" gradientUnits="userSpaceOnUse">
<stop stop-color="#2DB5E9"/>
<stop offset="1" stop-color="#365EA9"/>
</linearGradient>
<linearGradient id="paint9_linear_1605_114758" x1="3946.84" y1="252.342" x2="4080.36" y2="252.342" gradientUnits="userSpaceOnUse">
<stop stop-color="#2DB5E9"/>
<stop offset="1" stop-color="#365EA9"/>
</linearGradient>
<linearGradient id="paint10_linear_1605_114758" x1="1820.76" y1="609.975" x2="1847.74" y2="609.975" gradientUnits="userSpaceOnUse">
<stop stop-color="#2DB5E9"/>
<stop offset="1" stop-color="#365EA9"/>
</linearGradient>
<linearGradient id="paint11_linear_1605_114758" x1="1820.76" y1="395.612" x2="1847.74" y2="395.612" gradientUnits="userSpaceOnUse">
<stop stop-color="#2DB5E9"/>
<stop offset="1" stop-color="#365EA9"/>
</linearGradient>
<linearGradient id="paint12_linear_1605_114758" x1="667.019" y1="4760.67" x2="950.738" y2="4760.67" gradientUnits="userSpaceOnUse">
<stop stop-color="#2DB5E9"/>
<stop offset="1" stop-color="#365EA9"/>
</linearGradient>
<linearGradient id="paint13_linear_1605_114758" x1="5502.74" y1="1917.3" x2="5786.36" y2="1917.3" gradientUnits="userSpaceOnUse">
<stop stop-color="#2DB5E9"/>
<stop offset="1" stop-color="#365EA9"/>
</linearGradient>
<linearGradient id="paint14_linear_1605_114758" x1="5353.68" y1="447.877" x2="5793.61" y2="447.877" gradientUnits="userSpaceOnUse">
<stop stop-color="#2DB5E9"/>
<stop offset="1" stop-color="#365EA9"/>
</linearGradient>
<linearGradient id="paint15_linear_1605_114758" x1="11129.1" y1="77.6178" x2="19436.2" y2="77.6178" gradientUnits="userSpaceOnUse">
<stop stop-color="#2DB5E9"/>
<stop offset="1" stop-color="#365EA9"/>
</linearGradient>
<linearGradient id="paint16_linear_1605_114758" x1="798.466" y1="546.992" x2="968.441" y2="546.992" gradientUnits="userSpaceOnUse">
<stop stop-color="#2DB5E9"/>
<stop offset="1" stop-color="#365EA9"/>
</linearGradient>
<linearGradient id="paint17_linear_1605_114758" x1="207.477" y1="14201.5" x2="886.052" y2="14201.5" gradientUnits="userSpaceOnUse">
<stop stop-color="#2DB5E9"/>
<stop offset="1" stop-color="#365EA9"/>
</linearGradient>
<linearGradient id="paint18_linear_1605_114758" x1="1686.16" y1="5327.77" x2="2222.21" y2="5327.77" gradientUnits="userSpaceOnUse">
<stop stop-color="#2DB5E9"/>
<stop offset="1" stop-color="#365EA9"/>
</linearGradient>
<linearGradient id="paint19_linear_1605_114758" x1="10515.6" y1="3692.46" x2="17278.9" y2="3692.46" gradientUnits="userSpaceOnUse">
<stop stop-color="#2DB5E9"/>
<stop offset="1" stop-color="#365EA9"/>
</linearGradient>
<linearGradient id="paint20_linear_1605_114758" x1="4330.13" y1="3918.1" x2="4612.27" y2="3918.1" gradientUnits="userSpaceOnUse">
<stop stop-color="#2DB5E9"/>
<stop offset="1" stop-color="#365EA9"/>
</linearGradient>
<linearGradient id="paint21_linear_1605_114758" x1="12424.8" y1="17992.1" x2="14218.7" y2="17992.1" gradientUnits="userSpaceOnUse">
<stop stop-color="#2DB5E9"/>
<stop offset="1" stop-color="#365EA9"/>
</linearGradient>
<linearGradient id="paint22_linear_1605_114758" x1="2608.94" y1="4837.75" x2="2662.67" y2="4837.75" gradientUnits="userSpaceOnUse">
<stop stop-color="#2DB5E9"/>
<stop offset="1" stop-color="#365EA9"/>
</linearGradient>
<linearGradient id="paint23_linear_1605_114758" x1="153948" y1="-815134" x2="175181" y2="-836366" gradientUnits="userSpaceOnUse">
<stop stop-color="#2DB5E9"/>
<stop offset="1" stop-color="#365EA9"/>
</linearGradient>
<linearGradient id="paint24_linear_1605_114758" x1="36.485" y1="125.659" x2="94.0536" y2="107.243" gradientUnits="userSpaceOnUse">
<stop stop-color="#D7EDF3"/>
<stop offset="1" stop-color="#B1DBDB"/>
</linearGradient>
<linearGradient id="paint25_linear_1605_114758" x1="36.1832" y1="125.823" x2="94.4969" y2="107.18" gradientUnits="userSpaceOnUse">
<stop stop-color="#CBE8EF"/>
<stop offset="1" stop-color="#D9EEF4"/>
</linearGradient>
<clipPath id="clip0_1605_114758">
<rect width="204.739" height="200" fill="white" transform="translate(0.630859)"/>
</clipPath>
</defs>
<g clip-path="url(#clip0_1605_114758)">
<g opacity="0.79">
<path opacity="0.79" d="M5.58939 134.925H2.21477C2.00063 134.936 1.78661 134.902 1.58568 134.828C1.38476 134.753 1.20112 134.638 1.0459 134.49C0.890673 134.342 0.767097 134.164 0.682661 133.967C0.598225 133.77 0.554687 133.558 0.554688 133.344C0.554687 133.129 0.598225 132.917 0.682661 132.72C0.767097 132.523 0.890673 132.345 1.0459 132.197C1.20112 132.049 1.38476 131.935 1.58568 131.86C1.78661 131.785 2.00063 131.752 2.21477 131.762H5.58939C5.99562 131.782 6.3787 131.957 6.65923 132.251C6.93977 132.546 7.09626 132.937 7.09626 133.344C7.09626 133.75 6.93977 134.142 6.65923 134.436C6.3787 134.73 5.99562 134.906 5.58939 134.925Z" fill="url(#paint0_linear_1605_114758)"/>
<path opacity="0.79" d="M18.6656 134.925H14.8682C14.462 134.906 14.0789 134.73 13.7984 134.436C13.5178 134.142 13.3613 133.75 13.3613 133.344C13.3613 132.937 13.5178 132.546 13.7984 132.251C14.0789 131.957 14.462 131.782 14.8682 131.762H18.6656C18.8797 131.752 19.0937 131.785 19.2947 131.86C19.4956 131.935 19.6792 132.049 19.8344 132.197C19.9897 132.345 20.1132 132.523 20.1977 132.72C20.2821 132.917 20.3257 133.129 20.3257 133.344C20.3257 133.558 20.2821 133.77 20.1977 133.967C20.1132 134.164 19.9897 134.342 19.8344 134.49C19.6792 134.638 19.4956 134.753 19.2947 134.828C19.0937 134.902 18.8797 134.936 18.6656 134.925Z" fill="url(#paint1_linear_1605_114758)"/>
<path opacity="0.79" d="M10.3318 143.258C10.1229 143.258 9.91617 143.216 9.72351 143.135C9.53086 143.054 9.35607 142.936 9.20923 142.788C9.06239 142.639 8.94639 142.463 8.86792 142.269C8.78946 142.076 8.75007 141.869 8.75202 141.66V138.285C8.7717 137.879 8.94692 137.496 9.24138 137.215C9.53583 136.935 9.92694 136.778 10.3336 136.778C10.7403 136.778 11.1315 136.935 11.4259 137.215C11.7204 137.496 11.8956 137.879 11.9153 138.285V141.66C11.9172 141.869 11.8777 142.076 11.799 142.27C11.7203 142.464 11.604 142.64 11.4568 142.789C11.3095 142.938 11.1343 143.056 10.9412 143.136C10.7481 143.217 10.541 143.258 10.3318 143.258Z" fill="url(#paint2_linear_1605_114758)"/>
<path opacity="0.79" d="M10.3316 130.601C9.91264 130.601 9.51082 130.435 9.21456 130.138C8.91829 129.842 8.75185 129.44 8.75185 129.021V125.224C8.74148 125.01 8.7747 124.796 8.84951 124.595C8.92431 124.394 9.03914 124.21 9.18702 124.055C9.33491 123.9 9.51278 123.776 9.70985 123.692C9.90692 123.608 10.1191 123.564 10.3335 123.564C10.5479 123.564 10.76 123.608 10.9571 123.692C11.1542 123.776 11.332 123.9 11.4799 124.055C11.6278 124.21 11.7426 124.394 11.8174 124.595C11.8922 124.796 11.9255 125.01 11.9151 125.224V129.021C11.9141 129.441 11.7469 129.843 11.45 130.139C11.1531 130.435 10.7509 130.601 10.3316 130.601Z" fill="url(#paint3_linear_1605_114758)"/>
<path opacity="0.79" d="M153.653 160.869H150.278C149.872 160.849 149.489 160.674 149.209 160.379C148.928 160.085 148.771 159.694 148.771 159.287C148.771 158.88 148.928 158.489 149.209 158.195C149.489 157.9 149.872 157.725 150.278 157.705H153.653C153.867 157.695 154.081 157.728 154.282 157.803C154.483 157.878 154.667 157.993 154.822 158.141C154.977 158.289 155.101 158.466 155.185 158.663C155.269 158.861 155.313 159.073 155.313 159.287C155.313 159.501 155.269 159.714 155.185 159.911C155.101 160.108 154.977 160.286 154.822 160.434C154.667 160.581 154.483 160.696 154.282 160.771C154.081 160.846 153.867 160.879 153.653 160.869Z" fill="url(#paint4_linear_1605_114758)"/>
<path opacity="0.79" d="M166.733 160.869H162.935C162.721 160.879 162.507 160.846 162.306 160.771C162.105 160.696 161.922 160.581 161.767 160.434C161.611 160.286 161.488 160.108 161.403 159.911C161.319 159.714 161.275 159.501 161.275 159.287C161.275 159.073 161.319 158.861 161.403 158.663C161.488 158.466 161.611 158.289 161.767 158.141C161.922 157.993 162.105 157.878 162.306 157.803C162.507 157.728 162.721 157.695 162.935 157.705H166.733C167.139 157.725 167.522 157.9 167.803 158.195C168.083 158.489 168.24 158.88 168.24 159.287C168.24 159.694 168.083 160.085 167.803 160.379C167.522 160.674 167.139 160.849 166.733 160.869Z" fill="url(#paint5_linear_1605_114758)"/>
<path opacity="0.79" d="M158.4 169.202C157.98 169.202 157.577 169.035 157.28 168.738C156.983 168.441 156.816 168.038 156.816 167.618V164.244C156.816 163.824 156.983 163.421 157.28 163.124C157.577 162.827 157.98 162.66 158.4 162.66C158.82 162.66 159.223 162.827 159.52 163.124C159.817 163.421 159.983 163.824 159.983 164.244V167.618C159.983 168.038 159.817 168.441 159.52 168.738C159.223 169.035 158.82 169.202 158.4 169.202Z" fill="url(#paint6_linear_1605_114758)"/>
<path opacity="0.79" d="M158.4 156.545C157.981 156.545 157.578 156.379 157.282 156.083C156.985 155.786 156.817 155.385 156.816 154.965V151.168C156.816 150.748 156.983 150.345 157.28 150.048C157.577 149.751 157.98 149.584 158.4 149.584C158.82 149.584 159.223 149.751 159.52 150.048C159.817 150.345 159.983 150.748 159.983 151.168V154.965C159.982 155.385 159.815 155.786 159.518 156.083C159.221 156.379 158.819 156.545 158.4 156.545Z" fill="url(#paint7_linear_1605_114758)"/>
<path opacity="0.79" d="M188.457 28.1832H185.082C184.868 28.1935 184.654 28.1603 184.453 28.0855C184.252 28.0107 184.068 27.8959 183.913 27.748C183.758 27.6001 183.634 27.4222 183.55 27.2252C183.465 27.0281 183.422 26.8159 183.422 26.6015C183.422 26.3871 183.465 26.175 183.55 25.9779C183.634 25.7808 183.758 25.603 183.913 25.4551C184.068 25.3072 184.252 25.1924 184.453 25.1176C184.654 25.0428 184.868 25.0095 185.082 25.0199H188.457C188.671 25.0095 188.885 25.0428 189.086 25.1176C189.287 25.1924 189.47 25.3072 189.625 25.4551C189.781 25.603 189.904 25.7808 189.989 25.9779C190.073 26.175 190.117 26.3871 190.117 26.6015C190.117 26.8159 190.073 27.0281 189.989 27.2252C189.904 27.4222 189.781 27.6001 189.625 27.748C189.47 27.8959 189.287 28.0107 189.086 28.0855C188.885 28.1603 188.671 28.1935 188.457 28.1832Z" fill="url(#paint8_linear_1605_114758)"/>
<path opacity="0.79" d="M201.532 28.1832H197.738C197.524 28.1935 197.31 28.1603 197.109 28.0855C196.908 28.0107 196.725 27.8959 196.569 27.748C196.414 27.6001 196.291 27.4222 196.206 27.2252C196.122 27.0281 196.078 26.8159 196.078 26.6015C196.078 26.3871 196.122 26.175 196.206 25.9779C196.291 25.7808 196.414 25.603 196.569 25.4551C196.725 25.3072 196.908 25.1924 197.109 25.1176C197.31 25.0428 197.524 25.0095 197.738 25.0199H201.532C201.746 25.0095 201.96 25.0428 202.161 25.1176C202.362 25.1924 202.546 25.3072 202.701 25.4551C202.856 25.603 202.98 25.7808 203.064 25.9779C203.148 26.175 203.192 26.3871 203.192 26.6015C203.192 26.8159 203.148 27.0281 203.064 27.2252C202.98 27.4222 202.856 27.6001 202.701 27.748C202.546 27.8959 202.362 28.0107 202.161 28.0855C201.96 28.1603 201.746 28.1935 201.532 28.1832Z" fill="url(#paint9_linear_1605_114758)"/>
<path opacity="0.79" d="M193.204 36.5309C192.996 36.5319 192.79 36.4917 192.597 36.4128C192.404 36.3339 192.229 36.2178 192.081 36.071C191.933 35.9243 191.816 35.7498 191.736 35.5577C191.655 35.3655 191.614 35.1594 191.613 34.9511V31.5728C191.633 31.1666 191.808 30.7835 192.103 30.5029C192.397 30.2224 192.788 30.0659 193.195 30.0659C193.602 30.0659 193.993 30.2224 194.287 30.5029C194.582 30.7835 194.757 31.1666 194.777 31.5728V34.9511C194.777 35.3688 194.611 35.7695 194.316 36.0656C194.022 36.3616 193.622 36.5289 193.204 36.5309Z" fill="url(#paint10_linear_1605_114758)"/>
<path opacity="0.79" d="M193.204 23.8742C192.996 23.8752 192.79 23.8351 192.597 23.7562C192.404 23.6773 192.229 23.5611 192.081 23.4144C191.933 23.2676 191.816 23.0932 191.736 22.901C191.655 22.7089 191.614 22.5027 191.613 22.2945V18.4971C191.633 18.0909 191.808 17.7078 192.103 17.4273C192.397 17.1467 192.788 16.9902 193.195 16.9902C193.602 16.9902 193.993 17.1467 194.287 17.4273C194.582 17.7078 194.757 18.0909 194.777 18.4971V22.2945C194.777 22.7122 194.611 23.1129 194.316 23.4089C194.022 23.705 193.622 23.8723 193.204 23.8742Z" fill="url(#paint11_linear_1605_114758)"/>
<path opacity="0.79" d="M29.0115 171.412C27.997 171.412 27.0053 171.111 26.1618 170.547C25.3183 169.983 24.6609 169.182 24.2729 168.245C23.8848 167.307 23.7834 166.276 23.9816 165.281C24.1798 164.286 24.6687 163.372 25.3863 162.655C26.1039 161.938 27.0181 161.45 28.0132 161.252C29.0083 161.055 30.0396 161.157 30.9767 161.546C31.9138 161.935 32.7145 162.592 33.2776 163.436C33.8407 164.28 34.1409 165.272 34.1402 166.287C34.1382 167.646 33.5971 168.949 32.6356 169.91C31.6741 170.871 30.3708 171.411 29.0115 171.412ZM29.0115 164.321C28.6228 164.321 28.2428 164.437 27.9196 164.652C27.5963 164.868 27.3444 165.175 27.1957 165.535C27.0469 165.894 27.008 166.289 27.0838 166.67C27.1597 167.051 27.3468 167.402 27.6217 167.676C27.8966 167.951 28.2468 168.139 28.6281 168.214C29.0093 168.29 29.4045 168.251 29.7636 168.103C30.1228 167.954 30.4297 167.702 30.6457 167.379C30.8617 167.055 30.9769 166.675 30.9769 166.287C30.9769 165.765 30.7699 165.266 30.4013 164.897C30.0327 164.528 29.5328 164.321 29.0115 164.321Z" fill="url(#paint12_linear_1605_114758)"/>
<path opacity="0.79" d="M197.738 72.2056C196.723 72.2063 195.731 71.9062 194.888 71.3431C194.044 70.78 193.386 69.9792 192.997 69.0422C192.608 68.1051 192.506 67.0738 192.704 66.0786C192.901 65.0835 193.389 64.1693 194.106 63.4517C194.823 62.7341 195.737 62.2453 196.732 62.0471C197.727 61.8489 198.759 61.9502 199.696 62.3383C200.633 62.7264 201.435 63.3837 201.998 64.2272C202.562 65.0707 202.863 66.0624 202.863 67.0769C202.862 68.4362 202.322 69.7396 201.361 70.7011C200.4 71.6625 199.097 72.2036 197.738 72.2056ZM197.738 65.1152C197.349 65.1145 196.968 65.2292 196.645 65.4449C196.321 65.6606 196.068 65.9675 195.919 66.3268C195.77 66.6861 195.731 67.0816 195.806 67.4632C195.882 67.8448 196.069 68.1953 196.344 68.4704C196.619 68.7455 196.97 68.9328 197.352 69.0085C197.733 69.0842 198.129 69.045 198.488 68.8957C198.847 68.7465 199.154 68.494 199.37 68.1703C199.586 67.8465 199.7 67.466 199.7 67.0769C199.699 66.5569 199.492 66.0585 199.124 65.6908C198.756 65.3232 198.258 65.1162 197.738 65.1152Z" fill="url(#paint13_linear_1605_114758)"/>
</g>
<g opacity="0.79">
<path opacity="0.79" d="M163.254 21.9755C162.92 21.9764 162.594 21.8712 162.324 21.6752C159.282 19.46 156.115 17.4231 152.838 15.5749C152.493 15.3582 152.246 15.0174 152.146 14.6231C152.046 14.2288 152.102 13.8113 152.302 13.457C152.502 13.1028 152.83 12.839 153.219 12.7203C153.608 12.6016 154.028 12.6372 154.391 12.8196C157.775 14.73 161.045 16.835 164.185 19.1238C164.456 19.3198 164.657 19.5966 164.761 19.9144C164.864 20.2321 164.864 20.5745 164.761 20.8922C164.657 21.21 164.456 21.4867 164.185 21.6827C163.914 21.8787 163.589 21.9838 163.254 21.983V21.9755Z" fill="url(#paint14_linear_1605_114758)"/>
<path opacity="0.79" d="M76.1049 7.58727C75.7276 7.58539 75.3634 7.44885 75.0778 7.20225C74.7923 6.95565 74.6041 6.61519 74.5473 6.2422C74.4905 5.8692 74.5688 5.48819 74.768 5.16777C74.9672 4.84735 75.2743 4.60859 75.6339 4.49449C92.8917 -0.840899 111.267 -1.43777 128.834 2.76639C129.234 2.8728 129.576 3.13123 129.787 3.48646C129.999 3.84169 130.063 4.26553 129.966 4.66745C129.869 5.06936 129.619 5.41746 129.269 5.63737C128.919 5.85728 128.497 5.93156 128.093 5.84434C111.08 1.77036 93.2847 2.34803 76.5721 7.51681C76.4207 7.56311 76.2632 7.58685 76.1049 7.58727Z" fill="url(#paint15_linear_1605_114758)"/>
<path opacity="0.79" d="M37.8194 30.0079C37.5027 30.0075 37.1935 29.9121 36.9316 29.7341C36.6698 29.5561 36.4673 29.3037 36.3503 29.0095C36.2333 28.7152 36.2072 28.3927 36.2754 28.0835C36.3436 27.7743 36.5029 27.4926 36.7328 27.2749C38.2977 25.7915 39.9294 24.3527 41.5871 22.9806C41.747 22.8481 41.9315 22.7485 42.13 22.6873C42.3285 22.6262 42.5371 22.6047 42.7439 22.6241C42.9507 22.6436 43.1516 22.7036 43.3352 22.8007C43.5188 22.8978 43.6815 23.0301 43.8139 23.1901C43.9464 23.3501 44.046 23.5346 44.1072 23.7331C44.1684 23.9316 44.1898 24.1402 44.1704 24.3469C44.1509 24.5537 44.0909 24.7547 43.9938 24.9383C43.8967 25.1218 43.7644 25.2845 43.6044 25.417C42.0024 26.7446 40.4189 28.1463 38.9022 29.5778C38.6092 29.8539 38.2219 30.0078 37.8194 30.0079Z" fill="url(#paint16_linear_1605_114758)"/>
<path opacity="0.79" d="M7.73722 114.099C7.35552 114.099 6.98673 113.961 6.69905 113.71C6.41137 113.459 6.22425 113.112 6.17228 112.734C5.10924 104.311 5.10924 95.7882 6.17228 87.3653C7.78525 74.4841 11.917 62.0461 18.332 50.76C18.5608 50.4505 18.8944 50.2349 19.2705 50.1535C19.6466 50.0721 20.0395 50.1305 20.3757 50.3177C20.7119 50.5049 20.9685 50.8081 21.0974 51.1707C21.2263 51.5333 21.2188 51.9304 21.0762 52.2878C14.8663 63.2155 10.8658 75.2575 9.30215 87.7287C8.27383 95.8883 8.27383 104.145 9.30215 112.304C9.35469 112.72 9.24014 113.14 8.98362 113.471C8.7271 113.803 8.34955 114.019 7.93376 114.073L7.73722 114.099Z" fill="url(#paint17_linear_1605_114758)"/>
<path opacity="0.79" d="M56.213 186.865C55.9357 186.866 55.6631 186.793 55.4231 186.654C51.5708 184.429 47.8703 181.951 44.3462 179.237C44.1723 179.113 44.0251 178.956 43.9135 178.774C43.8019 178.592 43.7282 178.39 43.6969 178.178C43.6655 177.967 43.6771 177.752 43.7311 177.546C43.785 177.339 43.88 177.146 44.0106 176.977C44.1411 176.808 44.3044 176.668 44.4906 176.564C44.6769 176.459 44.8822 176.394 45.0944 176.371C45.3065 176.349 45.5211 176.369 45.7252 176.431C45.9293 176.493 46.1187 176.596 46.282 176.734C49.6913 179.362 53.2716 181.76 56.9992 183.913C57.3073 184.085 57.5493 184.354 57.6868 184.679C57.8244 185.004 57.8496 185.365 57.7584 185.706C57.6673 186.046 57.4651 186.347 57.1838 186.559C56.9025 186.772 56.5582 186.885 56.2056 186.88L56.213 186.865Z" fill="url(#paint18_linear_1605_114758)"/>
<path opacity="0.79" d="M105.371 200C96.4943 200.006 87.6565 198.833 79.0894 196.51C78.889 196.456 78.7013 196.363 78.5369 196.236C78.3726 196.109 78.2348 195.951 78.1315 195.771C78.0282 195.591 77.9613 195.392 77.9348 195.186C77.9083 194.98 77.9226 194.771 77.9769 194.571C78.0312 194.37 78.1244 194.183 78.2513 194.018C78.3781 193.854 78.5361 193.716 78.7162 193.613C78.8963 193.51 79.095 193.443 79.3009 193.416C79.5069 193.39 79.716 193.404 79.9164 193.458C94.9922 197.529 110.824 197.927 126.086 194.619C126.495 194.53 126.923 194.607 127.276 194.834C127.629 195.061 127.877 195.418 127.966 195.828C128.055 196.238 127.977 196.666 127.751 197.018C127.524 197.371 127.166 197.619 126.757 197.708C119.73 199.234 112.561 200.002 105.371 200Z" fill="url(#paint19_linear_1605_114758)"/>
<path opacity="0.79" d="M153.617 187.387C153.266 187.389 152.924 187.274 152.645 187.06C152.366 186.846 152.166 186.546 152.077 186.206C151.988 185.866 152.014 185.506 152.152 185.183C152.29 184.86 152.531 184.592 152.838 184.421C155.204 183.089 157.54 181.639 159.788 180.112C160.134 179.876 160.561 179.787 160.973 179.865C161.385 179.943 161.749 180.182 161.985 180.529C162.221 180.876 162.31 181.302 162.231 181.714C162.153 182.126 161.914 182.49 161.568 182.726C159.246 184.306 156.832 185.804 154.392 187.176C154.156 187.312 153.889 187.385 153.617 187.387Z" fill="url(#paint20_linear_1605_114758)"/>
<path opacity="0.79" d="M178.394 167.57C178.088 167.57 177.788 167.482 177.531 167.315C177.274 167.148 177.072 166.91 176.947 166.63C176.823 166.35 176.782 166.041 176.83 165.738C176.878 165.436 177.013 165.154 177.218 164.926C188.022 152.979 195.677 138.527 199.491 122.877C199.607 122.489 199.867 122.16 200.219 121.957C200.57 121.755 200.985 121.696 201.379 121.791C201.773 121.886 202.116 122.128 202.337 122.468C202.557 122.809 202.639 123.22 202.565 123.619C198.63 139.781 190.728 154.708 179.573 167.048C179.424 167.213 179.243 167.345 179.039 167.435C178.836 167.525 178.616 167.571 178.394 167.57Z" fill="url(#paint21_linear_1605_114758)"/>
<path opacity="0.79" d="M203.791 101.583C203.371 101.583 202.969 101.417 202.672 101.12C202.375 100.823 202.208 100.42 202.208 100C202.208 97.0852 202.078 94.1481 201.818 91.263C201.607 88.9008 201.307 86.52 200.925 84.1912C200.873 83.7848 200.981 83.3742 201.226 83.0458C201.471 82.7173 201.833 82.4966 202.238 82.4298C202.642 82.3631 203.056 82.4556 203.394 82.688C203.731 82.9203 203.965 83.2743 204.047 83.6757C204.44 86.0824 204.752 88.5411 204.971 90.9812C205.238 93.9479 205.371 96.9925 205.371 100C205.371 100.419 205.205 100.821 204.909 101.118C204.612 101.415 204.211 101.582 203.791 101.583Z" fill="url(#paint22_linear_1605_114758)"/>
</g>
<path d="M173.994 124.231H162.65V112.872L154.01 104.235H142.662V92.8913L132.249 82.4782C136.506 73.5289 137.464 63.3635 134.954 53.7765C132.444 44.1895 126.628 35.7975 118.532 30.0823C110.436 24.367 100.581 21.696 90.707 22.5408C80.833 23.3856 71.575 27.6919 64.5675 34.6994C57.56 41.7068 53.2537 50.9649 52.4089 60.8389C51.5641 70.7129 54.2352 80.5679 59.9504 88.6639C65.6657 96.7599 74.0576 102.576 83.6446 105.086C93.2316 107.596 103.397 106.638 112.346 102.381L164.798 154.832L182.524 152.652L184.704 134.926L173.994 124.231ZM89.4026 59.5308C87.9446 60.9883 86.0872 61.9807 84.0652 62.3827C82.0432 62.7846 79.9474 62.578 78.0428 61.7889C76.1382 60.9998 74.5104 59.6637 73.3651 57.9495C72.2198 56.2354 71.6085 54.2201 71.6085 52.1585C71.6085 50.0969 72.2198 48.0816 73.3651 46.3675C74.5104 44.6533 76.1382 43.3172 78.0428 42.5281C79.9474 41.739 82.0432 41.5324 84.0652 41.9343C86.0872 42.3363 87.9446 43.3287 89.4026 44.7863C90.371 45.7543 91.1391 46.9036 91.6632 48.1685C92.1873 49.4335 92.457 50.7893 92.457 52.1585C92.457 53.5277 92.1873 54.8835 91.6632 56.1485C91.1391 57.4134 90.371 58.5627 89.4026 59.5308Z" fill="url(#paint23_linear_1605_114758)"/>
<path d="M66.7678 72.9211L38.8435 81.8543C30.6564 84.4735 26.1427 93.2336 28.7619 101.421L44.2713 149.901C46.8905 158.088 55.6506 162.602 63.8376 159.983L91.7619 151.05C99.949 148.431 104.463 139.671 101.844 131.483L86.3341 83.0027C83.7149 74.8157 74.9548 70.302 66.7678 72.9211Z" fill="url(#paint24_linear_1605_114758)"/>
<path d="M59.0702 161.121C55.6923 161.113 52.4039 160.034 49.6774 158.04C46.9509 156.046 44.9267 153.239 43.8956 150.022L28.3872 101.539C27.1046 97.5093 27.4723 93.1355 29.4098 89.3767C31.3472 85.6179 34.6962 82.7808 38.7224 81.4876L66.639 72.5579C68.6342 71.9192 70.7357 71.68 72.8233 71.8538C74.911 72.0276 76.944 72.6111 78.8061 73.5709C80.6682 74.5307 82.3229 75.848 83.6757 77.4476C85.0285 79.0471 86.0528 80.8975 86.6902 82.8931L102.202 131.373C102.841 133.369 103.08 135.471 102.906 137.56C102.732 139.649 102.148 141.682 101.187 143.545C100.226 145.408 98.9071 147.063 97.306 148.415C95.705 149.768 93.853 150.791 91.856 151.428L63.9319 160.357C62.3604 160.861 60.7205 161.119 59.0702 161.121ZM71.523 72.5653C69.9462 72.5695 68.3797 72.8197 66.8801 73.307L38.9597 82.2367C35.1296 83.4686 31.9439 86.1684 30.1006 89.7447C28.2572 93.3209 27.9064 97.482 29.1251 101.316L44.6336 149.8C45.8595 153.633 48.558 156.822 52.1355 158.666C55.7129 160.509 59.8762 160.856 63.7094 159.631L91.6335 150.701C95.467 149.474 98.6563 146.775 100.5 143.197C102.343 139.619 102.69 135.455 101.464 131.621L85.9597 83.1267C84.9783 80.0665 83.0525 77.3959 80.4588 75.4984C77.865 73.6009 74.7367 72.574 71.523 72.5653Z" fill="url(#paint25_linear_1605_114758)"/>
<path d="M52.5921 138.115C52.0274 138.118 51.4802 137.919 51.0493 137.554C50.6185 137.189 50.3324 136.682 50.2428 136.124C50.1533 135.567 50.2661 134.995 50.5609 134.514C50.8557 134.032 51.3131 133.672 51.8504 133.498L77.2602 125.221C77.5553 125.123 77.8667 125.085 78.1766 125.108C78.4866 125.131 78.7889 125.215 79.0665 125.355C79.344 125.494 79.5913 125.687 79.7943 125.923C79.9972 126.158 80.1518 126.431 80.2491 126.726C80.3465 127.022 80.3849 127.333 80.3619 127.643C80.339 127.953 80.2552 128.255 80.1154 128.533C79.9756 128.81 79.7825 129.058 79.5471 129.26C79.3117 129.463 79.0387 129.618 78.7435 129.715L53.3338 137.996C53.0943 138.075 52.844 138.115 52.5921 138.115Z" fill="white"/>
<path d="M56.1705 148.495C55.6078 148.495 55.0633 148.295 54.6349 147.93C54.2065 147.565 53.9221 147.06 53.8327 146.504C53.7434 145.949 53.855 145.38 54.1475 144.899C54.4401 144.418 54.8943 144.057 55.4288 143.881L74.8607 137.551C75.1602 137.432 75.4811 137.375 75.8035 137.384C76.1259 137.394 76.4429 137.469 76.7351 137.605C77.0274 137.742 77.2885 137.937 77.5026 138.178C77.7166 138.419 77.879 138.702 77.9797 139.008C78.0804 139.314 78.1172 139.638 78.088 139.959C78.0589 140.281 77.9642 140.592 77.8099 140.876C77.6556 141.159 77.445 141.407 77.191 141.606C76.9369 141.805 76.6449 141.949 76.3329 142.031L56.9047 148.365C56.6681 148.446 56.4204 148.49 56.1705 148.495Z" fill="white"/>
</g>
</svg>
