<svg width="364" height="82" viewBox="0 0 364 82" fill="none" xmlns="http://www.w3.org/2000/svg">
<path d="M74.1598 69.8935H75.472C75.8001 69.8935 76.0344 69.6592 76.1281 69.4717L79.8774 60.8485H97.7799L101.576 69.4717C101.67 69.6592 101.904 69.8935 102.232 69.8935H103.451C103.966 69.8935 103.966 69.6123 103.872 69.3311L89.5785 36.7129C89.4379 36.4317 89.2035 36.3849 88.9692 36.3849H88.8286C88.5943 36.3849 88.36 36.5255 88.2662 36.7129L73.8317 69.3311C73.6912 69.7061 73.8317 69.8935 74.1598 69.8935ZM80.7209 59.0208L88.8755 40.1341H88.9692L96.9832 59.0208H80.7209Z" fill="white"/>
<path d="M109.136 69.2843C109.136 69.6123 109.417 69.8935 109.746 69.8935H110.636C110.964 69.8935 111.245 69.6123 111.245 69.2843V40.7902H111.292C133.553 70.2216 133.928 70.3622 133.975 70.3622H134.584C134.959 70.3622 135.334 70.1747 135.334 69.7529V37.6971C135.334 37.369 135.053 37.0878 134.725 37.0878H133.787C133.459 37.0878 133.178 37.369 133.178 37.6971V65.91C133.178 65.91 133.178 65.91 133.131 65.91L110.636 36.6192H109.839C109.464 36.6192 109.136 36.8535 109.136 37.2284V69.2843Z" fill="white"/>
<path d="M142.949 53.5375C142.949 62.9575 150.494 70.3622 159.914 70.3622C166.053 70.3622 170.318 67.9252 171.162 67.3628C171.537 67.0816 171.818 66.8473 171.818 66.1443V55.2716C171.818 54.9904 171.537 54.7092 171.209 54.7092H161.601C161.086 54.7092 160.992 54.8966 160.992 55.2716V56.2089C160.992 56.6306 161.086 56.8181 161.601 56.8181H169.615V65.6288C169.147 66.0037 165.585 68.2064 159.867 68.2064C151.713 68.2064 145.292 61.5515 145.292 53.4438C145.292 45.3361 151.713 38.6813 159.867 38.6813C163.71 38.6813 167.131 40.181 169.756 42.6179C170.037 42.8991 170.271 42.946 170.552 42.6179C170.787 42.3836 171.068 42.1024 171.302 41.8212C171.537 41.5869 171.49 41.212 171.255 40.9777C168.209 38.2126 164.647 36.6192 159.914 36.6192C150.494 36.6192 142.949 44.1645 142.949 53.5375Z" fill="white"/>
<path d="M180.121 69.2843C180.121 69.6123 180.402 69.8935 180.73 69.8935H199.523C199.851 69.8935 200.132 69.6123 200.132 69.2843V68.5344C200.132 68.2064 199.851 67.9252 199.523 67.9252H182.37V54.0531H197.226C197.555 54.0531 197.836 53.7719 197.836 53.4438V52.6471C197.836 52.319 197.555 52.0379 197.226 52.0379H182.37V39.1031H199.523C199.851 39.1031 200.132 38.8219 200.132 38.4938V37.6971C200.132 37.369 199.851 37.0878 199.523 37.0878H180.73C180.402 37.0878 180.121 37.369 180.121 37.6971V69.2843Z" fill="white"/>
<path d="M208.13 69.2843C208.13 69.6123 208.411 69.8935 208.739 69.8935H225.283C225.611 69.8935 225.892 69.7061 225.892 69.378V68.5344C225.892 68.2064 225.845 67.9252 225.283 67.9252H210.333V37.6971C210.333 37.369 210.051 37.0878 209.77 37.0878H208.739C208.411 37.0878 208.13 37.369 208.13 37.6971V69.2843Z" fill="white"/>
<path d="M228.286 52.3055C228.286 63.0805 236.959 71.6466 247.734 71.6466C252.529 71.6466 257.162 69.9765 260.826 66.4207C261.203 66.0436 261.311 65.3432 260.88 64.9661L257.54 61.5181C257.216 61.1949 256.624 61.141 256.193 61.5181C253.93 63.3499 251.182 64.589 247.95 64.589C241.054 64.589 235.882 58.8782 235.882 52.1439C235.882 45.3556 241 39.591 247.896 39.591C250.913 39.591 253.93 40.7763 256.193 42.7697C256.624 43.2007 257.162 43.2007 257.54 42.7697L260.826 39.3755C261.257 38.9445 261.257 38.298 260.772 37.867C257.109 34.5807 253.176 32.8567 247.734 32.8567C236.959 32.8567 228.286 41.5305 228.286 52.3055Z" fill="white"/>
<path d="M263.875 71.1078H268.562C269.424 71.1078 269.909 70.5691 270.124 70.0303L272.764 64.2118H288.873L291.513 70.0303C291.89 70.7846 292.267 71.1078 293.075 71.1078H297.762C298.57 71.1078 299.001 70.4075 298.678 69.7071L282.085 33.4493C281.923 33.1261 281.708 32.8567 281.169 32.8567H280.63C280.145 32.8567 279.876 33.1261 279.714 33.4493L262.959 69.7071C262.636 70.4075 263.067 71.1078 263.875 71.1078ZM275.404 58.2317L280.684 46.3793H280.846L286.233 58.2317H275.404Z" fill="white"/>
<path d="M303.585 70.0842C303.585 70.623 304.016 71.1078 304.609 71.1078H309.565C310.104 71.1078 310.589 70.623 310.589 70.0842V56.3461H316.569L323.735 70.623C323.842 70.8385 324.112 71.1078 324.597 71.1078H330.253C331.169 71.1078 331.546 70.2458 331.169 69.5455L323.788 55.8612C328.476 53.9756 331.762 49.935 331.762 44.9785C331.762 38.5674 326.482 33.3954 320.017 33.3954H304.609C304.016 33.3954 303.585 33.8803 303.585 34.4191V70.0842ZM310.643 50.5815V39.8604H319.425C322.28 39.8604 324.758 42.2309 324.758 45.0863C324.758 48.1033 322.28 50.5815 319.425 50.5815H310.643Z" fill="white"/>
<path d="M339.467 70.0842C339.467 70.623 339.898 71.1078 340.49 71.1078H362.418C363.01 71.1078 363.441 70.623 363.441 70.0842V65.6665C363.441 65.1277 363.01 64.6428 362.418 64.6428H346.471V55.2147H359.778C360.316 55.2147 360.801 54.7837 360.801 54.1911V49.7195C360.801 49.1808 360.316 48.6959 359.778 48.6959H346.471V39.8604H362.418C363.01 39.8604 363.441 39.3755 363.441 38.8368V34.4191C363.441 33.8803 363.01 33.3954 362.418 33.3954H340.49C339.898 33.3954 339.467 33.8803 339.467 34.4191V70.0842Z" fill="white"/>
<path d="M38.3096 39.3938C29.4077 22.7397 15.1323 13.9935 6.42667 19.8616C-2.27898 25.7297 -2.12008 43.9858 6.78177 60.6415C15.6836 77.2972 29.959 86.0418 38.6663 80.1753C47.3736 74.3088 47.213 56.0495 38.3096 39.3938ZM10.9068 57.9304C2.12816 41.4984 0.334822 24.5882 6.905 20.1599C13.4752 15.7317 25.9216 25.4638 34.7002 41.8957C43.4788 58.3276 45.2786 75.2379 38.7085 79.6661C32.1383 84.0944 19.6968 74.3623 10.9116 57.9304H10.9068Z" fill="white"/>
<path d="M30.1763 79.9708C38.8415 85.8876 53.185 77.2241 62.1938 60.6235C71.2027 44.0229 71.4978 25.762 62.8327 19.8452C54.1676 13.9285 39.8322 22.5887 30.8087 39.1926C21.7853 55.7964 21.5096 74.0525 30.1763 79.9708ZM30.1326 79.4617C23.5932 74.9962 25.5049 58.0956 34.4019 41.7156C43.2989 25.3355 55.8053 15.6748 62.3527 20.1403C68.9002 24.6059 66.9804 41.5048 58.0818 57.8865C49.1832 74.2681 36.6719 83.9272 30.1326 79.4617Z" fill="white"/>
<path d="M34.1879 7.98098C29.5115 7.98098 25.7206 11.5482 25.7206 15.9554C25.7206 19.5858 28.2971 22.6504 31.8221 23.6135C30.3414 23.0616 29.1024 22.0057 28.3225 20.6313C27.5426 19.2569 27.2718 17.6517 27.5574 16.0975C27.843 14.5432 28.6669 13.1392 29.8845 12.1319C31.1021 11.1246 32.6355 10.5782 34.2158 10.5888C35.796 10.5993 37.322 11.1661 38.526 12.1896C39.73 13.2131 40.5351 14.628 40.8 16.1859C41.0648 17.7438 40.7725 19.3452 39.9743 20.7091C39.1762 22.073 37.9232 23.1122 36.4352 23.6444C40.0203 22.7169 42.6535 19.6264 42.6535 15.9554C42.6535 11.5515 38.8625 7.98098 34.1879 7.98098Z" fill="white"/>
<path d="M34.6597 7.75213e-05C26.3173 -0.0161371 19.5493 2.51335 19.5428 5.64765C19.5428 8.23227 24.1331 10.4212 30.4212 11.1185C25.8632 10.4326 22.6187 8.67655 22.6219 6.62377C22.6219 3.9824 28.002 1.85017 34.6289 1.86314C41.2558 1.87611 46.6277 4.02456 46.6196 6.66593C46.6196 8.74303 43.2924 10.5023 38.6534 11.1558C45.0501 10.5072 49.7523 8.31496 49.7572 5.70278C49.7637 2.57497 43.0038 0.0146707 34.6597 7.75213e-05Z" fill="white"/>
</svg>
