<svg width="150" height="63" viewBox="0 0 150 63" fill="none" xmlns="http://www.w3.org/2000/svg">
<path d="M59.1488 36.3585H59.9345C60.1309 36.3585 60.2712 36.2182 60.3273 36.106L62.5719 30.9433H73.2902L75.5629 36.106C75.619 36.2182 75.7593 36.3585 75.9557 36.3585H76.6852C76.9939 36.3585 76.9939 36.1901 76.9377 36.0218L68.38 16.4933C68.2958 16.3249 68.1555 16.2969 68.0152 16.2969H67.9311C67.7908 16.2969 67.6505 16.3811 67.5944 16.4933L58.9524 36.0218C58.8682 36.2463 58.9524 36.3585 59.1488 36.3585ZM63.077 29.849L67.9591 18.5415H68.0152L72.8132 29.849H63.077Z" fill="white"/>
<path d="M80.0892 35.9937C80.0892 36.1901 80.2576 36.3585 80.454 36.3585H80.9871C81.1835 36.3585 81.3519 36.1901 81.3519 35.9937V18.9343H81.3799C94.7076 36.5549 94.932 36.6391 94.9601 36.6391H95.3248C95.5493 36.6391 95.7738 36.5268 95.7738 36.2743V17.0825C95.7738 16.8861 95.6054 16.7177 95.409 16.7177H94.8479C94.6514 16.7177 94.4831 16.8861 94.4831 17.0825V33.9735C94.4831 33.9735 94.4831 33.9735 94.455 33.9735L80.9871 16.4372H80.5101C80.2856 16.4372 80.0892 16.5775 80.0892 16.8019V35.9937Z" fill="white"/>
<path d="M100.333 26.5662C100.333 32.2059 104.85 36.6391 110.49 36.6391C114.165 36.6391 116.719 35.18 117.224 34.8433C117.448 34.675 117.617 34.5347 117.617 34.1138V27.6043C117.617 27.436 117.448 27.2676 117.252 27.2676H111.5C111.191 27.2676 111.135 27.3799 111.135 27.6043V28.1655C111.135 28.418 111.191 28.5303 111.5 28.5303H116.298V33.8052C116.017 34.0297 113.885 35.3484 110.462 35.3484C105.58 35.3484 101.736 31.3641 101.736 26.5101C101.736 21.656 105.58 17.6717 110.462 17.6717C112.763 17.6717 114.811 18.5696 116.382 20.0286C116.55 20.197 116.691 20.225 116.859 20.0286C116.999 19.8883 117.168 19.72 117.308 19.5516C117.448 19.4113 117.42 19.1869 117.28 19.0466C115.456 17.3911 113.324 16.4372 110.49 16.4372C104.85 16.4372 100.333 20.9545 100.333 26.5662Z" fill="white"/>
<path d="M122.588 35.9937C122.588 36.1901 122.756 36.3585 122.952 36.3585H134.204C134.4 36.3585 134.568 36.1901 134.568 35.9937V35.5448C134.568 35.3484 134.4 35.18 134.204 35.18H123.934V26.8748H132.829C133.025 26.8748 133.194 26.7065 133.194 26.5101V26.0331C133.194 25.8367 133.025 25.6683 132.829 25.6683H123.934V17.9243H134.204C134.4 17.9243 134.568 17.7559 134.568 17.5595V17.0825C134.568 16.8861 134.4 16.7177 134.204 16.7177H122.952C122.756 16.7177 122.588 16.8861 122.588 17.0825V35.9937Z" fill="white"/>
<path d="M139.357 35.9937C139.357 36.1901 139.525 36.3585 139.721 36.3585H149.626C149.822 36.3585 149.991 36.2463 149.991 36.0499V35.5448C149.991 35.3484 149.963 35.18 149.626 35.18H140.675V17.0825C140.675 16.8861 140.507 16.7177 140.339 16.7177H139.721C139.525 16.7177 139.357 16.8861 139.357 17.0825V35.9937Z" fill="white"/>
<path d="M72.6633 52.6571H76.6006C76.4746 54.1585 76.0546 55.4972 75.3406 56.6731C74.6267 57.8386 73.624 58.7573 72.3325 59.4293C71.0411 60.1012 69.4714 60.4372 67.6235 60.4372C66.2061 60.4372 64.9304 60.1852 63.7965 59.6812C62.6626 59.1668 61.6914 58.4423 60.8829 57.5079C60.0744 56.5629 59.455 55.4237 59.0245 54.0903C58.6045 52.7569 58.3945 51.2659 58.3945 49.6175V47.7119C58.3945 46.0635 58.6098 44.5726 59.0402 43.2391C59.4812 41.9057 60.1112 40.7665 60.9301 39.8216C61.7491 38.8661 62.7308 38.1364 63.8752 37.6324C65.0302 37.1285 66.3269 36.8765 67.7653 36.8765C69.5922 36.8765 71.1356 37.2124 72.3955 37.8844C73.6555 38.5564 74.6319 39.4856 75.3249 40.672C76.0283 41.8584 76.4588 43.2181 76.6163 44.751H72.679C72.574 43.7641 72.343 42.9189 71.9861 42.2154C71.6396 41.512 71.1251 40.9765 70.4426 40.609C69.7602 40.231 68.8677 40.042 67.7653 40.042C66.8623 40.042 66.0749 40.21 65.4029 40.546C64.7309 40.882 64.1692 41.3755 63.7177 42.0264C63.2663 42.6774 62.925 43.4806 62.6941 44.4361C62.4736 45.381 62.3633 46.4624 62.3633 47.6804V49.6175C62.3633 50.7725 62.4631 51.8224 62.6626 52.7674C62.8725 53.7018 63.1875 54.505 63.6075 55.177C64.038 55.8489 64.5839 56.3687 65.2454 56.7361C65.9069 57.1036 66.6996 57.2874 67.6235 57.2874C68.747 57.2874 69.6552 57.1089 70.3481 56.7519C71.0516 56.3949 71.5818 55.8752 71.9388 55.1927C72.3063 54.4998 72.5478 53.6546 72.6633 52.6571Z" fill="white"/>
<path d="M89.1211 40.2468L82.2703 60.1222H78.1282L86.7588 37.1914H89.4046L89.1211 40.2468ZM94.8538 60.1222L87.9872 40.2468L87.688 37.1914H90.3496L99.0116 60.1222H94.8538ZM94.5231 51.6177V54.7518H82.0498V51.6177H94.5231Z" fill="white"/>
<path d="M101.579 37.1914H109.69C111.432 37.1914 112.918 37.4539 114.147 37.9789C115.375 38.5039 116.315 39.2808 116.966 40.3098C117.627 41.3282 117.958 42.5882 117.958 44.0896C117.958 45.234 117.748 46.242 117.328 47.1134C116.908 47.9849 116.315 48.7198 115.548 49.3183C114.782 49.9063 113.868 50.363 112.808 50.6885L111.611 51.2712H104.319L104.288 48.1371H109.753C110.697 48.1371 111.485 47.9691 112.115 47.6331C112.745 47.2972 113.217 46.8404 113.532 46.263C113.858 45.675 114.021 45.0135 114.021 44.2786C114.021 43.4806 113.863 42.7876 113.548 42.1997C113.244 41.6012 112.771 41.1445 112.131 40.8295C111.49 40.504 110.676 40.3413 109.69 40.3413H105.532V60.1222H101.579V37.1914ZM114.666 60.1222L109.28 49.8223L113.422 49.8065L118.887 59.9175V60.1222H114.666Z" fill="white"/>
<path d="M136.904 56.9881V60.1222H124.73V56.9881H136.904ZM125.848 37.1914V60.1222H121.895V37.1914H125.848ZM135.313 46.7669V49.8538H124.73V46.7669H135.313ZM136.825 37.1914V40.3413H124.73V37.1914H136.825Z" fill="white"/>
<path d="M29.16 30.0081C22.3985 17.3556 11.5525 10.7122 4.93678 15.1722C-1.67897 19.6322 -1.55425 33.4965 5.20921 46.149C11.9727 58.8015 22.8167 65.4448 29.4324 60.9849C36.0482 56.5249 35.9234 42.6606 29.16 30.0081ZM8.35035 44.089C1.6742 31.6059 0.3114 18.7597 5.30243 15.396C10.2935 12.0324 19.749 19.4254 26.4212 31.9085C33.0935 44.3917 34.4576 57.2379 29.4659 60.6015C24.4742 63.9652 15.0199 56.5722 8.34707 44.089H8.35035Z" fill="white"/>
<path d="M22.9821 60.8323C29.565 65.3277 40.455 58.7467 47.3057 46.1336C54.1565 33.5205 54.3738 19.6509 47.7909 15.1562C41.2079 10.6614 30.318 17.2417 23.4672 29.8548C16.6165 42.468 16.3992 56.3369 22.9821 60.8323ZM22.9486 60.4457C17.9812 57.0538 19.432 44.2155 26.1935 31.7723C32.955 19.3292 42.4578 11.9888 47.4259 15.3807C52.3939 18.7726 50.9419 31.6115 44.1804 44.0553C37.4189 56.499 27.9167 63.8382 22.9486 60.4457Z" fill="white"/>
<path d="M23.4695 0.459355C18.021 1.45782 13.9076 3.9064 14.2792 5.92763C14.5851 7.59437 17.8444 8.45104 22.0313 8.14054C18.9748 8.24951 16.6483 7.50903 16.4048 6.1843C16.0923 4.48146 19.3464 2.45761 23.6724 1.66461C27.9984 0.871609 31.7593 1.60946 32.075 3.31297C32.3205 4.65213 30.3617 6.18824 27.4142 7.16964C31.5118 5.97883 34.3194 3.99765 34.0102 2.31187C33.6321 0.292616 28.9162 -0.537144 23.4695 0.459355Z" fill="white"/>
<path d="M26.029 6.14453C22.4769 6.14453 19.5957 8.85635 19.5957 12.2023C19.5957 14.9594 21.5533 17.2879 24.2309 18.0198C23.106 17.6004 22.1647 16.7982 21.5722 15.754C20.9797 14.7098 20.774 13.4903 20.991 12.3095C21.2081 11.1287 21.8341 10.0621 22.7591 9.29681C23.6842 8.53155 24.8493 8.11655 26.0498 8.12464C27.2504 8.13274 28.4097 8.56342 29.3244 9.34109C30.2391 10.1188 30.8506 11.1937 31.0517 12.3774C31.2528 13.561 31.0306 14.7776 30.4241 15.8137C29.8176 16.8499 28.8656 17.6393 27.7351 18.0434C30.4581 17.3384 32.4616 14.9903 32.4616 12.201C32.4603 8.85635 29.581 6.14453 26.029 6.14453Z" fill="white"/>
</svg>
