<svg width="200" height="48" viewBox="0 0 200 48" fill="none" xmlns="http://www.w3.org/2000/svg">
<defs>
<linearGradient id="paint0_linear_367_92098" x1="1.32885" y1="31.1081" x2="25.1006" y2="27.2661" gradientUnits="userSpaceOnUse">
<stop stop-color="#1D71B8"/>
<stop offset="1" stop-color="#2D2E83"/>
</linearGradient>
<linearGradient id="paint1_linear_367_92098" x1="14717.8" y1="-22700.8" x2="27177.7" y2="-20561.2" gradientUnits="userSpaceOnUse">
<stop stop-color="#1D71B8"/>
<stop offset="1" stop-color="#2D2E83"/>
</linearGradient>
<linearGradient id="paint2_linear_367_92098" x1="2313.88" y1="-6711.44" x2="6890.93" y2="-7548.71" gradientUnits="userSpaceOnUse">
<stop stop-color="#1D71B8"/>
<stop offset="1" stop-color="#2D2E83"/>
</linearGradient>
<linearGradient id="paint3_linear_367_92098" x1="3556.85" y1="-9596.04" x2="5498.55" y2="-9596.04" gradientUnits="userSpaceOnUse">
<stop stop-color="#1D71B8"/>
<stop offset="1" stop-color="#2D2E83"/>
</linearGradient>
</defs>
<path d="M50.3995 21.01L43.8273 38.8617H42.1582L49.3302 19.8755H50.4907L50.3995 21.01ZM56.3718 38.8617L49.7866 21.01L49.6953 19.8755H50.8559L58.0409 38.8617H56.3718ZM55.1982 32.1592V33.5414H45.1183V32.1592H55.1982Z" fill="#1D71B8"/>
<path d="M74.9928 19.8755V38.8617H73.3759L62.4614 22.64V38.8617H60.8575V19.8755H62.4614L73.4019 36.0972V19.8755H74.9928Z" fill="#1D71B8"/>
<path d="M93.5356 29.8381V36.5928C93.3183 36.9144 92.9445 37.2708 92.4142 37.662C91.8839 38.0532 91.171 38.3966 90.2756 38.6922C89.3802 38.9791 88.2675 39.1225 86.9374 39.1225C85.8247 39.1225 84.8032 38.9226 83.873 38.5227C82.9428 38.1228 82.1344 37.5447 81.4476 36.7884C80.7695 36.0234 80.2436 35.1062 79.8698 34.0369C79.5046 32.9677 79.3221 31.768 79.3221 30.4379V28.1429C79.3221 26.8389 79.4916 25.6653 79.8306 24.6221C80.1697 23.5702 80.6608 22.6704 81.3041 21.9228C81.9475 21.1752 82.7212 20.6058 83.6253 20.2146C84.5381 19.8147 85.5595 19.6147 86.6897 19.6147C88.098 19.6147 89.2846 19.8582 90.2496 20.345C91.2145 20.8318 91.9665 21.5012 92.5055 22.3531C93.0532 23.1964 93.3922 24.1527 93.5226 25.2219H91.9187C91.797 24.4656 91.5449 23.7701 91.1624 23.1355C90.7799 22.4922 90.2235 21.975 89.4932 21.5838C88.7717 21.1926 87.8372 20.997 86.6897 20.997C85.7682 20.997 84.9466 21.1665 84.2251 21.5055C83.5122 21.8446 82.9124 22.3271 82.4256 22.953C81.9388 23.5789 81.5693 24.3309 81.3172 25.2089C81.0651 26.0782 80.939 27.0475 80.939 28.1168V30.4379C80.939 31.5507 81.0781 32.5547 81.3563 33.4501C81.6432 34.3455 82.0518 35.1149 82.5821 35.7582C83.1124 36.4015 83.747 36.897 84.4859 37.2448C85.2248 37.5838 86.0463 37.7533 86.9505 37.7533C87.9154 37.7533 88.7369 37.662 89.415 37.4795C90.0931 37.2969 90.6364 37.0796 91.045 36.8275C91.4623 36.5667 91.7622 36.3233 91.9448 36.0972V31.2073H86.8461V29.8381H93.5356Z" fill="#1D71B8"/>
<path d="M109.927 37.4925V38.8617H99.2471V37.4925H109.927ZM99.7296 19.8755V38.8617H98.1257V19.8755H99.7296ZM108.597 28.3906V29.7598H99.2471V28.3906H108.597ZM109.862 19.8755V21.2578H99.2471V19.8755H109.862Z" fill="#1D71B8"/>
<path d="M124.31 37.4925V38.8617H114.465V37.4925H124.31ZM114.934 19.8755V38.8617H113.33V19.8755H114.934Z" fill="#1D71B8"/>
<path d="M22.4121 23.0779C17.2055 13.3351 8.85373 8.21947 3.75938 11.6538C-1.33498 15.0881 -1.23893 25.7641 3.96916 35.507C9.17725 45.2498 17.5275 50.3654 22.6218 46.9311C27.7162 43.4968 27.6201 32.8208 22.4121 23.0779ZM6.38794 33.9207C1.24708 24.3083 0.197677 14.4163 4.04094 11.8262C7.8842 9.23601 15.1653 14.9289 20.3031 24.5413C25.441 34.1538 26.4914 44.0457 22.6476 46.6359C18.8038 49.226 11.5237 43.5332 6.38541 33.9207H6.38794Z" fill="url(#paint0_linear_367_92098)"/>
<path d="M17.6521 46.8138C22.7211 50.2754 31.1067 45.2079 36.3821 35.4953C41.6574 25.7828 41.8247 15.1028 36.7556 11.6417C31.6865 8.18054 23.3009 13.2476 18.0256 22.9601C12.7503 32.6727 12.583 43.3522 17.6521 46.8138ZM17.6263 46.5161C13.8012 43.9042 14.9183 34.0183 20.1249 24.4367C25.3315 14.8551 32.649 9.20265 36.4746 11.8145C40.3001 14.4264 39.182 24.3128 33.9754 33.8949C28.7688 43.4771 21.4518 49.1285 17.6263 46.5161Z" fill="url(#paint1_linear_367_92098)"/>
<path d="M18.0304 0.324768C13.8348 1.09362 10.6674 2.97911 10.9535 4.53552C11.1891 5.81897 13.6988 6.47864 16.9229 6.23954C14.5693 6.32345 12.7778 5.75325 12.5903 4.73317C12.3497 3.42192 14.8554 1.86349 18.1866 1.25285C21.5178 0.642217 24.4138 1.21039 24.6569 2.52214C24.846 3.55335 23.3376 4.7362 21.0679 5.49191C24.2232 4.57495 26.3852 3.04937 26.1471 1.75127C25.8559 0.196373 22.2245 -0.44257 18.0304 0.324768Z" fill="url(#paint2_linear_367_92098)"/>
<path d="M20.0007 4.70215C17.2655 4.70215 15.0469 6.79034 15.0469 9.36683C15.0469 11.4899 16.5543 13.2829 18.6162 13.8465C17.7499 13.5236 17.0251 12.9059 16.5688 12.1018C16.1126 11.2977 15.9542 10.3586 16.1213 9.44939C16.2884 8.54013 16.7705 7.71879 17.4828 7.12951C18.1952 6.54023 19.0923 6.22067 20.0168 6.2269C20.9412 6.23314 21.834 6.56477 22.5383 7.16361C23.2426 7.76244 23.7135 8.59021 23.8684 9.50163C24.0233 10.4131 23.8522 11.3499 23.3851 12.1478C22.9181 12.9456 22.185 13.5535 21.3145 13.8647C23.4113 13.3218 24.954 11.5137 24.954 9.36582C24.953 6.79034 22.7359 4.70215 20.0007 4.70215Z" fill="url(#paint3_linear_367_92098)"/>
<path d="M138.185 32.8638H141.932C141.812 34.2928 141.412 35.567 140.733 36.6863C140.053 37.7955 139.099 38.6699 137.87 39.3095C136.641 39.9491 135.147 40.2689 133.388 40.2689C132.039 40.2689 130.824 40.029 129.745 39.5494C128.666 39.0597 127.741 38.3701 126.972 37.4807C126.202 36.5813 125.613 35.497 125.203 34.2279C124.803 32.9587 124.604 31.5397 124.604 29.9707V28.1569C124.604 26.588 124.808 25.1689 125.218 23.8997C125.638 22.6306 126.237 21.5463 127.017 20.6469C127.796 19.7375 128.731 19.043 129.82 18.5633C130.919 18.0836 132.154 17.8438 133.523 17.8438C135.261 17.8438 136.73 18.1635 137.93 18.8031C139.129 19.4427 140.058 20.3271 140.718 21.4564C141.387 22.5856 141.797 23.8797 141.947 25.3388H138.2C138.1 24.3994 137.88 23.5949 137.54 22.9254C137.21 22.2558 136.72 21.7462 136.071 21.3964C135.421 21.0366 134.572 20.8568 133.523 20.8568C132.663 20.8568 131.914 21.0166 131.274 21.3364C130.635 21.6562 130.1 22.1259 129.67 22.7455C129.24 23.3651 128.916 24.1296 128.696 25.039C128.486 25.9384 128.381 26.9677 128.381 28.1269V29.9707C128.381 31.07 128.476 32.0693 128.666 32.9687C128.866 33.8581 129.165 34.6226 129.565 35.2622C129.975 35.9018 130.495 36.3964 131.124 36.7462C131.754 37.096 132.508 37.2709 133.388 37.2709C134.457 37.2709 135.321 37.101 135.981 36.7612C136.651 36.4214 137.155 35.9268 137.495 35.2772C137.845 34.6176 138.075 33.8132 138.185 32.8638Z" fill="#2D2E83"/>
<path d="M153.849 21.0516L147.328 39.9691H143.386L151.601 18.1436H154.119L153.849 21.0516ZM159.306 39.9691L152.77 21.0516L152.485 18.1436H155.018L163.263 39.9691H159.306ZM158.991 31.8744V34.8575H147.119V31.8744H158.991Z" fill="#2D2E83"/>
<path d="M165.706 18.1436H173.426C175.085 18.1436 176.499 18.3934 177.668 18.8931C178.838 19.3927 179.732 20.1322 180.352 21.1116C180.981 22.0809 181.296 23.2801 181.296 24.7092C181.296 25.7985 181.096 26.7578 180.696 27.5873C180.297 28.4167 179.732 29.1163 179.002 29.6859C178.273 30.2455 177.404 30.6802 176.394 30.99L175.255 31.5447H168.315L168.285 28.5616H173.486C174.386 28.5616 175.135 28.4017 175.735 28.082C176.334 27.7622 176.784 27.3275 177.084 26.7778C177.394 26.2182 177.548 25.5886 177.548 24.8891C177.548 24.1296 177.399 23.47 177.099 22.9104C176.809 22.3408 176.359 21.9061 175.75 21.6063C175.14 21.2965 174.366 21.1416 173.426 21.1416H169.469V39.9691H165.706V18.1436ZM178.163 39.9691L173.036 30.1656L176.979 30.1506L182.18 39.7742V39.9691H178.163Z" fill="#2D2E83"/>
<path d="M199.329 36.9861V39.9691H187.742V36.9861H199.329ZM188.806 18.1436V39.9691H185.043V18.1436H188.806ZM197.815 27.2575V30.1956H187.742V27.2575H197.815ZM199.254 18.1436V21.1416H187.742V18.1436H199.254Z" fill="#2D2E83"/>
</svg>
