<?xml version="1.0" encoding="UTF-8" standalone="no"?>
<svg
   width="20"
   height="21"
   viewBox="0 0 20 21"
   fill="none"
   version="1.1"
   id="svg4"
   sodipodi:docname="lung.svg"
   inkscape:version="1.1 (c68e22c387, 2021-05-23)"
   xmlns:inkscape="http://www.inkscape.org/namespaces/inkscape"
   xmlns:sodipodi="http://sodipodi.sourceforge.net/DTD/sodipodi-0.dtd"
   xmlns="http://www.w3.org/2000/svg"
   xmlns:svg="http://www.w3.org/2000/svg">
  <defs
     id="defs8" />
  <sodipodi:namedview
     id="namedview6"
     pagecolor="#ffffff"
     bordercolor="#666666"
     borderopacity="1.0"
     inkscape:pageshadow="2"
     inkscape:pageopacity="0.0"
     inkscape:pagecheckerboard="0"
     showgrid="false"
     inkscape:zoom="9.5476191"
     inkscape:cx="5.5511222"
     inkscape:cy="14.19202"
     inkscape:window-width="1920"
     inkscape:window-height="991"
     inkscape:window-x="-9"
     inkscape:window-y="-9"
     inkscape:window-maximized="1"
     inkscape:current-layer="svg4" />
  <path
     id="path2"
     style="color:#000000;clip-rule:evenodd;fill:#29b6f6;fill-rule:evenodd;-inkscape-stroke:none"
     d="M 9 0 L 9 4.1816406 C 9 4.4416406 8.9009375 4.6908594 8.7109375 4.8808594 L 8 5.5898438 L 8 3 C 8 2.84 7.960625 2.6810156 7.890625 2.5410156 C 7.630625 2.0510156 6.9992969 1.8513281 6.5292969 2.1113281 C 2.7092969 4.0013281 1.7763568e-15 8.9715148 0 14.771484 C 0 16.671484 0.33 18.550313 1 20.320312 C 1 20.357312 1.0215256 20.394834 1.0410156 20.427734 C 1.0478756 20.439334 1.0553369 20.450537 1.0605469 20.460938 C 1.3205469 20.960938 1.9299219 21.140859 2.4199219 20.880859 L 7.5 18.080078 C 7.79 17.900078 8 17.561172 8 17.201172 L 8 8.4199219 L 9.2890625 7.1210938 C 9.4853325 6.9248237 9.74334 6.826845 10 6.828125 C 10.2567 6.826845 10.514637 6.9248238 10.710938 7.1210938 L 12 8.4199219 L 12 17.201172 C 12 17.561172 12.21 17.900078 12.5 18.080078 L 17.580078 20.880859 C 18.070078 21.140859 18.679453 20.960938 18.939453 20.460938 C 18.944653 20.450537 18.952184 20.439334 18.958984 20.427734 C 18.978484 20.394834 19 20.357314 19 20.320312 C 19.67 18.550313 20 16.671484 20 14.771484 C 20 8.9715148 17.290703 4.0013281 13.470703 2.1113281 C 13.000703 1.8513281 12.369375 2.0510156 12.109375 2.5410156 C 12.039375 2.6810156 12 2.84 12 3 L 12 5.5898438 L 11.289062 4.8808594 C 11.099063 4.6908594 11 4.4416406 11 4.1816406 L 11 0 L 9 0 z M 6 4.8417969 L 6 16.623047 L 2.5175781 18.542969 C 2.1724681 17.325969 2 16.057984 2 14.771484 C 2 10.365584 3.71989 6.7615869 6 4.8417969 z M 14 4.8417969 C 16.2801 6.7615869 18 10.365584 18 14.771484 C 18 16.057984 17.827522 17.325969 17.482422 18.542969 L 14 16.623047 L 14 4.8417969 z " />
  <g
     id="g1342" />
</svg>
