<svg width="220" height="208" viewBox="0 0 220 208" fill="none" xmlns="http://www.w3.org/2000/svg">
<path d="M207.718 78.4207C204.358 72.4391 198.525 67.3119 191.482 66.3758C184.238 65.4157 177.133 68.9586 171.449 73.3608C165.74 77.7633 160.863 83.1493 157.047 89.2654C154.824 92.8467 152.554 97.004 148.372 98.1706C144.436 99.2652 140.298 97.2105 137.124 94.7237C133.951 92.237 131.099 89.203 127.273 87.7868C117.307 84.0951 106.189 92.9475 95.8386 90.3935C86.9237 88.1948 82.656 78.8719 77.116 71.839C67.9659 60.2598 52.0661 53.5676 37.0977 55.9968C22.1292 58.4259 10.7372 83.5862 8.67773 97.9546L213.709 97.8874C212.423 91.2048 211.093 84.3975 207.718 78.4207Z" fill="#EBEBEB"/>
<path d="M47.3906 26.5208C47.573 25.1814 45.6864 24.0821 44.2654 23.9669C43.5871 23.9943 42.9081 23.9363 42.2443 23.794C40.8569 23.314 40.324 21.5137 38.9462 20.9424C37.9333 20.5152 36.7667 20.8944 35.7874 21.3889C34.8081 21.8834 33.8335 22.5075 32.7342 22.5747C31.774 22.6371 30.7419 22.2818 29.9066 22.7475C29.2873 23.0979 28.9465 23.8132 28.3848 24.2357C27.7903 24.6096 27.0995 24.8015 26.3973 24.7878C25.6994 24.7707 25.0044 24.883 24.3474 25.119C24.0216 25.2461 23.7455 25.4751 23.5604 25.7718C23.3753 26.0685 23.291 26.4171 23.3201 26.7656L47.3906 26.5208Z" fill="#F5F5F5"/>
<path d="M111.181 39.2568C111.364 37.9174 109.477 36.818 108.056 36.7028C107.378 36.7303 106.699 36.6722 106.035 36.53C104.648 36.0499 104.115 34.2497 102.737 33.6784C101.724 33.2511 100.557 33.6304 99.578 34.1249C98.5987 34.6193 97.6242 35.2434 96.5248 35.3154C95.5647 35.373 94.5325 35.0226 93.702 35.4883C93.0779 35.8339 92.7419 36.5492 92.1802 36.9765C91.5816 37.3434 90.8899 37.5301 90.1879 37.5141C89.4896 37.4962 88.7941 37.6102 88.1381 37.8502C87.8131 37.977 87.5376 38.2053 87.3526 38.501C87.1675 38.7967 87.0827 39.1443 87.1107 39.492L111.181 39.2568Z" fill="#F5F5F5"/>
<path d="M215.774 38.4696C216.105 36.0692 212.706 34.077 210.148 33.8705C208.928 33.7745 207.666 33.9617 206.509 33.5585C204.007 32.6848 203.009 29.4539 200.565 28.4218C198.741 27.6537 196.643 28.3402 194.872 29.2283C193.1 30.1164 191.353 31.2398 189.38 31.3694C187.661 31.475 185.794 30.8413 184.286 31.6814C183.168 32.3055 182.582 33.6017 181.545 34.3602C180.508 35.1187 179.217 35.2627 177.964 35.3203C176.711 35.3779 175.41 35.4019 174.267 35.9252C173.125 36.4485 172.184 37.6535 172.419 38.8872L215.774 38.4696Z" fill="#EBEBEB"/>
<path d="M117.091 14.5718C117.509 11.5233 113.212 9.0174 109.977 8.75816C108.436 8.63334 106.837 8.86858 105.378 8.3597C102.214 7.25555 100.951 3.17019 97.8645 1.86921C95.5554 0.909076 92.9006 1.7636 90.6635 2.88695C88.4264 4.01031 86.2181 5.4313 83.7073 5.58492C81.5326 5.72414 79.1707 4.91763 77.2696 5.98338C75.8294 6.77069 75.1093 8.38371 73.8036 9.34384C72.4978 10.304 70.8607 10.4864 69.2717 10.5728C67.6827 10.6592 66.0457 10.6736 64.6007 11.3361C63.1557 11.9986 61.9651 13.5252 62.2628 15.0854L117.091 14.5718Z" fill="#EBEBEB"/>
<path d="M0 153.628L1.52661 139.625L88.6251 145.323C90.5133 145.448 92.3787 144.852 93.8457 143.657C95.3127 142.462 96.2725 140.755 96.5317 138.881L102.211 97.7581H121.956L130.496 139.817C130.851 141.567 131.82 143.133 133.229 144.231C134.638 145.329 136.393 145.887 138.177 145.803L220 142.059V156.758L148.158 169C146.478 169.166 144.85 169.671 143.37 170.483C141.89 171.295 140.59 172.398 139.548 173.725C138.505 175.053 137.742 176.577 137.303 178.207C136.865 179.837 136.76 181.539 136.997 183.21L140.357 207.165H89.7148L91.7647 185.231C92.1441 181.18 90.9689 177.135 88.4773 173.918C85.9858 170.701 82.3643 168.552 78.3468 167.905L0 153.628Z" fill="#E0E0E0"/>
<path d="M115.849 135.659H111.072L112.205 115.151L114.279 115.156L115.849 135.659Z" fill="#F5F5F5"/>
<path d="M117.568 182.994H111.072L112.229 157.598L115.782 157.608L117.568 182.994Z" fill="#F5F5F5"/>
<path d="M146.848 158.64L146.387 154.67L171.696 152.457L172.382 155.092L146.848 158.64Z" fill="#F5F5F5"/>
<path d="M198.147 153.182L197.691 149.212L219.995 147.258V150.143L198.147 153.182Z" fill="#F5F5F5"/>
<path d="M81.6109 156.273L82.0718 152.303L56.7627 150.085L56.0762 152.726L81.6109 156.273Z" fill="#F5F5F5"/>
<path d="M25.534 150.086L25.8989 146.917L1.07466 143.749L0.757812 146.643L25.534 150.086Z" fill="#F5F5F5"/>
<path d="M145.025 136.734H140.896V11.5328C140.896 10.9853 141.114 10.4603 141.501 10.0731C141.888 9.68599 142.413 9.46851 142.961 9.46851C143.508 9.46977 144.032 9.68767 144.419 10.0745C144.806 10.4614 145.024 10.9857 145.025 11.5328V136.734Z" fill="#263238"/>
<path d="M123.383 62.1846L134.823 61.1237L163.104 76.3466L161.212 79.8558L157.645 79.8414L160.021 82.0737L157.434 86.8792L129.336 71.7571L123.383 62.1846Z" fill="#1D71B8"/>
<path opacity="0.3" d="M123.383 62.1846L134.823 61.1237L163.104 76.3466L161.212 79.8558L157.645 79.8414L160.021 82.0737L157.434 86.8792L129.336 71.7571L123.383 62.1846Z" fill="black"/>
<path d="M123.034 60.7301L131.108 59.9812C132.017 59.8959 132.931 60.0813 133.734 60.514L160.781 75.0696L158.89 78.5837H155.323L157.699 80.816L155.112 85.6167L128.103 71.0803C127.392 70.6964 126.793 70.1339 126.365 69.4481L122.117 62.5927C122.006 62.4165 121.942 62.2149 121.931 62.0071C121.921 61.7992 121.963 61.5921 122.055 61.4054C122.147 61.2187 122.285 61.0586 122.456 60.9404C122.628 60.8222 122.826 60.7498 123.034 60.7301Z" fill="#1D71B8"/>
<g opacity="0.2">
<path opacity="0.2" d="M153.949 85.0213C153.85 84.6098 153.689 84.2161 153.469 83.8547C152.791 82.9201 151.932 82.1316 150.943 81.536C147.815 79.3449 144.475 77.4729 140.973 75.948C138.923 75.0503 136.906 74.3494 135.092 73.6581C133.471 73.0701 131.886 72.3889 130.344 71.6178C129.305 71.0934 128.315 70.4765 127.387 69.7744C127.055 69.5295 126.82 69.2943 126.652 69.1743C126.564 69.1068 126.483 69.0295 126.412 68.9438C126.412 68.9438 126.777 69.2223 127.444 69.6927C128.387 70.3632 129.384 70.9541 130.425 71.4594C131.971 72.2063 133.556 72.8682 135.173 73.4421C136.988 74.119 139.014 74.8151 141.073 75.7176C144.591 77.2492 147.935 79.1514 151.049 81.392C152.044 82.0074 152.897 82.8252 153.555 83.7923C153.719 84.0669 153.836 84.3671 153.901 84.6804C153.922 84.7605 153.935 84.8426 153.939 84.9253C153.949 84.9925 153.954 85.0213 153.949 85.0213Z" fill="black"/>
<path opacity="0.2" d="M123.993 60.7924C123.868 61.3052 123.855 61.839 123.955 62.3574C124.079 62.962 124.327 63.5343 124.685 64.0376C125.169 64.6962 125.745 65.2829 126.394 65.7802C128.077 67.1028 129.841 68.3197 131.674 69.4239C133.744 70.6817 136.091 71.9395 138.583 73.2117L151.343 79.731C152.951 80.5711 154.266 81.248 155.183 81.7328L156.225 82.2897C156.348 82.3512 156.466 82.4202 156.58 82.4962C156.449 82.4538 156.322 82.3992 156.201 82.3329L155.14 81.8193L151.247 79.899L138.477 73.4181C135.985 72.1411 133.633 70.8738 131.564 69.5776C129.724 68.46 127.96 67.2219 126.283 65.8715C125.627 65.3584 125.05 64.7518 124.569 64.0712C124.211 63.5495 123.969 62.9568 123.859 62.3334C123.787 61.9398 123.787 61.5364 123.859 61.1428C123.893 61.0223 123.938 60.905 123.993 60.7924Z" fill="black"/>
<path opacity="0.2" d="M135.112 66.0201C135.022 65.9138 134.941 65.7997 134.872 65.6793C134.652 65.3458 134.413 65.0252 134.156 64.7191C133.215 63.6159 132.046 62.7298 130.729 62.122C130.299 61.9155 129.848 61.7546 129.384 61.6419C128.894 61.5178 128.378 61.5412 127.901 61.7091C127.652 61.7939 127.428 61.9399 127.251 62.1337C127.073 62.3274 126.946 62.5628 126.883 62.8181C126.832 63.387 127.004 63.9536 127.363 64.3975C128.746 66.3898 130.94 68.0124 133.369 69.3902C133.979 69.7358 134.588 70.0767 135.193 70.3839C135.768 70.7033 136.409 70.8872 137.066 70.9216C137.373 70.9369 137.681 70.8813 137.964 70.7589C138.247 70.6366 138.498 70.4508 138.698 70.2159C139.044 69.7273 139.186 69.1224 139.091 68.5309C138.998 67.9571 138.796 67.4065 138.496 66.9083C138.213 66.4282 137.901 65.9481 137.598 65.5017C137.03 64.6809 136.387 63.9144 135.678 63.2117C134.641 62.1977 133.45 61.3536 132.15 60.7106C131.67 60.485 131.324 60.3265 131.07 60.2305C130.941 60.182 130.816 60.1259 130.695 60.0625C130.829 60.0912 130.961 60.1313 131.089 60.1825C131.464 60.3118 131.833 60.4608 132.193 60.629C133.523 61.2439 134.742 62.0763 135.798 63.0917C136.529 63.7921 137.191 64.5605 137.776 65.3864C138.083 65.8329 138.4 66.2986 138.693 66.8266C139.009 67.3465 139.224 67.9215 139.327 68.5213C139.432 69.177 139.275 69.8477 138.89 70.3887C138.668 70.6524 138.389 70.8618 138.073 71.0008C137.758 71.1398 137.415 71.2046 137.07 71.1904C136.372 71.1623 135.69 70.9716 135.078 70.6336C134.459 70.3215 133.854 69.9807 133.239 69.635C130.796 68.2524 128.573 66.6058 127.171 64.5559C126.788 64.0573 126.616 63.4281 126.691 62.8037C126.763 62.5138 126.907 62.2468 127.109 62.027C127.311 61.8072 127.565 61.6418 127.848 61.5459C128.365 61.3679 128.923 61.3462 129.452 61.4835C129.925 61.5934 130.386 61.7543 130.825 61.9636C132.529 62.7515 133.961 64.0281 134.939 65.6313C135.004 65.7574 135.062 65.8872 135.112 66.0201Z" fill="black"/>
<path opacity="0.2" d="M159.964 76.6681C159.964 76.6921 159.575 76.5048 158.841 76.356C157.793 76.1895 156.725 76.1895 155.677 76.356C154.348 76.5048 152.797 76.9177 150.968 76.9369C150.017 76.9418 149.073 76.7793 148.179 76.4568C147.224 76.1094 146.324 75.6242 145.51 75.0166C143.957 73.8296 142.639 72.3646 141.621 70.696C140.794 69.3437 140.051 67.9426 139.393 66.5003C138.813 65.2809 138.337 64.3016 137.982 63.6199L137.579 62.8518C137.525 62.7662 137.481 62.6743 137.449 62.5781C137.515 62.6553 137.573 62.7389 137.622 62.8278C137.732 62.9958 137.881 63.2454 138.069 63.5719C138.448 64.2295 138.952 65.1993 139.552 66.4091C140.227 67.8329 140.982 69.2176 141.813 70.5568C142.826 72.1921 144.127 73.63 145.654 74.8006C147.176 75.9802 149.038 76.6384 150.963 76.6777C152.73 76.6777 154.324 76.284 155.653 76.1544C156.719 76.0079 157.802 76.0436 158.855 76.26C159.139 76.3246 159.417 76.413 159.686 76.5241C159.785 76.5593 159.878 76.6077 159.964 76.6681Z" fill="black"/>
<path opacity="0.2" d="M150.062 71.8337C149.963 71.8071 149.866 71.7717 149.774 71.7281C149.591 71.6513 149.327 71.5313 148.986 71.3584C148.645 71.1856 148.247 70.9648 147.791 70.6767C147.561 70.5359 147.32 70.3759 147.071 70.1967C146.781 70.0307 146.534 69.7988 146.351 69.5198C146.294 69.4296 146.269 69.3231 146.279 69.2171C146.29 69.111 146.335 69.0115 146.408 68.9341C146.491 68.8691 146.589 68.8254 146.693 68.807C146.797 68.7886 146.903 68.796 147.004 68.8285C147.378 68.9293 147.729 69.0541 148.108 69.1837C148.857 69.4478 149.649 69.7646 150.46 70.1439C151.309 70.5364 152.136 70.9755 152.937 71.4593C153.398 71.691 153.795 72.0322 154.094 72.453C154.176 72.5732 154.23 72.7105 154.251 72.8544C154.272 72.9984 154.26 73.1453 154.216 73.284C154.173 73.4227 154.098 73.5497 153.997 73.6552C153.897 73.7607 153.774 73.8421 153.638 73.8932C153.138 74.0677 152.604 74.1268 152.078 74.066C151.579 74.0417 151.083 73.9775 150.595 73.874C149.669 73.6873 148.774 73.3722 147.935 72.9379C146.746 72.3241 145.693 71.4781 144.837 70.4498C143.981 69.4215 143.34 68.2319 142.952 66.9514C142.865 66.6744 142.796 66.3922 142.745 66.1065C142.721 66.0076 142.708 65.9061 142.707 65.8041C142.731 65.8041 142.808 66.2121 143.048 66.9226C143.385 67.9239 143.87 68.869 144.488 69.7262C145.414 70.9927 146.626 72.0225 148.026 72.7314C148.848 73.1499 149.724 73.4536 150.628 73.634C151.103 73.7311 151.584 73.7921 152.068 73.8164C152.554 73.8755 153.046 73.823 153.509 73.6628C153.614 73.6206 153.708 73.5558 153.786 73.4728C153.863 73.3898 153.921 73.2907 153.955 73.1827C153.985 73.0784 153.991 72.9688 153.974 72.8618C153.956 72.7548 153.915 72.6529 153.854 72.5634C153.578 72.1765 153.212 71.862 152.788 71.6465C151.995 71.1667 151.178 70.7277 150.34 70.3311C149.538 69.9518 148.756 69.6302 148.017 69.371C147.647 69.2365 147.277 69.1021 146.941 69.0109C146.87 68.9844 146.795 68.9749 146.719 68.9832C146.644 68.9916 146.572 69.0175 146.509 69.0589C146.463 69.1082 146.435 69.1716 146.43 69.2387C146.425 69.3059 146.443 69.3728 146.48 69.4286C146.649 69.6869 146.876 69.9023 147.143 70.0575C147.383 70.2399 147.623 70.3983 147.839 70.5375C148.285 70.8304 148.684 71.0656 149.01 71.248C149.337 71.4305 149.596 71.5697 149.774 71.6609C149.877 71.7054 149.974 71.7635 150.062 71.8337Z" fill="black"/>
</g>
<path d="M168.2 50.4709L168.138 50.4181L160.049 45.6174L128.009 43.3755L127.731 47.3504L130.755 49.2707L127.558 49.89L127.174 55.3339L157.188 57.4318C158.365 57.5141 159.543 57.2874 160.606 56.7741L166.544 53.8937C167.792 53.2937 168.2 51.9015 168.2 50.4709Z" fill="#1D71B8"/>
<path opacity="0.3" d="M168.2 50.4709L168.138 50.4181L160.049 45.6174L128.009 43.3755L127.731 47.3504L130.755 49.2707L127.558 49.89L127.174 55.3339L157.188 57.4318C158.365 57.5141 159.543 57.2874 160.606 56.7741L166.544 53.8937C167.097 53.5191 167.541 53.0055 167.831 52.4045C168.122 51.8036 168.249 51.1366 168.2 50.4709Z" fill="black"/>
<path d="M167.722 49.8276L161.298 44.8781C160.576 44.3176 159.704 43.9835 158.792 43.918L128.15 41.7721L127.871 45.7518L130.896 47.6433L127.699 48.2626L127.314 53.7065L157.914 55.8524C158.721 55.9085 159.528 55.7529 160.257 55.4012L167.51 51.8919C167.697 51.8003 167.856 51.6628 167.975 51.4925C168.093 51.3222 168.166 51.1246 168.188 50.9182C168.209 50.7119 168.177 50.5035 168.095 50.3127C168.014 50.122 167.885 49.955 167.722 49.8276Z" fill="#1D71B8"/>
<g opacity="0.2">
<path opacity="0.2" d="M128.594 53.8462C128.594 53.8462 128.594 53.8174 128.642 53.7742C128.691 53.7072 128.745 53.6445 128.805 53.5869C129.029 53.3598 129.289 53.1702 129.573 53.0253C130.646 52.5513 131.808 52.3123 132.982 52.3244C136.811 52.0893 140.654 52.268 144.446 52.8572C146.668 53.1933 148.766 53.6877 150.648 54.0862C152.322 54.4652 154.016 54.7521 155.722 54.9455C156.871 55.0724 158.029 55.1061 159.184 55.0463C160 55.0031 160.451 54.9359 160.456 54.9647C160.349 54.9964 160.24 55.0173 160.129 55.0271C159.812 55.0832 159.491 55.1217 159.169 55.1423C158.01 55.2482 156.843 55.2482 155.684 55.1423C153.969 54.9702 152.265 54.6993 150.581 54.331C148.661 53.9422 146.596 53.4573 144.388 53.1213C140.612 52.543 136.788 52.342 132.972 52.5212C131.822 52.4973 130.679 52.7046 129.611 53.1309C129.237 53.3149 128.894 53.5562 128.594 53.8462Z" fill="black"/>
<path opacity="0.2" d="M166.868 49.3529C166.848 49.4892 166.812 49.6228 166.763 49.7514C166.618 50.1243 166.407 50.4677 166.138 50.7643C165.709 51.2297 165.188 51.6008 164.607 51.8541C163.84 52.1705 163.032 52.3742 162.207 52.4589C160.067 52.7055 157.913 52.8081 155.759 52.7662C153.335 52.7374 150.671 52.5549 147.882 52.2861L133.619 50.9083L129.298 50.4571L128.122 50.3226C127.986 50.3133 127.851 50.2924 127.719 50.2602C127.854 50.2475 127.991 50.2475 128.127 50.2602L129.308 50.3466L133.628 50.7163L147.901 52.0221C150.685 52.2765 153.34 52.4637 155.759 52.5021C157.902 52.556 160.046 52.4727 162.178 52.2525C163 52.1793 163.809 51.9902 164.578 51.6908C165.149 51.4577 165.664 51.1078 166.09 50.6635C166.438 50.2857 166.703 49.8393 166.868 49.3529Z" fill="black"/>
<path opacity="0.2" d="M154.672 47.831C154.787 47.7545 154.907 47.6855 155.032 47.6246C155.389 47.4513 155.756 47.2991 156.131 47.1685C157.52 46.6999 158.996 46.5474 160.452 46.722C160.941 46.775 161.424 46.8796 161.892 47.0341C162.413 47.1993 162.874 47.515 163.217 47.9414C163.405 48.1742 163.531 48.4507 163.584 48.7452C163.637 49.0397 163.615 49.3428 163.519 49.6264C163.245 50.1932 162.759 50.6294 162.166 50.841C159.88 51.8011 157.125 52.0268 154.316 51.8875C153.611 51.8539 152.919 51.8203 152.233 51.7531C151.537 51.7125 150.861 51.5121 150.255 51.1674C149.956 50.9958 149.7 50.7575 149.508 50.4711C149.316 50.1848 149.192 49.8579 149.146 49.516C149.111 48.8537 149.337 48.2039 149.775 47.7062C150.181 47.2527 150.67 46.8811 151.215 46.6116C151.729 46.3428 152.243 46.1315 152.747 45.9011C153.677 45.5167 154.641 45.221 155.627 45.0178C157.063 44.7221 158.538 44.6702 159.991 44.8642C160.385 44.9122 160.776 44.9827 161.162 45.0754C161.3 45.1004 161.435 45.1374 161.565 45.1858C161.427 45.1733 161.289 45.1524 161.153 45.1234C160.889 45.0754 160.49 45.013 159.981 44.9602C158.538 44.8082 157.08 44.8859 155.661 45.1906C154.685 45.4041 153.73 45.7062 152.809 46.0931C152.329 46.3092 151.801 46.5396 151.297 46.8036C150.779 47.065 150.315 47.4217 149.929 47.855C149.532 48.3052 149.327 48.8927 149.357 49.492C149.401 49.798 149.515 50.0897 149.689 50.3445C149.864 50.5993 150.096 50.8103 150.366 50.961C150.938 51.2831 151.577 51.4702 152.233 51.5083C152.91 51.5707 153.606 51.6043 154.307 51.6379C157.096 51.7771 159.818 51.5755 162.046 50.6298C162.585 50.4458 163.031 50.0581 163.289 49.5496C163.374 49.3002 163.394 49.0333 163.348 48.7739C163.302 48.5145 163.191 48.2711 163.025 48.0662C162.711 47.669 162.287 47.3734 161.806 47.2165C161.356 47.0598 160.891 46.9535 160.418 46.8997C158.98 46.7078 157.517 46.8307 156.131 47.2597C155.651 47.4133 155.277 47.5717 155.027 47.6726C154.913 47.7346 154.794 47.7875 154.672 47.831Z" fill="black"/>
<path opacity="0.2" d="M127.973 43.5681C128.074 43.5648 128.176 43.5745 128.275 43.5969C128.563 43.6447 128.846 43.7186 129.12 43.8178C130.125 44.1964 131.059 44.7435 131.88 45.4356C132.951 46.2661 134.074 47.4375 135.567 48.388C137.216 49.3834 139.142 49.821 141.059 49.6362C142.984 49.4678 144.861 48.9488 146.599 48.1048C148.017 47.416 149.396 46.6483 150.728 45.8052C151.88 45.1043 152.826 44.5523 153.493 44.2018C153.829 44.0242 154.093 43.8946 154.271 43.813C154.36 43.7616 154.455 43.7213 154.554 43.693C154.474 43.7569 154.387 43.8116 154.295 43.8562L153.541 44.2882C152.888 44.6627 151.962 45.2484 150.824 45.9589C149.498 46.825 148.121 47.6105 146.7 48.3112C144.946 49.179 143.047 49.7129 141.098 49.8858C140.086 49.9628 139.068 49.89 138.078 49.6698C137.152 49.4642 136.27 49.097 135.471 48.5848C133.949 47.6247 132.841 46.4149 131.794 45.5748C130.994 44.8796 130.088 44.3172 129.11 43.909C128.738 43.7746 128.358 43.6608 127.973 43.5681Z" fill="black"/>
<path opacity="0.2" d="M138.919 44.768C139.02 44.7585 139.121 44.7585 139.222 44.768C139.419 44.768 139.702 44.8113 140.086 44.8305C140.47 44.8497 140.921 44.8641 141.454 44.8545C141.723 44.8545 142.006 44.8545 142.309 44.8161C142.616 44.822 142.921 44.7597 143.201 44.6336C143.263 44.6073 143.314 44.5605 143.346 44.5011C143.377 44.4416 143.387 44.3732 143.374 44.3072C143.346 44.1824 143.201 44.0912 143.038 44.0335C142.702 43.9327 142.318 43.8511 141.939 43.7647C141.166 43.5967 140.335 43.4527 139.452 43.3423C138.569 43.2318 137.642 43.1694 136.677 43.1502C136.205 43.1021 135.729 43.1714 135.29 43.3519C135.19 43.3969 135.101 43.4631 135.028 43.546C134.956 43.6289 134.903 43.7264 134.872 43.8319C134.847 43.9399 134.846 44.052 134.868 44.1606C134.891 44.2691 134.936 44.3715 135.002 44.4608C135.309 44.8421 135.698 45.149 136.14 45.3585C136.564 45.5998 137.007 45.8069 137.465 45.9778C138.325 46.3088 139.226 46.5219 140.143 46.6115C141.706 46.7574 143.282 46.5337 144.743 45.9586C145.727 45.5684 146.646 45.031 147.469 44.3648C148.055 43.8847 148.338 43.5871 148.353 43.6015C148.367 43.6159 148.295 43.6879 148.161 43.8367C147.973 44.0597 147.773 44.2713 147.56 44.4704C146.55 45.3474 145.374 46.0119 144.101 46.4243C142.828 46.8367 141.486 46.9886 140.153 46.8707C139.212 46.7873 138.286 46.5757 137.402 46.2419C136.935 46.0672 136.482 45.8553 136.048 45.6082C135.571 45.3883 135.152 45.0594 134.824 44.648C134.739 44.5296 134.68 44.394 134.652 44.2506C134.624 44.1073 134.627 43.9595 134.661 43.8175C134.701 43.6793 134.771 43.5515 134.866 43.4429C134.96 43.3343 135.077 43.2476 135.208 43.1886C135.683 42.9908 136.199 42.9133 136.711 42.963C137.647 42.9822 138.581 43.0527 139.51 43.1742C140.398 43.2894 141.238 43.4431 142.011 43.6207C142.405 43.7119 142.765 43.7935 143.134 43.9087C143.236 43.9357 143.33 43.9869 143.408 44.0579C143.485 44.129 143.545 44.2178 143.581 44.3168C143.602 44.4211 143.588 44.5296 143.541 44.6252C143.495 44.7208 143.417 44.7981 143.322 44.8449C143.02 44.9795 142.692 45.0436 142.361 45.0321C142.054 45.0321 141.766 45.0321 141.497 45.0321C140.96 45.0321 140.499 44.9985 140.124 44.9649C139.75 44.9313 139.457 44.8929 139.26 44.8593C139.143 44.8459 139.028 44.8151 138.919 44.768Z" fill="black"/>
</g>
<path d="M122.402 29.0457L132.196 35.0562L164.288 33.904L164.149 29.9195L160.942 28.3496L164.058 27.3991L163.861 21.9456L131.975 23.0881L122.402 29.0457Z" fill="#1D71B8"/>
<path opacity="0.3" d="M122.402 29.0457L132.196 35.0562L164.288 33.904L164.149 29.9195L160.942 28.3496L164.058 27.3991L163.861 21.9456L131.975 23.0881L122.402 29.0457Z" fill="black"/>
<path d="M121.443 30.1978L128.356 34.4368C129.133 34.9159 130.036 35.1531 130.948 35.1185L161.644 34.0192L161.5 30.0346L158.293 28.4696L161.409 27.5095L161.217 22.0559L130.564 23.1601C129.755 23.1883 128.967 23.4284 128.279 23.8562L121.438 28.1143C121.261 28.2244 121.114 28.378 121.013 28.5606C120.912 28.7432 120.859 28.9486 120.859 29.1574C120.86 29.3662 120.914 29.5714 121.016 29.7535C121.118 29.9356 121.265 30.0886 121.443 30.1978Z" fill="#1D71B8"/>
<g opacity="0.2">
<path opacity="0.2" d="M159.918 22.0701C159.908 22.098 159.893 22.124 159.874 22.1469C159.834 22.2179 159.787 22.2854 159.735 22.3485C159.535 22.5981 159.297 22.8151 159.03 22.9918C158.012 23.5725 156.883 23.9324 155.717 24.0479C151.933 24.6846 148.091 24.9131 144.258 24.7296C142.011 24.6288 139.889 24.3552 137.959 24.1584C136.254 23.9567 134.54 23.8461 132.823 23.8271C131.667 23.8213 130.513 23.9096 129.371 24.0912C128.565 24.2208 128.123 24.336 128.113 24.3072C128.217 24.2694 128.323 24.2373 128.43 24.2112C128.641 24.1584 128.949 24.0671 129.352 23.9951C130.496 23.7763 131.658 23.6606 132.823 23.6495C134.547 23.6386 136.27 23.7268 137.983 23.9135C139.904 24.1008 142.035 24.3648 144.268 24.4656C148.085 24.6439 151.911 24.4396 155.688 23.8559C156.838 23.7585 157.956 23.4321 158.977 22.8958C159.33 22.6687 159.647 22.3904 159.918 22.0701Z" fill="black"/>
<path opacity="0.2" d="M122.328 30.5818C122.332 30.4437 122.353 30.3066 122.391 30.1737C122.494 29.7882 122.668 29.4252 122.904 29.1032C123.28 28.5929 123.759 28.1676 124.311 27.855C125.045 27.458 125.832 27.1686 126.649 26.9957C128.749 26.5369 130.877 26.2162 133.019 26.0356C135.42 25.8099 138.108 25.7091 140.907 25.6659L155.241 25.5075H159.586H160.767C160.904 25.4962 161.043 25.4962 161.18 25.5075C161.043 25.5298 160.905 25.541 160.767 25.5411L159.586 25.5747L155.265 25.6659L140.936 25.8723C138.137 25.9155 135.477 26.0068 133.067 26.2228C130.922 26.4109 128.792 26.7331 126.687 27.1877C125.883 27.3483 125.106 27.6214 124.378 27.999C123.836 28.2917 123.36 28.6939 122.981 29.18C122.666 29.5957 122.444 30.0735 122.328 30.5818Z" fill="black"/>
<path opacity="0.2" d="M134.598 30.7879C134.494 30.8796 134.382 30.9615 134.262 31.0327C133.927 31.2463 133.577 31.4371 133.216 31.604C131.88 32.2204 130.423 32.5288 128.953 32.5066C128.469 32.5027 127.986 32.4496 127.513 32.3481C126.979 32.2384 126.489 31.9728 126.106 31.5848C125.894 31.3727 125.739 31.1107 125.655 30.8229C125.571 30.5352 125.561 30.2309 125.626 29.9382C125.84 29.346 126.278 28.8616 126.845 28.5892C129.01 27.3746 131.732 26.8802 134.526 26.717C135.232 26.6785 135.923 26.6401 136.615 26.6305C137.31 26.5988 138.004 26.7286 138.641 27.0098C138.957 27.1483 139.236 27.3576 139.459 27.6214C139.681 27.8853 139.84 28.1967 139.922 28.5316C140.027 29.1873 139.87 29.8578 139.485 30.3991C139.128 30.8919 138.68 31.3122 138.165 31.6376C137.685 31.9641 137.205 32.2425 136.725 32.5066C135.836 32.9888 134.904 33.3858 133.941 33.6923C132.544 34.1349 131.084 34.3425 129.62 34.3068C129.224 34.2995 128.828 34.2707 128.434 34.2204C128.296 34.2116 128.16 34.1891 128.026 34.1532C128.164 34.1436 128.302 34.1436 128.439 34.1532C128.708 34.1532 129.106 34.1964 129.62 34.1964C131.07 34.1929 132.51 33.9612 133.888 33.5099C134.837 33.1972 135.755 32.7954 136.629 32.3097C137.109 32.0457 137.589 31.7624 138.069 31.4408C138.559 31.1295 138.984 30.727 139.322 30.255C139.667 29.7639 139.808 29.1582 139.716 28.5652C139.64 28.266 139.496 27.9884 139.295 27.7537C139.094 27.5189 138.843 27.3334 138.559 27.2114C137.954 26.9513 137.297 26.8331 136.639 26.8658C135.962 26.8658 135.266 26.9138 134.565 26.9522C131.776 27.1154 129.092 27.6003 126.975 28.7764C126.456 29.0139 126.052 29.4471 125.852 29.9814C125.796 30.2376 125.805 30.5038 125.879 30.7554C125.953 31.0071 126.089 31.2362 126.274 31.4216C126.628 31.784 127.08 32.0344 127.575 32.1417C128.038 32.2485 128.511 32.3048 128.986 32.3097C130.437 32.3464 131.878 32.0696 133.211 31.4984C133.572 31.3412 133.925 31.1649 134.267 30.9703C134.374 30.9027 134.484 30.8418 134.598 30.7879Z" fill="black"/>
<path opacity="0.2" d="M161.616 32.2285C161.516 32.2379 161.414 32.2379 161.314 32.2285C161.022 32.2112 160.733 32.1678 160.45 32.0988C159.409 31.8275 158.422 31.3811 157.531 30.7787C156.379 30.0682 155.131 29.0216 153.556 28.2343C151.811 27.4186 149.85 27.1863 147.963 27.5718C146.076 27.9461 144.272 28.6602 142.639 29.6793C141.301 30.5142 140.011 31.4229 138.775 32.4013C137.704 33.2222 136.821 33.8703 136.192 34.2879C135.88 34.4992 135.63 34.6576 135.462 34.768C135.378 34.8263 135.288 34.8761 135.193 34.9168C135.267 34.845 135.347 34.7807 135.433 34.7248L136.139 34.2159C136.749 33.7743 137.608 33.107 138.664 32.2717C139.888 31.2692 141.17 30.341 142.505 29.4921C144.157 28.4465 145.988 27.7157 147.906 27.3366C148.904 27.1512 149.925 27.1156 150.935 27.231C151.877 27.3409 152.793 27.6138 153.642 28.0375C155.255 28.8536 156.484 29.9193 157.612 30.6394C158.489 31.2369 159.455 31.6921 160.474 31.9884C161.199 32.1996 161.621 32.1996 161.616 32.2285Z" fill="black"/>
<path opacity="0.2" d="M150.594 32.1897C150.494 32.1959 150.393 32.1959 150.292 32.1897C150.095 32.1897 149.812 32.1897 149.428 32.2186C149.044 32.2474 148.593 32.2762 148.065 32.3434C147.8 32.377 147.517 32.4202 147.22 32.473C146.913 32.4965 146.616 32.5902 146.351 32.7466C146.292 32.7789 146.246 32.8304 146.221 32.8924C146.195 32.9545 146.192 33.0233 146.211 33.0875C146.25 33.1526 146.302 33.2078 146.366 33.2487C146.429 33.2896 146.501 33.3149 146.576 33.3227C146.917 33.3899 147.311 33.4331 147.7 33.4763C148.482 33.5627 149.327 33.6203 150.21 33.6299C151.14 33.647 152.069 33.6149 152.995 33.5339C153.469 33.5293 153.935 33.4107 154.353 33.1883C154.448 33.1328 154.529 33.0579 154.592 32.9684C154.655 32.879 154.698 32.7772 154.718 32.6698C154.73 32.5601 154.719 32.449 154.685 32.3439C154.651 32.2388 154.595 32.1421 154.521 32.0601C154.177 31.7132 153.759 31.4489 153.297 31.2872C152.85 31.0916 152.387 30.9311 151.915 30.8072C151.024 30.5702 150.105 30.4539 149.183 30.4615C147.613 30.4794 146.07 30.8693 144.68 31.5993C143.742 32.0884 142.884 32.7182 142.136 33.4667C141.608 33.9996 141.353 34.3356 141.334 34.3212C141.384 34.2313 141.442 34.1462 141.507 34.0668C141.679 33.8335 141.865 33.6107 142.064 33.3995C142.978 32.4228 144.078 31.6392 145.3 31.0949C146.522 30.5507 147.841 30.257 149.178 30.2311C150.122 30.2152 151.064 30.3283 151.977 30.5671C152.461 30.6911 152.934 30.8516 153.393 31.0472C153.893 31.2232 154.344 31.5124 154.713 31.8921C154.811 32.0003 154.884 32.1285 154.927 32.2678C154.97 32.4071 154.983 32.5541 154.963 32.6986C154.94 32.8419 154.885 32.9781 154.802 33.097C154.719 33.2159 154.61 33.3144 154.483 33.3851C154.03 33.63 153.524 33.7617 153.009 33.7692C152.077 33.848 151.141 33.8753 150.206 33.8508C149.308 33.8508 148.458 33.7692 147.671 33.6732C147.272 33.6203 146.903 33.5771 146.524 33.5003C146.421 33.484 146.324 33.4431 146.24 33.3813C146.157 33.3195 146.089 33.2385 146.043 33.1451C146.012 33.0432 146.015 32.9336 146.052 32.8336C146.089 32.7336 146.159 32.649 146.25 32.593C146.542 32.4217 146.872 32.3229 147.21 32.305C147.508 32.257 147.796 32.2234 148.065 32.1945C148.597 32.1417 149.058 32.1177 149.438 32.1129C149.817 32.1081 150.11 32.1129 150.306 32.1129C150.406 32.1248 150.503 32.1507 150.594 32.1897Z" fill="black"/>
</g>
<path d="M205.503 97.758C205.503 97.8252 163.603 97.8828 111.929 97.8828C60.2546 97.8828 18.3496 97.8012 18.3496 97.758C18.3496 97.7148 60.2402 97.6332 111.929 97.6332C163.618 97.6332 205.503 97.662 205.503 97.758Z" fill="#263238"/>
<path d="M23.299 176.196C23.2558 176.196 23.083 175.486 22.7325 174.348C22.2726 172.868 21.7046 171.424 21.0331 170.027C20.3588 168.631 19.5822 167.286 18.7096 166.004C18.0375 165.02 17.5814 164.434 17.615 164.41C17.749 164.521 17.8698 164.647 17.9751 164.785C18.1959 165.039 18.4983 165.419 18.8536 165.903C19.7727 167.168 20.5761 168.513 21.2539 169.922C21.9349 171.329 22.4845 172.796 22.8958 174.305C23.0542 174.885 23.1646 175.356 23.2222 175.687C23.267 175.853 23.2928 176.024 23.299 176.196Z" fill="#263238"/>
<path d="M26.459 178.265C26.3966 178.265 25.182 174.252 23.7562 169.259C22.3304 164.266 21.2262 160.2 21.2983 160.167C21.3703 160.133 22.5752 164.18 24.001 169.173C25.4268 174.165 26.5262 178.246 26.459 178.265Z" fill="#263238"/>
<path d="M29.0392 167.444C29.0106 167.992 28.9481 168.537 28.852 169.077C28.7223 170.08 28.5735 171.477 28.4919 173.013C28.4103 174.549 28.4055 175.951 28.4295 176.964C28.4593 177.511 28.4593 178.059 28.4295 178.606C28.3785 178.466 28.3509 178.318 28.3479 178.169C28.3095 177.886 28.2759 177.478 28.2423 176.969C28.164 175.647 28.164 174.321 28.2423 172.999C28.3117 171.676 28.4576 170.359 28.6791 169.053C28.7655 168.549 28.8472 168.145 28.9144 167.872C28.9378 167.725 28.9798 167.581 29.0392 167.444Z" fill="#263238"/>
<path d="M166.024 85.0891C166.091 85.0891 166.96 87.8879 167.944 91.3828C168.928 94.8777 169.711 97.7293 169.648 97.7485C169.586 97.7677 168.712 94.9497 167.704 91.4548C166.696 87.9599 165.957 85.1083 166.024 85.0891Z" fill="#263238"/>
<path d="M171.726 85.9822C171.765 85.9822 171.582 86.6351 171.376 87.6912C171.103 89.0617 170.943 90.4521 170.896 91.8486C170.856 93.2446 170.932 94.6415 171.121 96.0252C171.266 97.0909 171.41 97.739 171.366 97.7486C171.299 97.6068 171.25 97.4567 171.222 97.3021C171.11 96.8911 171.018 96.4745 170.949 96.054C170.46 93.2655 170.546 90.4065 171.203 87.6528C171.297 87.2359 171.412 86.8241 171.549 86.419C171.584 86.2648 171.644 86.1173 171.726 85.9822Z" fill="#263238"/>
<path d="M175.275 88.224C175.308 88.248 174.977 88.704 174.521 89.5297C173.931 90.5809 173.448 91.6891 173.081 92.8374C172.725 93.9894 172.491 95.1751 172.38 96.3755C172.293 97.302 172.298 97.8781 172.255 97.8781C172.216 97.7473 172.198 97.6112 172.202 97.4748C172.183 97.1055 172.183 96.7353 172.202 96.3659C172.328 93.9118 173.071 91.5292 174.362 89.4385C174.557 89.1235 174.769 88.819 174.996 88.5264C175.164 88.3248 175.26 88.2144 175.275 88.224Z" fill="#263238"/>
<path d="M143.921 131.002C143.666 130.042 144.31 129.034 145.034 128.324C145.759 127.613 146.619 126.97 146.993 126.029C147.603 124.498 146.787 122.52 147.824 121.228C148.433 120.479 149.533 120.23 150.075 119.428C150.323 118.982 150.486 118.494 150.555 117.988C151.133 115.449 152.382 113.111 154.17 111.219C154.285 113.483 153.787 115.737 152.73 117.743C152.238 118.502 151.875 119.338 151.655 120.215C151.424 121.656 152.235 123.168 151.88 124.589C151.472 126.221 149.638 127.311 149.552 128.991C149.48 130.431 150.718 131.655 150.627 133.071C150.551 133.675 150.334 134.252 149.993 134.757C148.894 136.581 147.286 137.839 144.842 137.795L141.852 137.901L143.921 131.002Z" fill="#1D71B8"/>
<g opacity="0.3">
<path opacity="0.3" d="M143.923 131.003C143.668 130.043 144.311 129.035 145.036 128.324C145.761 127.614 146.621 126.97 146.995 126.029C147.605 124.498 146.789 122.52 147.826 121.229C148.435 120.48 149.535 120.23 150.077 119.428C150.325 118.982 150.488 118.494 150.557 117.988C151.135 115.449 152.383 113.112 154.172 111.219C154.287 113.484 153.789 115.738 152.732 117.743C152.24 118.503 151.877 119.338 151.656 120.216C151.426 121.656 152.237 123.168 151.882 124.589C151.474 126.221 149.64 127.311 149.554 128.991C149.482 130.432 150.72 131.656 150.629 133.072C150.553 133.676 150.336 134.253 149.995 134.757C148.896 136.581 147.288 137.839 144.844 137.796L141.854 137.901L143.923 131.003Z" fill="black"/>
</g>
<path d="M141.271 138.007C140.999 138.054 140.721 138.054 140.45 138.007C140.123 137.955 139.801 137.873 139.49 137.762C139.057 137.608 138.652 137.386 138.29 137.104C138.078 136.926 137.913 136.699 137.809 136.442C137.721 136.153 137.674 135.852 137.67 135.549C137.662 135.228 137.638 134.908 137.598 134.589C137.541 134.248 137.417 133.921 137.233 133.629C136.883 133.009 136.297 132.424 136.105 131.584C135.961 130.711 135.988 129.819 136.187 128.958C136.404 128.031 136.381 127.064 136.12 126.149C135.798 125.213 135.159 124.368 134.814 123.312C134.468 122.256 134.636 121.099 134.569 119.952C134.548 119.378 134.416 118.814 134.18 118.291C133.935 117.758 133.599 117.258 133.34 116.702C132.807 115.573 132.716 114.301 132.567 113.048C132.5 112.415 132.428 111.776 132.356 111.128C132.312 110.478 132.199 109.834 132.02 109.208C131.819 108.576 131.58 107.958 131.305 107.355C131.163 107.045 131.048 106.724 130.959 106.395C130.908 106.054 130.876 105.711 130.863 105.367C130.831 104.677 130.857 103.985 130.94 103.298C131.021 102.607 131.146 101.92 131.223 101.229V101.109V100.97L131.343 101.032C131.977 101.356 132.529 101.821 132.956 102.391C133.37 102.949 133.703 103.564 133.945 104.215C134.373 105.492 134.685 106.804 134.876 108.137C135.065 109.406 135.481 110.631 136.105 111.752C136.432 112.285 136.83 112.775 137.176 113.293C137.549 113.798 137.803 114.381 137.92 114.997C138.097 116.265 137.401 117.374 137.545 118.497C137.615 119.047 137.801 119.576 138.093 120.048C138.362 120.528 138.683 120.969 138.986 121.416C139.295 121.851 139.563 122.314 139.787 122.798C139.998 123.272 140.123 123.779 140.157 124.296C140.229 125.304 140.085 126.265 140.157 127.177C140.236 128.037 140.486 128.872 140.891 129.635C141.256 130.374 141.66 131.036 141.996 131.684C142.164 132.006 142.322 132.323 142.447 132.645C142.568 132.955 142.656 133.276 142.711 133.605C142.802 134.17 142.81 134.746 142.735 135.314C142.657 136.106 142.36 136.861 141.876 137.493C141.803 137.588 141.723 137.676 141.636 137.757C141.576 137.818 141.51 137.873 141.439 137.921C141.328 138.002 141.266 138.041 141.266 138.041C141.483 137.875 141.678 137.683 141.847 137.469C142.309 136.835 142.589 136.086 142.658 135.304C142.726 134.745 142.713 134.179 142.62 133.624C142.565 133.307 142.476 132.996 142.356 132.697C142.221 132.369 142.069 132.049 141.9 131.737C141.559 131.099 141.156 130.436 140.786 129.697C140.367 128.921 140.106 128.069 140.018 127.191C139.941 126.269 140.08 125.309 140.018 124.311C139.985 123.813 139.863 123.325 139.658 122.87C139.436 122.395 139.17 121.941 138.861 121.517C138.558 121.075 138.237 120.629 137.958 120.139C137.656 119.648 137.461 119.098 137.387 118.526C137.243 117.331 137.934 116.212 137.757 115.036C137.641 114.445 137.395 113.887 137.037 113.404C136.696 112.895 136.297 112.405 135.961 111.858C135.321 110.719 134.894 109.473 134.703 108.18C134.51 106.861 134.2 105.561 133.777 104.297C133.542 103.662 133.219 103.064 132.817 102.52C132.41 101.973 131.883 101.526 131.276 101.215L131.41 101.138V101.258C131.333 101.959 131.209 102.645 131.127 103.327C131.044 104.004 131.018 104.686 131.05 105.367C131.063 105.701 131.093 106.035 131.141 106.366C131.226 106.685 131.339 106.997 131.477 107.297C131.752 107.907 131.992 108.532 132.197 109.169C132.377 109.806 132.489 110.459 132.534 111.118C132.606 111.762 132.678 112.4 132.745 113.039C132.889 114.296 132.985 115.554 133.494 116.644C133.748 117.182 134.084 117.686 134.334 118.233C134.577 118.776 134.712 119.362 134.732 119.956C134.799 121.109 134.646 122.237 134.958 123.259C135.27 124.282 135.918 125.127 136.254 126.097C136.521 127.035 136.543 128.027 136.316 128.977C136.119 129.82 136.086 130.694 136.22 131.55C136.393 132.352 136.96 132.933 137.32 133.571C137.506 133.877 137.633 134.216 137.694 134.57C137.732 134.888 137.753 135.209 137.757 135.53C137.757 135.826 137.799 136.12 137.881 136.404C137.989 136.649 138.153 136.865 138.362 137.032C138.714 137.314 139.109 137.536 139.533 137.69C139.844 137.807 140.166 137.895 140.493 137.954C140.694 137.989 140.898 138.009 141.103 138.012L141.271 138.007Z" fill="#263238"/>
<path d="M131.818 102.756C131.833 102.784 131.843 102.815 131.847 102.847C131.847 102.919 131.886 103.01 131.914 103.116C131.972 103.351 132.044 103.711 132.154 104.153C132.265 104.594 132.543 105.113 132.774 105.718C133.05 106.412 133.289 107.12 133.489 107.84C133.715 108.636 133.916 109.525 134.127 110.47C134.311 111.485 134.634 112.468 135.088 113.394C135.332 113.874 135.606 114.354 135.827 114.911C136.042 115.464 136.187 116.041 136.259 116.63C136.41 117.846 136.625 119.055 136.902 120.249C137.502 122.698 138.074 125.05 138.597 127.162L140.037 132.798C140.431 134.397 140.752 135.679 140.997 136.605C141.103 137.047 141.184 137.392 141.242 137.642L141.3 137.916C141.3 137.973 141.3 138.007 141.3 138.007C141.287 137.979 141.275 137.95 141.266 137.92L141.189 137.652C141.122 137.402 141.031 137.061 140.911 136.624L139.912 132.832C139.495 131.228 139 129.322 138.472 127.205C137.944 125.088 137.368 122.741 136.763 120.288C136.483 119.089 136.268 117.876 136.12 116.654C136.053 116.08 135.915 115.517 135.707 114.978C135.496 114.455 135.227 113.965 134.977 113.475C134.521 112.536 134.197 111.538 134.017 110.509C133.811 109.549 133.619 108.67 133.398 107.873C133.177 107.076 132.951 106.371 132.721 105.756C132.49 105.142 132.241 104.633 132.126 104.172C132.01 103.711 131.967 103.365 131.919 103.125C131.919 103.015 131.886 102.924 131.871 102.852C131.848 102.823 131.83 102.791 131.818 102.756Z" fill="#263238"/>
<path d="M140.741 138.016C138.787 136.854 138.226 133.331 139.042 131.209C139.858 129.087 141.284 127.143 141.505 124.882C141.673 123.144 141.106 121.358 141.505 119.658C142.052 117.364 144.294 115.583 144.265 113.226C144.265 111.901 143.497 110.657 143.559 109.337C143.631 107.714 144.875 106.428 145.648 105.016C146.829 102.832 146.905 100.245 147.309 97.8154C147.712 95.3863 148.648 92.7363 150.818 91.5314C151.14 93.6101 151.687 95.0359 151.519 97.8586C151.456 98.8716 150.28 100.811 150.117 103.029C150.021 104.354 149.959 105.684 149.877 107.014C149.862 108.309 149.65 109.594 149.248 110.825C148.893 111.752 148.326 112.597 148.062 113.552C147.582 115.352 148.216 117.297 147.817 119.121C147.477 120.667 146.411 122.001 146.19 123.561C145.883 125.76 147.309 128.045 146.579 130.143C146.219 131.185 145.36 132.02 145.139 133.096C144.947 133.931 145.139 134.814 144.98 135.654C144.707 137.003 142.134 138.055 140.756 137.968" fill="#1D71B8"/>
<path d="M150.284 93.5574C150.289 93.5972 150.289 93.6376 150.284 93.6774C150.284 93.7638 150.26 93.8742 150.241 94.0182C150.197 94.3207 150.145 94.7623 150.044 95.3288C149.943 95.8953 149.641 96.553 149.405 97.3307C149.17 98.1084 148.925 99.0013 148.685 100.005C148.445 101.008 148.277 102.122 148.08 103.312C147.923 104.599 147.587 105.858 147.082 107.052C146.803 107.676 146.496 108.305 146.266 108.972C146.042 109.657 145.903 110.366 145.853 111.085C145.743 112.612 145.553 114.133 145.281 115.64C144.681 118.722 144.115 121.66 143.592 124.334C143.068 127.008 142.555 129.399 142.151 131.42C141.748 133.441 141.393 135.05 141.158 136.192C141.038 136.744 140.942 137.176 140.874 137.483C140.846 137.623 140.817 137.733 140.798 137.819C140.791 137.859 140.78 137.898 140.764 137.935C140.761 137.896 140.761 137.858 140.764 137.819C140.764 137.728 140.798 137.618 140.822 137.479C140.884 137.167 140.966 136.73 141.067 136.173C141.292 135.03 141.614 133.403 142.027 131.372C142.44 129.342 142.905 126.946 143.438 124.282C143.971 121.617 144.518 118.67 145.113 115.588C145.385 114.087 145.575 112.572 145.685 111.051C145.738 110.318 145.881 109.594 146.112 108.895C146.352 108.214 146.664 107.585 146.938 106.975C147.443 105.798 147.781 104.555 147.941 103.284C148.147 102.088 148.34 100.979 148.575 99.9711C148.778 99.0662 149.026 98.1722 149.319 97.2923C149.568 96.5098 149.876 95.8521 149.991 95.3096C150.106 94.7671 150.164 94.3063 150.221 94.0086L150.284 93.6678V93.5574Z" fill="#263238"/>
<path d="M182.83 183.023C183.297 183.245 183.714 183.56 184.056 183.948C184.399 184.335 184.659 184.788 184.822 185.279C185.142 186.265 185.232 187.311 185.086 188.337C184.861 190.32 183.737 192.322 182.523 193.911C180.852 192.471 180.468 189.907 180.353 188.606C180.17 186.546 181.097 182.716 182.83 183.023Z" fill="#1D71B8"/>
<path d="M184.464 197.185C184.351 196.617 184.389 196.03 184.576 195.482C184.762 194.934 185.089 194.445 185.525 194.064C185.967 193.692 186.478 193.412 187.03 193.24C187.581 193.068 188.161 193.007 188.736 193.061C189.003 193.059 189.268 193.114 189.511 193.223C189.755 193.333 189.972 193.494 190.148 193.695C190.277 193.912 190.346 194.161 190.346 194.415C190.346 194.668 190.277 194.917 190.148 195.135C189.895 195.567 189.532 195.925 189.096 196.172C187.656 197.079 186.081 197.694 184.444 197.204" fill="#1D71B8"/>
<path d="M182.32 203.267C182.329 203.13 182.348 202.993 182.378 202.859L182.58 201.755C182.769 200.529 183.153 199.341 183.717 198.236C184.306 197.133 185.178 196.207 186.242 195.552C186.568 195.361 186.914 195.208 187.275 195.096C187.372 195.065 187.471 195.041 187.572 195.024C187.607 195.018 187.643 195.018 187.678 195.024C187.195 195.183 186.732 195.393 186.295 195.653C185.267 196.323 184.425 197.241 183.847 198.322C183.29 199.416 182.896 200.585 182.68 201.793C182.58 202.273 182.498 202.629 182.436 202.883C182.41 203.014 182.371 203.143 182.32 203.267Z" fill="#263238"/>
<path d="M182.385 186.004C182.394 186.063 182.394 186.123 182.385 186.182C182.385 186.311 182.385 186.484 182.419 186.691C182.419 187.137 182.467 187.78 182.491 188.572C182.543 190.161 182.582 192.36 182.572 194.789C182.563 197.218 182.505 199.412 182.438 201.001C182.404 201.793 182.375 202.442 182.347 202.883C182.347 203.09 182.323 203.262 182.313 203.392C182.312 203.452 182.304 203.512 182.289 203.57C182.284 203.511 182.284 203.451 182.289 203.392C182.289 203.258 182.289 203.09 182.289 202.878C182.289 202.398 182.318 201.779 182.337 200.996C182.375 199.407 182.419 197.214 182.428 194.784C182.438 192.355 182.428 190.166 182.39 188.577C182.39 187.795 182.366 187.137 182.361 186.695V186.182C182.362 186.122 182.37 186.062 182.385 186.004Z" fill="#263238"/>
<path d="M181.573 198.389C181.371 197.188 180.886 196.053 180.158 195.076C179.43 194.099 178.48 193.31 177.387 192.773C176.825 192.504 176.096 192.326 175.64 192.744C175.183 193.162 175.284 193.906 175.505 194.482C175.993 195.683 176.826 196.713 177.9 197.441C178.973 198.169 180.238 198.563 181.535 198.572" fill="#1D71B8"/>
<path d="M177.655 194.65C177.777 194.693 177.896 194.746 178.01 194.808C178.146 194.871 178.279 194.942 178.408 195.019C178.557 195.115 178.74 195.207 178.917 195.341C179.12 195.476 179.316 195.622 179.503 195.778C179.719 195.956 179.926 196.145 180.122 196.344C180.571 196.803 180.967 197.31 181.303 197.857C181.628 198.411 181.889 199 182.081 199.614C182.158 199.902 182.234 200.17 182.278 200.43C182.325 200.669 182.359 200.911 182.378 201.155C182.39 201.354 182.39 201.555 182.378 201.755C182.389 201.906 182.389 202.059 182.378 202.211C182.376 202.34 182.362 202.468 182.335 202.595C182.302 202.595 182.335 202.043 182.258 201.155C182.233 200.916 182.195 200.679 182.143 200.444C182.09 200.175 182.021 199.909 181.937 199.647C181.558 198.438 180.9 197.334 180.017 196.426C179.827 196.226 179.627 196.037 179.416 195.859C179.224 195.687 179.028 195.547 178.85 195.413C178.144 194.909 177.64 194.678 177.655 194.65Z" fill="#263238"/>
<path d="M168.197 168.213C168.167 168.294 168.127 168.372 168.077 168.443C167.981 168.616 167.857 168.827 167.703 169.082C167.549 169.336 167.333 169.692 167.117 170.095C166.901 170.498 166.637 170.94 166.373 171.453C165.836 172.462 165.25 173.7 164.659 175.092C164.033 176.613 163.483 178.164 163.013 179.739C162.533 181.42 162.168 183.047 161.894 184.54C161.621 186.033 161.467 187.392 161.376 188.534C161.318 189.105 161.299 189.624 161.27 190.075C161.241 190.526 161.227 190.925 161.217 191.247C161.208 191.568 161.217 191.789 161.217 191.986C161.22 192.072 161.21 192.157 161.188 192.24C161.17 192.157 161.162 192.071 161.164 191.986C161.164 191.789 161.164 191.544 161.164 191.242C161.164 190.939 161.164 190.526 161.164 190.07C161.164 189.614 161.164 189.11 161.236 188.52C161.329 187.173 161.489 185.832 161.717 184.502C161.997 182.873 162.366 181.261 162.821 179.672C163.293 178.089 163.853 176.533 164.496 175.011C165.101 173.609 165.706 172.38 166.268 171.372C166.536 170.863 166.81 170.412 167.045 170.028C167.281 169.644 167.487 169.303 167.669 169.034C167.852 168.765 167.972 168.587 168.087 168.424C168.202 168.261 168.197 168.208 168.197 168.213Z" fill="#263238"/>
<path d="M160.617 175.135C160.63 175.35 160.62 175.565 160.588 175.778C160.545 176.258 160.487 176.834 160.425 177.535C160.281 179.014 160.099 181.064 159.945 183.325C159.791 185.586 159.7 187.646 159.638 189.129L159.556 190.891C159.561 191.108 159.542 191.326 159.498 191.539C159.463 191.325 159.451 191.108 159.46 190.891C159.46 190.473 159.46 189.873 159.46 189.124C159.46 187.636 159.542 185.576 159.695 183.311C159.849 181.045 160.06 178.99 160.247 177.516C160.343 176.777 160.425 176.182 160.492 175.769C160.515 175.554 160.557 175.342 160.617 175.135Z" fill="#263238"/>
<path d="M153.258 181.415C153.385 181.5 153.501 181.602 153.603 181.717C153.902 182.011 154.184 182.322 154.448 182.648C155.323 183.725 156.048 184.915 156.604 186.186C157.159 187.457 157.536 188.798 157.727 190.171C157.788 190.586 157.824 191.005 157.837 191.424C157.858 191.583 157.858 191.745 157.837 191.904C157.794 191.904 157.751 191.256 157.569 190.219C157.091 187.517 155.978 184.967 154.323 182.778C153.675 181.919 153.224 181.443 153.258 181.415Z" fill="#263238"/>
<path d="M182.662 102.338C182.745 102.404 182.82 102.478 182.888 102.559L183.502 103.221L183.939 103.701C184.098 103.884 184.256 104.09 184.419 104.306C184.765 104.748 185.178 105.233 185.571 105.818L186.205 106.721C186.421 107.038 186.618 107.384 186.839 107.734C187.295 108.43 187.698 109.217 188.14 110.033C189.992 113.636 191.196 117.536 191.697 121.555C191.788 122.482 191.899 123.36 191.918 124.186C191.918 124.603 191.961 125.002 191.961 125.386V126.49C191.961 127.191 191.899 127.825 191.86 128.382C191.86 128.66 191.822 128.924 191.798 129.159C191.774 129.395 191.735 129.611 191.707 129.807C191.654 130.177 191.611 130.475 191.572 130.7C191.565 130.807 191.544 130.912 191.51 131.012C191.503 130.907 191.503 130.801 191.51 130.696C191.534 130.465 191.563 130.167 191.596 129.798C191.596 129.601 191.639 129.385 191.663 129.15C191.687 128.914 191.692 128.67 191.707 128.372C191.731 127.82 191.788 127.186 191.769 126.485V125.386C191.769 125.007 191.726 124.608 191.707 124.2C191.683 123.375 191.567 122.506 191.467 121.584C190.942 117.598 189.749 113.729 187.938 110.139C187.501 109.323 187.108 108.536 186.666 107.844C186.45 107.494 186.253 107.143 186.042 106.827C185.831 106.51 185.624 106.207 185.427 105.919C185.048 105.329 184.645 104.839 184.309 104.393C184.141 104.172 183.987 103.961 183.829 103.778L183.406 103.298L182.83 102.607C182.764 102.524 182.708 102.434 182.662 102.338Z" fill="#263238"/>
<path d="M197 111.814C196.956 112.057 196.894 112.296 196.813 112.53C196.673 113.01 196.481 113.643 196.256 114.45C195.08 118.72 194.397 123.111 194.22 127.537C194.187 128.386 194.167 129.073 194.158 129.548C194.167 129.795 194.154 130.043 194.119 130.287C194.076 130.045 194.057 129.799 194.062 129.553C194.062 129.073 194.028 128.386 194.062 127.532C194.139 123.082 194.827 118.664 196.107 114.402C196.357 113.586 196.587 112.933 196.741 112.482C196.807 112.252 196.893 112.028 197 111.814Z" fill="#263238"/>
<path d="M198.037 121.214C197.433 122.319 196.905 123.465 196.457 124.642C196.093 125.845 195.811 127.072 195.612 128.314C195.559 127.943 195.559 127.567 195.612 127.196C195.713 126.298 195.911 125.415 196.203 124.56C196.493 123.704 196.878 122.883 197.35 122.112C197.533 121.78 197.764 121.477 198.037 121.214Z" fill="#263238"/>
<path d="M60.9706 190.833L60.3129 206.421L51.8926 206.229L52.5263 190.612L60.9706 190.833Z" fill="#1D71B8"/>
<path d="M56.1781 205.739C56.1061 205.739 56.2357 202.321 56.4662 198.116C56.6966 193.91 56.9462 190.502 57.0134 190.507C57.0806 190.511 56.9558 193.925 56.7206 198.13C56.4854 202.335 56.2453 205.744 56.1781 205.739Z" fill="#263238"/>
<path d="M60.3562 205.346L51.9406 205.13L51.8926 206.229L60.3129 206.421L60.3562 205.346Z" fill="#263238"/>
<path d="M52.0938 201.241C52.1525 201.118 52.2321 201.006 52.329 200.91C52.5644 200.629 52.8265 200.372 53.1115 200.142C53.5371 199.796 54.0089 199.512 54.5133 199.297C55.3928 198.912 56.3725 198.821 57.3079 199.036C58.2432 199.252 59.0845 199.762 59.7076 200.492C59.9456 200.781 60.1382 201.105 60.2789 201.452C60.3411 201.574 60.3801 201.705 60.3941 201.841C60.1576 201.411 59.8811 201.004 59.5684 200.626C58.7696 199.758 57.6601 199.241 56.4816 199.186C55.3012 199.169 54.1506 199.557 53.2219 200.286C52.5066 200.828 52.1274 201.27 52.0938 201.241Z" fill="#263238"/>
<g opacity="0.3">
<path opacity="0.3" d="M52.3426 195.058L52.2754 196.776L60.7102 196.925L60.7678 195.634L52.3426 195.058Z" fill="black"/>
</g>
<path d="M80.7816 191.764L80.3735 201.255C80.3735 201.255 89.8788 204.856 89.9748 206.618L71.5547 206.483L71.5883 191.673L80.7816 191.764Z" fill="#1D71B8"/>
<path d="M74.8068 200.449C74.6273 200.5 74.4733 200.617 74.3749 200.776C74.2764 200.935 74.2404 201.124 74.2739 201.308C74.3206 201.489 74.4347 201.644 74.5927 201.744C74.7507 201.843 74.9407 201.878 75.1236 201.841C75.313 201.785 75.4748 201.661 75.5776 201.492C75.6805 201.323 75.7172 201.123 75.6805 200.929C75.6502 200.833 75.601 200.745 75.536 200.669C75.4709 200.593 75.3913 200.531 75.3018 200.486C75.2123 200.441 75.1147 200.415 75.0149 200.409C74.915 200.402 74.8149 200.416 74.7204 200.449" fill="#E0E0E0"/>
<path d="M71.5508 206.479V205L89.3804 205.672C89.3804 205.672 90.2014 206.037 90.1054 206.632L71.5508 206.479Z" fill="#263238"/>
<path d="M80.5385 201.313C80.5385 201.404 80.0825 201.443 79.636 201.731C79.1896 202.019 78.9495 202.398 78.8631 202.36C78.7767 202.321 78.9207 201.803 79.468 201.462C80.0153 201.121 80.5626 201.231 80.5385 201.313Z" fill="#263238"/>
<path d="M82.4828 202.134C82.4828 202.221 82.1084 202.374 81.7963 202.753C81.4843 203.133 81.3931 203.541 81.3162 203.536C81.2394 203.531 81.1722 203.017 81.5707 202.576C81.9691 202.134 82.478 202.048 82.4828 202.134Z" fill="#263238"/>
<path d="M83.567 204.472C83.4854 204.472 83.3606 204.035 83.6007 203.541C83.8407 203.046 84.2583 202.854 84.2967 202.931C84.3352 203.008 84.0711 203.267 83.8839 203.675C83.6967 204.083 83.6583 204.462 83.567 204.472Z" fill="#263238"/>
<path d="M80.3943 199.129C80.3559 199.21 79.9142 199.081 79.4342 199.129C78.9541 199.177 78.5172 199.316 78.474 199.239C78.4308 199.162 78.8101 198.841 79.4342 198.812C80.0583 198.783 80.4375 199.052 80.3943 199.129Z" fill="#263238"/>
<path d="M80.7388 197.084C80.4341 197.168 80.1122 197.168 79.8075 197.084C79.4765 197.02 79.1542 196.917 78.8473 196.777C78.6625 196.695 78.4843 196.598 78.3145 196.489C78.2108 196.43 78.1169 196.355 78.036 196.268C77.9774 196.203 77.9418 196.121 77.9348 196.034C77.9279 195.947 77.95 195.861 77.9976 195.788C78.0422 195.723 78.1018 195.671 78.1712 195.635C78.2407 195.599 78.3179 195.581 78.3961 195.581C78.5146 195.584 78.6323 195.602 78.7465 195.634C78.9442 195.684 79.137 195.751 79.3226 195.836C79.6355 195.98 79.9238 196.173 80.1771 196.407C80.6044 196.805 80.7484 197.146 80.7148 197.166C80.6812 197.185 80.4652 196.906 80.0331 196.575C79.7786 196.382 79.5013 196.221 79.2074 196.095C79.0345 196.024 78.8563 195.966 78.6745 195.922C78.4777 195.869 78.3097 195.869 78.2617 195.956C78.2136 196.042 78.2617 196.004 78.2617 196.061C78.3201 196.124 78.3882 196.178 78.4633 196.22C78.6176 196.324 78.7779 196.418 78.9434 196.503C79.231 196.649 79.5315 196.768 79.8411 196.858C80.1453 196.912 80.4453 196.988 80.7388 197.084Z" fill="#263238"/>
<path d="M80.6183 197.213C80.4413 196.949 80.3569 196.633 80.3783 196.315C80.3641 195.971 80.4095 195.627 80.5127 195.298C80.5742 195.103 80.6546 194.915 80.7527 194.736C80.8022 194.611 80.8836 194.5 80.9889 194.416C81.0941 194.332 81.2196 194.277 81.3528 194.256C81.4352 194.259 81.515 194.286 81.583 194.332C81.6509 194.379 81.7043 194.444 81.7368 194.52C81.7855 194.628 81.8163 194.743 81.8281 194.861C81.8701 195.138 81.8556 195.421 81.7854 195.692C81.7153 195.964 81.591 196.218 81.42 196.44C81.0551 196.92 80.6759 197.026 80.6711 196.997C80.6663 196.968 80.9543 196.776 81.2376 196.315C81.401 196.051 81.5043 195.755 81.54 195.446C81.5638 195.268 81.5638 195.087 81.54 194.909C81.5112 194.712 81.4392 194.554 81.3624 194.573C81.2856 194.592 81.1128 194.717 81.0359 194.875C80.9437 195.027 80.8666 195.188 80.8055 195.355C80.699 195.653 80.636 195.966 80.6183 196.282C80.5751 196.863 80.6663 197.199 80.6183 197.213Z" fill="#263238"/>
<g opacity="0.3">
<path opacity="0.3" d="M71.5469 197.362L71.5661 199.47H80.4521V197.559L71.5469 197.362Z" fill="black"/>
</g>
<path d="M66.4369 131.377L63.7149 157.617L61.7611 197.132H51.334L51.0508 113.034L80.9061 115.16L87.0942 159.283L81.7366 197.904H70.2966L72.9706 161.184L66.4369 131.377Z" fill="#263238"/>
<path d="M66.4297 131.362C67.0438 132.091 67.7236 132.761 68.4604 133.364C69.1376 134.032 69.8734 134.638 70.6591 135.174C70.0473 134.445 69.3691 133.775 68.6332 133.172C67.9549 132.504 67.2174 131.898 66.4297 131.362Z" fill="#455A64"/>
<path d="M66.4737 130.854C66.5161 129.733 66.4969 128.612 66.4161 127.493C66.4131 126.37 66.349 125.249 66.2241 124.133C66.093 125.248 66.0705 126.374 66.1569 127.493C66.1542 128.621 66.2604 129.746 66.4737 130.854Z" fill="#455A64"/>
<path d="M63.0189 121.06C62.9631 121.054 62.9067 121.054 62.8509 121.06L62.3372 121.032L60.3594 120.936L53.2928 120.638H53.168V120.758C53.168 122.966 53.168 125.463 53.168 128.098V128.329L53.2496 128.362L57.8486 130.201H57.8918H57.935L62.0012 128.789L62.0636 128.765V128.698C62.3612 126.408 62.6109 124.502 62.7885 123.134C62.8653 122.496 62.9277 121.982 62.9757 121.603C63.0019 121.43 63.0179 121.255 63.0237 121.08C63.0093 121.128 62.9996 121.178 62.9949 121.228C62.9949 121.344 62.9517 121.478 62.9229 121.641C62.8605 122.025 62.7789 122.544 62.6781 123.192C62.4765 124.536 62.198 126.418 61.8524 128.669L61.9244 128.583L57.8486 129.966H57.935L53.3408 128.113L53.4224 128.233V128.089C53.4224 125.453 53.4224 122.957 53.4224 120.748L53.3024 120.868L60.2922 121.041L62.3036 121.075H63.0381L63.0189 121.06Z" fill="#455A64"/>
<path d="M78.0737 121.185H77.9201H77.44L75.6493 121.133L69.202 120.979H69.082V121.099C69.154 123.279 69.2309 125.784 69.3173 128.458V128.482L69.3701 128.521L70.119 129.001L73.8971 131.464L73.9643 131.507L74.0315 131.468L78.2897 128.871L78.3425 128.838V128.775C78.2609 126.49 78.1937 124.584 78.1457 123.216C78.1217 122.582 78.0977 122.069 78.0833 121.69C78.0689 121.31 78.0497 121.161 78.0449 121.166C78.0384 121.217 78.0384 121.269 78.0449 121.32V121.762C78.0449 122.15 78.0449 122.669 78.0449 123.317C78.0449 124.666 78.0929 126.553 78.1265 128.809L78.1793 128.718L73.9019 131.281H74.0363L70.2678 128.799L69.5237 128.319L69.5813 128.425C69.4853 125.751 69.3941 123.24 69.3125 121.061L69.1972 121.181L75.5773 121.214H77.8769L78.0737 121.185Z" fill="#455A64"/>
<path d="M54.2734 133.072C54.7457 133.107 55.2204 133.093 55.6896 133.028C56.5586 132.966 57.7587 132.846 59.0789 132.673C60.3991 132.5 61.5897 132.313 62.4394 132.155C62.9081 132.093 63.3696 131.985 63.8172 131.833C63.3452 131.839 62.8746 131.886 62.4106 131.972L59.0501 132.419L55.6896 132.846C55.2121 132.881 54.7383 132.957 54.2734 133.072Z" fill="#455A64"/>
<path d="M54.5195 162.322C54.5195 162.322 54.5627 162.471 54.7644 162.653C55.0671 162.893 55.4439 163.02 55.8301 163.013C56.403 162.999 56.9538 162.789 57.3903 162.418C57.9132 161.983 58.3953 161.501 58.8305 160.978C59.6234 160.054 60.3289 159.06 60.938 158.006C61.2124 157.581 61.4348 157.125 61.6005 156.647C61.3065 157.054 61.0341 157.475 60.7844 157.91C60.1329 158.917 59.4144 159.88 58.6337 160.79C58.2152 161.299 57.7561 161.773 57.2607 162.207C56.8685 162.556 56.3727 162.766 55.8493 162.807C55.4957 162.83 55.1439 162.739 54.846 162.547C54.6203 162.432 54.5387 162.307 54.5195 162.322Z" fill="#455A64"/>
<path d="M75.1133 163.244C75.1133 163.244 75.1133 163.378 75.2525 163.58C75.4363 163.86 75.6829 164.093 75.9726 164.262C76.4086 164.518 76.907 164.649 77.4128 164.641C78.0257 164.615 78.6207 164.426 79.1362 164.094C80.0364 163.47 80.7526 162.616 81.2101 161.621C81.4325 161.235 81.6051 160.822 81.7238 160.392C81.4712 160.756 81.245 161.138 81.0469 161.535C80.5612 162.467 79.8581 163.269 78.997 163.873C78.5221 164.183 77.9745 164.365 77.408 164.401C76.9449 164.418 76.4852 164.316 76.0734 164.103C75.6933 163.892 75.3652 163.598 75.1133 163.244Z" fill="#455A64"/>
<path d="M74.4453 159.283C74.6985 159.497 74.9902 159.659 75.3046 159.763C76.0449 160.075 76.8352 160.25 77.6378 160.282C78.4507 160.319 79.2638 160.21 80.0381 159.96C80.3597 159.874 80.6626 159.729 80.931 159.533C79.8765 159.856 78.7791 160.018 77.6762 160.013C76.568 159.938 75.4782 159.691 74.4453 159.283Z" fill="#455A64"/>
<path d="M66.0546 67.5953L54.8066 67.4561L56.0644 58.21C56.0644 58.21 55.2963 58.0516 55.2435 54.0286C55.1907 50.0057 54.9987 43.1695 54.9987 43.1695C57.3715 42.1853 59.9587 41.8321 62.5086 42.1442C65.0584 42.4563 67.4841 43.4231 69.5495 44.9506L70.1688 45.4307L66.0546 67.5953Z" fill="#FFBE9D"/>
<path d="M68.8624 50.3417C68.9345 50.3129 71.7428 49.5256 71.6324 52.262C71.522 54.9983 68.6992 54.355 68.6992 54.2734C68.6992 54.1918 68.8624 50.3417 68.8624 50.3417Z" fill="#FFBE9D"/>
<path d="M55.4834 49.7511C55.4114 49.7223 52.8767 49.0646 52.9631 51.8105C53.0495 54.5565 55.8963 53.9084 55.9011 53.8268C55.9059 53.7452 55.4834 49.7511 55.4834 49.7511Z" fill="#FFBE9D"/>
<path d="M69.79 50.0345C69.3676 52.3389 69.4492 53.5486 69.0555 55.0896C68.4314 57.5236 67.1785 59.4102 64.9077 60.6104C62.637 61.8106 59.5598 61.8058 57.6107 60.1303C56.2522 58.9782 55.292 57.682 55.0904 55.949C54.8888 54.2159 54.6919 51.1483 54.6775 49.4153C54.6775 46.2756 54.4375 43.2752 54.4375 43.2752L63.7268 41.6526L69.0075 44.6866L69.79 50.0345Z" fill="#263238"/>
<path d="M60.1895 61.998C60.7097 62.189 61.2717 62.2371 61.8169 62.1372C62.3694 62.1219 62.9072 61.9559 63.3723 61.6571C63.3723 61.5899 62.6618 61.7964 61.7881 61.8876C60.9144 61.9788 60.2135 61.926 60.1895 61.998Z" fill="#263238"/>
<path d="M69.3367 53.9519C69.6055 51.5899 69.7831 48.892 70.1672 46.4004C70.3112 45.4403 70.6472 44.1201 70.5704 43.1792C70.5423 42.2269 70.3338 41.2886 69.9559 40.414C69.6738 39.8733 69.2736 39.4031 68.7849 39.0383C68.2963 38.6734 67.7317 38.4233 67.1331 38.3065C66.5286 38.1945 65.9069 38.2159 65.3115 38.3693C64.7161 38.5228 64.1614 38.8044 63.6863 39.1946C63.3283 38.7065 62.8373 38.332 62.2719 38.1157C61.7066 37.8994 61.0909 37.8507 60.4986 37.9753C59.9148 38.1093 59.3838 38.4135 58.9728 38.8492C58.5618 39.285 58.2892 39.8329 58.1895 40.4236C57.8447 40.1256 57.4169 39.9405 56.9636 39.8933C56.5104 39.8461 56.0535 39.939 55.6548 40.1596C55.2732 40.3893 54.9769 40.7371 54.8106 41.1502C54.6443 41.5634 54.6171 42.0195 54.733 42.4495C54.4032 42.5038 54.0913 42.637 53.8239 42.8375C53.5565 43.0381 53.3414 43.3002 53.1968 43.6016C53.0631 43.9023 53.007 44.2318 53.0339 44.5598C53.0607 44.8878 53.1696 45.2038 53.3504 45.4787C53.7825 46.1172 54.5602 46.4676 55.0307 47.0773C55.2993 47.4296 55.4565 47.854 55.4821 48.2963C55.5078 48.7385 55.4007 49.1783 55.1747 49.5593" fill="#263238"/>
<path d="M56.4355 45.4306C56.4504 45.5225 56.4865 45.6096 56.5412 45.685C56.6738 45.9197 56.8576 46.1215 57.0788 46.2755C57.4312 46.5269 57.8559 46.6566 58.2886 46.6452C58.5691 46.6364 58.8451 46.572 59.1005 46.4558C59.356 46.3396 59.5858 46.1739 59.7768 45.9683L59.58 45.9155C59.6514 46.2326 59.8033 46.526 60.0211 46.7673C60.2389 47.0087 60.5152 47.1898 60.8234 47.2933C61.1671 47.4216 61.5367 47.4656 61.9009 47.4213C62.2652 47.377 62.6135 47.2458 62.9164 47.0388C63.4591 46.6797 63.8729 46.1566 64.0974 45.5458L63.8718 45.5746C64.1103 45.9118 64.4251 46.188 64.7904 46.3807C65.1558 46.5733 65.5615 46.6771 65.9745 46.6836C66.3012 46.6909 66.626 46.6331 66.9302 46.5136C67.2343 46.3941 67.5116 46.2152 67.7459 45.9875C68.0486 45.7002 68.269 45.3372 68.3844 44.9361C68.4354 44.7965 68.4551 44.6474 68.442 44.4993C68.442 44.4993 68.3988 44.6529 68.3028 44.9121C68.1584 45.2799 67.9298 45.6087 67.6355 45.8723C67.1832 46.2781 66.5914 46.4931 65.9841 46.4723C65.6057 46.4594 65.2354 46.3591 64.9023 46.1792C64.5691 45.9993 64.2822 45.7447 64.0638 45.4354L63.9294 45.229L63.8382 45.4594C63.6268 46.0167 63.2477 46.4948 62.7532 46.8276C62.4848 47.0123 62.1761 47.13 61.8529 47.1709C61.5297 47.2119 61.2013 47.1748 60.8954 47.0628C60.6247 46.9752 60.3807 46.8206 60.1859 46.6132C59.9912 46.4059 59.8521 46.1526 59.7816 45.8771L59.7432 45.6466L59.5848 45.8243C59.2821 46.1603 58.8706 46.3787 58.4228 46.441C57.9749 46.5034 57.5194 46.4057 57.1364 46.1651C56.8571 45.9684 56.619 45.7188 56.4355 45.4306Z" fill="#455A64"/>
<path d="M56.4523 44.3316C56.5058 43.9716 56.6404 43.6285 56.846 43.3282C57.0826 43.0118 57.4221 42.7877 57.8061 42.6945C58.0474 42.6397 58.2973 42.6344 58.5408 42.679C58.7842 42.7235 59.016 42.817 59.2223 42.9538L59.4479 43.1122L59.4239 42.8434C59.4018 42.5755 59.4344 42.306 59.5199 42.0513C59.6132 41.7711 59.7626 41.5129 59.959 41.2925C60.1555 41.0721 60.3949 40.8942 60.6625 40.7695C61.1162 40.5724 61.6218 40.5286 62.1027 40.6447C62.5484 40.7713 62.9601 40.996 63.3077 41.3023C63.3077 41.3023 63.2548 41.1727 63.0772 40.9951C62.8132 40.7522 62.4958 40.5746 62.1507 40.4766C61.5701 40.2983 60.9426 40.3554 60.4037 40.6356C59.8648 40.9158 59.4577 41.3967 59.2703 41.9744C59.1754 42.2619 59.1411 42.566 59.1695 42.8674L59.3711 42.7521C59.1342 42.5969 58.8676 42.4928 58.5882 42.4465C58.3088 42.4002 58.0228 42.4128 57.7485 42.4833C57.3152 42.595 56.9388 42.8636 56.6923 43.237C56.5315 43.4728 56.4325 43.7451 56.4043 44.0291C56.4091 44.226 56.4379 44.3316 56.4523 44.3316Z" fill="#455A64"/>
<path d="M62.3769 44.4082C62.4105 44.4082 62.3769 44.2546 62.3769 44.0337C62.405 43.7416 62.5057 43.461 62.6698 43.2176C62.857 42.9344 63.0778 42.6463 63.2075 42.4879C63.3371 42.3295 63.4811 42.4495 63.5051 42.4351C63.5291 42.4207 63.5051 42.3727 63.4427 42.3247C63.3881 42.2949 63.326 42.2813 63.264 42.2856C63.2019 42.2898 63.1423 42.3117 63.0922 42.3487C62.9734 42.4419 62.8655 42.5482 62.7706 42.6656C62.6514 42.7981 62.5423 42.9393 62.4441 43.088C62.2546 43.3706 62.1666 43.7091 62.1945 44.0481C62.2329 44.2978 62.3481 44.4226 62.3769 44.4082Z" fill="#455A64"/>
<path d="M67.8695 40.9516C67.8983 40.9516 67.8695 40.7356 67.6966 40.4716C67.5903 40.2959 67.4439 40.1478 67.2694 40.0395C67.0445 39.8999 66.7777 39.8439 66.5157 39.8811C66.0671 39.958 65.6642 40.2015 65.3875 40.5628C65.1811 40.8172 65.0851 40.99 65.1091 41.0092C65.1331 41.0285 65.2915 40.894 65.5219 40.6828C65.801 40.3987 66.1589 40.2047 66.5493 40.1259C66.7395 40.1071 66.9313 40.1384 67.1056 40.2167C67.28 40.2951 67.4308 40.4177 67.543 40.5724C67.759 40.7884 67.8695 40.966 67.8695 40.9516Z" fill="#455A64"/>
<path d="M66.4302 52.6314C67.2838 51.5786 67.7529 50.2662 67.76 48.9109C67.6832 48.9109 67.5344 49.775 67.1695 50.7975C66.8047 51.8201 66.3774 52.5738 66.4302 52.6314Z" fill="#455A64"/>
<path d="M65.1934 53.275C65.5104 52.9121 65.7446 52.4846 65.8799 52.0221C66.0934 51.5935 66.2098 51.123 66.2207 50.6443C65.969 51.0462 65.7735 51.4807 65.6398 51.9357C65.4264 52.3579 65.276 52.8092 65.1934 53.275Z" fill="#455A64"/>
<path d="M57.3642 53.4622C57.2326 54.2765 57.3445 55.1115 57.6858 55.8625C57.9587 56.6608 58.4594 57.3617 59.126 57.8788C58.6789 57.211 58.2871 56.5077 57.9547 55.7761C57.6957 55.022 57.4982 54.2481 57.3642 53.4622Z" fill="#455A64"/>
<path d="M56.1164 51.4553C55.8182 52.1405 55.7541 52.9048 55.934 53.63C56.0309 54.376 56.3679 55.0703 56.8941 55.6079C56.6012 54.9557 56.3651 54.2795 56.1884 53.5868C56.1003 52.8799 56.0762 52.1665 56.1164 51.4553Z" fill="#455A64"/>
<path d="M41.0765 89.9471V101.469C41.0765 101.469 49.7177 120.566 49.7177 120.273C49.7177 119.98 52.8045 108.218 52.8045 108.218L49.3288 99.0443L49.0024 93.0531L41.8686 78.7855C41.8686 78.7855 40.0971 88.3868 40.3852 88.9629C40.5625 89.3252 40.7958 89.6574 41.0765 89.9471Z" fill="#1D71B8"/>
<path d="M51.8409 67.0674C51.8409 67.0674 43.987 71.1431 43.0172 72.4009C42.0475 73.6587 41.8555 78.8002 41.8555 78.8002L51.8409 98.7709L52.3209 106.817C52.3209 106.817 49.3157 113.082 49.3157 117.46V117.94L48.8356 123.95L60.8373 125.016C60.8373 125.016 61.519 121.718 61.519 122.011C61.519 122.304 62.3927 125.016 62.3927 125.016H82.2723L81.5378 111.781L78.1533 91.3491C78.1533 91.3491 79.5935 79.6307 79.6655 79.2034C79.7903 78.4449 92.3777 72.8618 92.3777 72.8618L98.3065 69.6597C99.063 69.248 99.6949 68.6403 100.136 67.9004C100.577 67.1605 100.81 66.3156 100.812 65.4543C100.81 64.5642 100.56 63.6923 100.09 62.9361C99.6203 62.1799 98.9496 61.5691 98.1529 61.1721L81.4225 52.891L77.5292 59.4391L82.6275 62.7132L86.2808 65.2431L76.1466 66.2032C76.1466 66.2032 74.3464 63.8509 73.5735 63.8509C72.8006 63.8509 66.5933 65.2911 66.5933 65.2911L66.6893 63.7405C66.6893 63.7405 65.0427 61.897 63.1992 61.9931C61.3558 62.0891 53.5979 64.3214 53.5979 64.3214L51.8409 67.0674Z" fill="#1D71B8"/>
<path d="M80.0258 55.2385L75.662 52.6989L69.0227 49.0984C69.0227 49.0984 66.8336 47.4374 65.9695 47.4854C65.6024 47.5522 65.2536 47.6958 64.9458 47.9068C64.6381 48.1177 64.3784 48.3913 64.1836 48.7096C64.1452 48.9064 64.5053 49.2712 65.0622 49.1176C65.2446 49.0696 65.7534 48.7 66.0223 48.7576C66.5371 48.8794 66.9826 49.2005 67.2609 49.6505C67.2953 49.6948 67.3164 49.748 67.3219 49.8038C67.3274 49.8596 67.317 49.9159 67.2919 49.9661C67.2668 50.0163 67.2281 50.0583 67.1801 50.0874C67.1321 50.1165 67.0769 50.1315 67.0208 50.1306C67.0208 50.1306 63.2619 49.1704 61.8601 49.9385C61.6948 50.0189 61.5648 50.1572 61.4949 50.3271C61.425 50.4971 61.42 50.6869 61.4809 50.8603C61.5817 51.1051 61.8505 51.3403 62.5082 51.1963C63.8284 50.9419 66.0079 51.9548 66.0079 51.9548C66.0079 51.9548 61.1304 51.7964 60.2951 52.2141C59.9639 52.3773 59.6038 53.443 60.5975 53.5534C61.7689 53.6783 64.078 53.6302 64.078 53.6302C64.078 53.6302 66.2575 53.9327 65.9071 54.3407C65.5566 54.7488 62.2106 54.7824 61.9561 54.8208C61.7017 54.8592 60.5687 54.8208 60.6311 55.7425C60.6647 56.2658 61.6441 56.5971 62.9115 56.5538C63.9868 56.5202 67.3233 56.453 67.7121 57.0627C68.101 57.6724 67.8369 58.1141 67.5297 58.2677C66.5537 58.5076 65.56 58.6682 64.5581 58.7478C64.1164 58.7478 63.5355 59.5639 64.6109 59.8231C65.7823 60.1111 66.7712 59.8759 67.7841 59.8759C68.7971 59.8759 70.0933 59.9575 72.9352 58.8438C72.9352 58.8438 74.8555 57.9748 77.4671 59.4727L80.0258 55.2385Z" fill="#FFBE9D"/>
<path d="M66.1019 65.3871C66.1019 65.4591 63.0439 65.8672 59.2513 66.3473C55.4588 66.8273 52.372 67.125 52.3672 67.0529C52.3624 66.9809 55.4252 66.5729 59.2225 66.0928C63.0199 65.6127 66.0971 65.3199 66.1019 65.3871Z" fill="#263238"/>
<path d="M65.4219 107.839C65.4712 107.744 65.5273 107.653 65.5899 107.566L66.118 106.803C66.598 106.145 67.2365 105.18 68.0382 103.97C68.84 102.76 69.7281 101.311 70.6834 99.6495C71.6387 97.9885 72.6037 96.1595 73.5974 94.1864C74.5911 92.2133 75.4025 90.2978 76.1274 88.536C76.8523 86.7742 77.4379 85.1755 77.9036 83.8025C78.3693 82.4296 78.7341 81.335 78.9693 80.5621C79.0846 80.2021 79.1758 79.9092 79.2478 79.6788C79.2779 79.575 79.3164 79.4738 79.363 79.3763C79.3531 79.4838 79.3322 79.59 79.3006 79.6932C79.2382 79.9236 79.1614 80.2213 79.0606 80.5909C78.8541 81.3734 78.5229 82.5112 78.0716 83.8602C77.6204 85.2091 77.0443 86.851 76.3386 88.6224C75.6329 90.3939 74.788 92.3189 73.823 94.2968C72.8581 96.2747 71.8452 98.1373 70.885 99.7648C69.9249 101.392 68.9984 102.861 68.1871 104.057C67.3757 105.252 66.6989 106.202 66.2092 106.841L65.6475 107.58C65.5829 107.675 65.5072 107.762 65.4219 107.839Z" fill="#263238"/>
<path d="M49.1448 120.292C49.1384 120.203 49.1384 120.113 49.1448 120.023C49.1448 119.831 49.188 119.572 49.2168 119.255C49.2888 118.588 49.4281 117.613 49.6441 116.399C50.2572 113.13 51.1158 109.913 52.2124 106.774V106.822C52.1068 105.151 51.9964 103.351 51.886 101.483C51.8284 100.557 51.7756 99.6445 51.7228 98.7756V98.8236C49.5865 94.6614 47.8198 90.9313 46.6149 88.2237C46.01 86.8748 45.5491 85.7754 45.2419 85.0169C45.1027 84.6521 44.9874 84.3592 44.901 84.1384C44.8659 84.0402 44.8401 83.939 44.8242 83.8359C44.8815 83.9287 44.9297 84.0268 44.9682 84.1288L45.3475 84.9881C45.6835 85.7322 46.1636 86.8219 46.7877 88.1613C48.0311 90.8449 49.8265 94.5654 51.9628 98.7228V98.7468C52.0156 99.6157 52.0732 100.528 52.126 101.454C52.2412 103.322 52.3469 105.122 52.4429 106.793V106.817C51.3408 109.941 50.457 113.138 49.7977 116.384C49.5577 117.594 49.3993 118.564 49.3176 119.226L49.2024 119.99C49.201 120.093 49.1815 120.195 49.1448 120.292Z" fill="#263238"/>
<path d="M62.1836 116.375C62.0867 117.854 61.9088 119.327 61.6508 120.787C61.4739 122.256 61.2142 123.715 60.873 125.155C60.9672 123.677 61.1452 122.206 61.4059 120.748C61.5831 119.277 61.8428 117.817 62.1836 116.375Z" fill="#263238"/>
<path d="M76.4098 75.6218C76.3096 75.5187 76.2239 75.4024 76.1554 75.2761C76.0065 75.0457 75.8049 74.7 75.5745 74.2632C74.9813 73.117 74.5098 71.9119 74.1679 70.6675C73.8228 69.4241 73.6073 68.1483 73.5246 66.8605C73.4958 66.3805 73.491 65.9676 73.5006 65.694C73.494 65.5505 73.5069 65.4068 73.539 65.2667C73.5822 65.2667 73.5966 65.8716 73.7022 66.8461C73.9612 69.3882 74.6478 71.8682 75.7329 74.1816C75.9832 74.6496 76.2091 75.1303 76.4098 75.6218Z" fill="#263238"/>
<g opacity="0.3">
<path opacity="0.3" d="M65.9492 106.922C66.4432 107.131 66.979 107.221 67.5141 107.186C68.0491 107.151 68.5686 106.992 69.0312 106.721C69.9502 106.168 70.7551 105.444 71.4028 104.589C76.442 98.4691 78.9557 90.6566 78.4309 82.7462C75.5951 91.1847 71.523 99.1558 66.3477 106.399" fill="black"/>
</g>
<g opacity="0.3">
<path opacity="0.3" d="M45.2219 84.8342C44.8024 84.3324 44.2645 83.943 43.6568 83.7012C43.3743 83.5903 43.0598 83.5934 42.7795 83.7098C42.4992 83.8262 42.2751 84.0469 42.1542 84.3253C42.1022 84.6507 42.1455 84.9842 42.2791 85.2855C43.2056 88.017 44.1609 90.811 45.9756 93.0529C46.3025 93.4158 46.6869 93.7223 47.1133 93.9603C47.5454 94.2339 48.7215 94.4739 48.8848 94.0083C48.969 93.6127 48.969 93.2037 48.8848 92.8081C48.8848 92.8081 46.2972 87.5274 45.0442 84.815" fill="black"/>
</g>
<g opacity="0.3">
<path opacity="0.3" d="M86.1753 65.2385C87.3303 65.5109 88.5352 65.4895 89.6798 65.1761C87.8795 63.8127 85.532 63.5151 83.2949 63.2126L86.1753 65.2385Z" fill="black"/>
</g>
<path d="M93.5859 65.4397C93.214 65.4767 92.8393 65.4767 92.4674 65.4397L89.7886 65.3629L87.1099 65.3197C86.7375 65.3357 86.3644 65.3148 85.9961 65.2573C86.3597 65.1739 86.7321 65.1352 87.1051 65.1421C87.7915 65.1085 88.7421 65.0893 89.7934 65.1133C90.8448 65.1373 91.7953 65.1997 92.4818 65.2621C92.8555 65.2778 93.2261 65.3374 93.5859 65.4397Z" fill="#263238"/>
<path d="M43.8652 97.7578C43.8652 97.729 44.1197 97.9018 44.4845 98.1802C44.9394 98.5534 45.4394 98.8679 45.9727 99.1163C46.5057 99.3475 47.0929 99.424 47.6674 99.3372C48.1042 99.2556 48.3443 99.0923 48.3683 99.1308C48.3923 99.1692 48.1714 99.3756 47.7058 99.51C47.0948 99.6591 46.4516 99.6017 45.8767 99.3468C45.3195 99.0904 44.8098 98.7414 44.3693 98.3146C44.0429 97.9738 43.8652 97.7578 43.8652 97.7578Z" fill="#263238"/>
<path opacity="0.3" d="M62.185 117.282L64.5469 125.04H62.4058L61.4121 121.55L62.185 117.282Z" fill="black"/>
</svg>
