<svg width="266" height="224" viewBox="0 0 266 224" fill="none" xmlns="http://www.w3.org/2000/svg">
<defs>
<linearGradient id="paint0_linear_1605_115589" x1="216.658" y1="62.4904" x2="95.0424" y2="190.642" gradientUnits="userSpaceOnUse">
<stop stop-color="#2DB5E9"/>
<stop offset="1" stop-color="#365EA9"/>
</linearGradient>
<linearGradient id="paint1_linear_1605_115589" x1="29.3618" y1="111.821" x2="168.436" y2="83.4385" gradientUnits="userSpaceOnUse">
<stop stop-color="#CBE8EF"/>
<stop offset="1" stop-color="#B4D6D6"/>
</linearGradient>
<linearGradient id="paint2_linear_1605_115589" x1="29.3618" y1="111.821" x2="168.436" y2="83.4385" gradientUnits="userSpaceOnUse">
<stop stop-color="#CBE8EF"/>
<stop offset="1" stop-color="#B4D6D6"/>
</linearGradient>
<linearGradient id="paint3_linear_1605_115589" x1="29.5703" y1="111.577" x2="168.259" y2="83.2595" gradientUnits="userSpaceOnUse">
<stop stop-color="#D7EDF3"/>
<stop offset="1" stop-color="#B1DBDB"/>
</linearGradient>
<linearGradient id="paint4_linear_1605_115589" x1="0.289795" y1="1414.8" x2="128.638" y2="1414.8" gradientUnits="userSpaceOnUse">
<stop stop-color="#2DB5E9"/>
<stop offset="1" stop-color="#365EA9"/>
</linearGradient>
<linearGradient id="paint5_linear_1605_115589" x1="279.004" y1="1414.8" x2="424.559" y2="1414.8" gradientUnits="userSpaceOnUse">
<stop stop-color="#2DB5E9"/>
<stop offset="1" stop-color="#365EA9"/>
</linearGradient>
<linearGradient id="paint6_linear_1605_115589" x1="86.5324" y1="2903.15" x2="116.606" y2="2903.15" gradientUnits="userSpaceOnUse">
<stop stop-color="#2DB5E9"/>
<stop offset="1" stop-color="#365EA9"/>
</linearGradient>
<linearGradient id="paint7_linear_1605_115589" x1="86.5324" y1="2794.98" x2="116.606" y2="2794.98" gradientUnits="userSpaceOnUse">
<stop stop-color="#2DB5E9"/>
<stop offset="1" stop-color="#365EA9"/>
</linearGradient>
<linearGradient id="paint8_linear_1605_115589" x1="3072.99" y1="1690.37" x2="3201.34" y2="1690.37" gradientUnits="userSpaceOnUse">
<stop stop-color="#2DB5E9"/>
<stop offset="1" stop-color="#365EA9"/>
</linearGradient>
<linearGradient id="paint9_linear_1605_115589" x1="3540.44" y1="1690.37" x2="3686" y2="1690.37" gradientUnits="userSpaceOnUse">
<stop stop-color="#2DB5E9"/>
<stop offset="1" stop-color="#365EA9"/>
</linearGradient>
<linearGradient id="paint10_linear_1605_115589" x1="1659.3" y1="3441.75" x2="1689.38" y2="3441.75" gradientUnits="userSpaceOnUse">
<stop stop-color="#2DB5E9"/>
<stop offset="1" stop-color="#365EA9"/>
</linearGradient>
<linearGradient id="paint11_linear_1605_115589" x1="1659.3" y1="3367.77" x2="1689.38" y2="3367.77" gradientUnits="userSpaceOnUse">
<stop stop-color="#2DB5E9"/>
<stop offset="1" stop-color="#365EA9"/>
</linearGradient>
<linearGradient id="paint12_linear_1605_115589" x1="3797.2" y1="281.151" x2="3925.62" y2="281.151" gradientUnits="userSpaceOnUse">
<stop stop-color="#2DB5E9"/>
<stop offset="1" stop-color="#365EA9"/>
</linearGradient>
<linearGradient id="paint13_linear_1605_115589" x1="4307.03" y1="281.151" x2="4452.5" y2="281.151" gradientUnits="userSpaceOnUse">
<stop stop-color="#2DB5E9"/>
<stop offset="1" stop-color="#365EA9"/>
</linearGradient>
<linearGradient id="paint14_linear_1605_115589" x1="2028.93" y1="686.802" x2="2059.01" y2="686.802" gradientUnits="userSpaceOnUse">
<stop stop-color="#2DB5E9"/>
<stop offset="1" stop-color="#365EA9"/>
</linearGradient>
<linearGradient id="paint15_linear_1605_115589" x1="2028.93" y1="445.571" x2="2059.01" y2="445.571" gradientUnits="userSpaceOnUse">
<stop stop-color="#2DB5E9"/>
<stop offset="1" stop-color="#365EA9"/>
</linearGradient>
<linearGradient id="paint16_linear_1605_115589" x1="742.792" y1="5304.48" x2="1058.83" y2="5304.48" gradientUnits="userSpaceOnUse">
<stop stop-color="#2DB5E9"/>
<stop offset="1" stop-color="#365EA9"/>
</linearGradient>
<linearGradient id="paint17_linear_1605_115589" x1="6130.69" y1="2136.41" x2="6446.73" y2="2136.41" gradientUnits="userSpaceOnUse">
<stop stop-color="#2DB5E9"/>
<stop offset="1" stop-color="#365EA9"/>
</linearGradient>
<linearGradient id="paint18_linear_1605_115589" x1="6046.99" y1="504.563" x2="6544.15" y2="504.563" gradientUnits="userSpaceOnUse">
<stop stop-color="#2DB5E9"/>
<stop offset="1" stop-color="#365EA9"/>
</linearGradient>
<linearGradient id="paint19_linear_1605_115589" x1="12399.2" y1="86.674" x2="21654.4" y2="86.674" gradientUnits="userSpaceOnUse">
<stop stop-color="#2DB5E9"/>
<stop offset="1" stop-color="#365EA9"/>
</linearGradient>
<linearGradient id="paint20_linear_1605_115589" x1="892.626" y1="612.708" x2="1082.76" y2="612.708" gradientUnits="userSpaceOnUse">
<stop stop-color="#2DB5E9"/>
<stop offset="1" stop-color="#365EA9"/>
</linearGradient>
<linearGradient id="paint21_linear_1605_115589" x1="232.03" y1="15861" x2="992.276" y2="15861" gradientUnits="userSpaceOnUse">
<stop stop-color="#2DB5E9"/>
<stop offset="1" stop-color="#365EA9"/>
</linearGradient>
<linearGradient id="paint22_linear_1605_115589" x1="1872.65" y1="5900.6" x2="2467.89" y2="5900.6" gradientUnits="userSpaceOnUse">
<stop stop-color="#2DB5E9"/>
<stop offset="1" stop-color="#365EA9"/>
</linearGradient>
<linearGradient id="paint23_linear_1605_115589" x1="11719.5" y1="4119.19" x2="19258.1" y2="4119.19" gradientUnits="userSpaceOnUse">
<stop stop-color="#2DB5E9"/>
<stop offset="1" stop-color="#365EA9"/>
</linearGradient>
<linearGradient id="paint24_linear_1605_115589" x1="4862.14" y1="4403.35" x2="5179.1" y2="4403.35" gradientUnits="userSpaceOnUse">
<stop stop-color="#2DB5E9"/>
<stop offset="1" stop-color="#365EA9"/>
</linearGradient>
<linearGradient id="paint25_linear_1605_115589" x1="13844.3" y1="20070.2" x2="15842.7" y2="20070.2" gradientUnits="userSpaceOnUse">
<stop stop-color="#2DB5E9"/>
<stop offset="1" stop-color="#365EA9"/>
</linearGradient>
<linearGradient id="paint26_linear_1605_115589" x1="2912.75" y1="5404.5" x2="2972.72" y2="5404.5" gradientUnits="userSpaceOnUse">
<stop stop-color="#2DB5E9"/>
<stop offset="1" stop-color="#365EA9"/>
</linearGradient>
<linearGradient id="paint27_linear_1605_115589" x1="32647.7" y1="26237.9" x2="48081.6" y2="26237.9" gradientUnits="userSpaceOnUse">
<stop stop-color="#D7EDF3"/>
<stop offset="1" stop-color="#B1DBDB"/>
</linearGradient>
<linearGradient id="paint28_linear_1605_115589" x1="168.741" y1="135.951" x2="249.321" y2="135.951" gradientUnits="userSpaceOnUse">
<stop stop-color="#CBE8EF"/>
<stop offset="1" stop-color="#D9EEF4"/>
</linearGradient>
<clipPath id="clip0_1605_115589">
<rect width="265.421" height="223.62" fill="white" transform="translate(0.289795 0.189941)"/>
</clipPath>
</defs>
<g clip-path="url(#clip0_1605_115589)">
<path d="M58.5632 151.305C57.9323 151.309 57.3208 151.088 56.8392 150.68C56.3575 150.273 56.0375 149.706 55.937 149.083C55.8364 148.461 55.962 147.822 56.291 147.284C56.6199 146.746 57.1306 146.343 57.7307 146.148L86.139 136.891C86.4692 136.784 86.8172 136.742 87.1634 136.769C87.5095 136.796 87.8469 136.891 88.1563 137.049C88.4657 137.206 88.7411 137.423 88.9666 137.687C89.1922 137.951 89.3636 138.257 89.471 138.587C89.5784 138.917 89.6197 139.265 89.5926 139.611C89.5655 139.958 89.4705 140.295 89.313 140.604C89.1555 140.914 88.9386 141.189 88.6747 141.415C88.4107 141.64 88.105 141.812 87.7748 141.919L59.3957 151.176C59.1267 151.263 58.8458 151.306 58.5632 151.305Z" fill="white"/>
<path d="M62.5841 162.914C61.9532 162.918 61.3417 162.697 60.86 162.289C60.3784 161.882 60.0584 161.315 59.9579 160.693C59.8573 160.07 59.9829 159.431 60.3119 158.893C60.6408 158.355 61.1515 157.952 61.7516 157.757L83.4751 150.681C83.8053 150.573 84.1534 150.532 84.4996 150.559C84.8458 150.586 85.1834 150.68 85.493 150.838C85.8026 150.995 86.0782 151.212 86.304 151.476C86.5298 151.739 86.7015 152.045 86.8092 152.375C86.9168 152.705 86.9584 153.053 86.9316 153.4C86.9047 153.746 86.8099 154.084 86.6526 154.393C86.4953 154.703 86.2786 154.978 86.0148 155.204C85.7509 155.43 85.4452 155.602 85.1151 155.709L63.3874 162.785C63.1279 162.869 62.8569 162.913 62.5841 162.914Z" fill="white"/>
<path d="M192.517 67.575L206.141 134.286C206.927 138.171 206.142 142.209 203.958 145.517C201.774 148.825 198.368 151.132 194.486 151.934L82.705 174.752C78.8192 175.547 74.7768 174.765 71.4671 172.58C68.1574 170.394 65.8514 166.983 65.0565 163.098L63.2042 154.036L162.319 133.803C166.443 132.958 170.062 130.51 172.382 126.998C174.703 123.486 175.534 119.197 174.694 115.072L163.11 58.3095L174.864 55.9078C178.752 55.1202 182.793 55.9061 186.102 58.0931C189.411 60.2801 191.718 63.6899 192.517 67.575Z" fill="url(#paint0_linear_1605_115589)"/>
<path d="M162.352 133.973L54.7878 155.938C50.6143 156.786 46.275 155.943 42.722 153.595C39.1691 151.247 36.6928 147.585 35.8365 143.414L22.9331 80.1454C22.0855 75.9718 22.9281 71.6325 25.2762 68.0796C27.6243 64.5266 31.286 62.0503 35.4577 61.194L143.001 39.2125C147.175 38.3647 151.515 39.2073 155.069 41.5553C158.622 43.9033 161.1 47.565 161.957 51.7371L174.86 115.005C175.713 119.179 174.875 123.521 172.53 127.077C170.185 130.633 166.524 133.113 162.352 133.973ZM35.5118 61.5478C31.437 62.3853 27.8602 64.8036 25.5649 68.273C23.2696 71.7425 22.443 75.9802 23.2661 80.058L36.1903 143.326C37.0285 147.404 39.4497 150.982 42.9228 153.277C46.396 155.572 50.6375 156.396 54.7171 155.568L162.281 133.603C166.36 132.766 169.939 130.345 172.234 126.871C174.529 123.398 175.352 119.156 174.523 115.076L161.62 51.8079C161.205 49.7854 160.396 47.8644 159.238 46.1547C158.081 44.4449 156.598 42.9798 154.875 41.8431C153.151 40.7063 151.221 39.9202 149.194 39.5296C147.166 39.1389 145.082 39.1514 143.06 39.5663L35.5118 61.5478Z" fill="url(#paint1_linear_1605_115589)"/>
<path d="M162.352 133.973L54.7878 155.938C50.6143 156.786 46.275 155.943 42.722 153.595C39.1691 151.247 36.6928 147.585 35.8365 143.414L22.9331 80.1454C22.0855 75.9718 22.9281 71.6325 25.2762 68.0796C27.6243 64.5266 31.286 62.0503 35.4577 61.194L143.001 39.2125C147.175 38.3647 151.515 39.2073 155.069 41.5553C158.622 43.9033 161.1 47.565 161.957 51.7371L174.86 115.005C175.713 119.179 174.875 123.521 172.53 127.077C170.185 130.633 166.524 133.113 162.352 133.973ZM35.5118 61.5478C31.437 62.3853 27.8602 64.8036 25.5649 68.273C23.2696 71.7425 22.443 75.9802 23.2661 80.058L36.1903 143.326C37.0285 147.404 39.4497 150.982 42.9228 153.277C46.396 155.572 50.6375 156.396 54.7171 155.568L162.281 133.603C166.36 132.766 169.939 130.345 172.234 126.871C174.529 123.398 175.352 119.156 174.523 115.076L161.62 51.8079C161.205 49.7854 160.396 47.8644 159.238 46.1547C158.081 44.4449 156.598 42.9798 154.875 41.8431C153.151 40.7063 151.221 39.9202 149.194 39.5296C147.166 39.1389 145.082 39.1514 143.06 39.5663L35.5118 61.5478Z" fill="url(#paint2_linear_1605_115589)"/>
<path d="M143.063 39.2347L35.4993 61.197C26.9044 62.9519 21.3594 71.3421 23.1143 79.9371L36.0352 143.219C37.7902 151.814 46.1804 157.359 54.7754 155.604L162.339 133.642C170.934 131.887 176.479 123.497 174.724 114.902L161.803 51.6197C160.048 43.0247 151.658 37.4797 143.063 39.2347Z" fill="url(#paint3_linear_1605_115589)"/>
<path d="M132.937 118.052L56.2448 133.711C55.6544 133.832 55.0458 133.836 54.4539 133.722C53.862 133.608 53.2986 133.377 52.7958 133.045C52.2931 132.712 51.8609 132.284 51.5242 131.784C51.1875 131.284 50.9529 130.722 50.8337 130.131C50.7122 129.541 50.7085 128.932 50.8228 128.34C50.9371 127.748 51.1671 127.185 51.4997 126.682C51.8323 126.179 52.2609 125.747 52.7609 125.411C53.2609 125.074 53.8224 124.839 54.4134 124.72L131.105 109.061C131.696 108.94 132.304 108.936 132.896 109.05C133.488 109.165 134.052 109.395 134.554 109.727C135.057 110.06 135.489 110.488 135.826 110.988C136.163 111.488 136.397 112.05 136.516 112.641C136.638 113.231 136.642 113.84 136.527 114.432C136.413 115.024 136.183 115.587 135.85 116.09C135.518 116.593 135.089 117.025 134.589 117.361C134.089 117.698 133.528 117.933 132.937 118.052Z" fill="white"/>
<path d="M61.3578 88.1238L48.6745 90.7134C45.6924 91.3223 43.7685 94.2334 44.3774 97.2155L45.4282 102.362C46.0371 105.344 48.9482 107.268 51.9303 106.659L64.6137 104.07C67.5958 103.461 69.5197 100.55 68.9108 97.5676L67.8599 92.4209C67.251 89.4388 64.34 87.5149 61.3578 88.1238Z" fill="white"/>
<g opacity="0.79">
<path opacity="0.79" d="M5.82993 151.051H2.05881C1.58964 151.051 1.13968 150.865 0.807927 150.533C0.476173 150.201 0.289795 149.751 0.289795 149.282C0.289795 148.813 0.476173 148.363 0.807927 148.031C1.13968 147.7 1.58964 147.513 2.05881 147.513H5.82993C6.2991 147.513 6.74906 147.7 7.08081 148.031C7.41257 148.363 7.59894 148.813 7.59894 149.282C7.59894 149.751 7.41257 150.201 7.08081 150.533C6.74906 150.865 6.2991 151.051 5.82993 151.051Z" fill="url(#paint4_linear_1605_115589)"/>
<path opacity="0.79" d="M20.4524 151.051H16.2068C15.7376 151.051 15.2876 150.865 14.9559 150.533C14.6241 150.201 14.4377 149.751 14.4377 149.282C14.4377 148.813 14.6241 148.363 14.9559 148.031C15.2876 147.7 15.7376 147.513 16.2068 147.513H20.4524C20.9216 147.513 21.3715 147.7 21.7033 148.031C22.035 148.363 22.2214 148.813 22.2214 149.282C22.2214 149.751 22.035 150.201 21.7033 150.533C21.3715 150.865 20.9216 151.051 20.4524 151.051Z" fill="url(#paint5_linear_1605_115589)"/>
<path opacity="0.79" d="M11.1371 160.367C10.6679 160.367 10.2179 160.18 9.88617 159.848C9.55442 159.517 9.36804 159.067 9.36804 158.598V154.822C9.36804 154.353 9.55442 153.903 9.88617 153.571C10.2179 153.24 10.6679 153.053 11.1371 153.053C11.6062 153.053 12.0562 153.24 12.3879 153.571C12.7197 153.903 12.9061 154.353 12.9061 154.822V158.598C12.9061 159.067 12.7197 159.517 12.3879 159.848C12.0562 160.18 11.6062 160.367 11.1371 160.367Z" fill="url(#paint6_linear_1605_115589)"/>
<path opacity="0.79" d="M11.1371 146.215C10.6679 146.215 10.2179 146.028 9.88617 145.696C9.55442 145.365 9.36804 144.915 9.36804 144.446V140.204C9.36804 139.735 9.55442 139.285 9.88617 138.953C10.2179 138.621 10.6679 138.435 11.1371 138.435C11.6062 138.435 12.0562 138.621 12.3879 138.953C12.7197 139.285 12.9061 139.735 12.9061 140.204V144.446C12.9061 144.915 12.7197 145.365 12.3879 145.696C12.0562 146.028 11.6062 146.215 11.1371 146.215Z" fill="url(#paint7_linear_1605_115589)"/>
<path opacity="0.79" d="M171.385 180.059H167.618C167.148 180.059 166.699 179.872 166.367 179.54C166.035 179.209 165.849 178.759 165.849 178.29C165.849 177.82 166.035 177.37 166.367 177.039C166.699 176.707 167.148 176.521 167.618 176.521H171.389C171.858 176.521 172.308 176.707 172.64 177.039C172.971 177.37 173.158 177.82 173.158 178.29C173.158 178.759 172.971 179.209 172.64 179.54C172.308 179.872 171.858 180.059 171.389 180.059H171.385Z" fill="url(#paint8_linear_1605_115589)"/>
<path opacity="0.79" d="M186.007 180.059H181.77C181.301 180.059 180.851 179.872 180.519 179.54C180.187 179.209 180.001 178.759 180.001 178.29C180.001 177.82 180.187 177.37 180.519 177.039C180.851 176.707 181.301 176.521 181.77 176.521H186.015C186.485 176.521 186.935 176.707 187.266 177.039C187.598 177.37 187.784 177.82 187.784 178.29C187.784 178.759 187.598 179.209 187.266 179.54C186.935 179.872 186.485 180.059 186.015 180.059H186.007Z" fill="url(#paint9_linear_1605_115589)"/>
<path opacity="0.79" d="M176.692 189.374C176.223 189.374 175.773 189.188 175.441 188.856C175.109 188.524 174.923 188.075 174.923 187.605V183.83C174.923 183.361 175.109 182.911 175.441 182.579C175.773 182.247 176.223 182.061 176.692 182.061C177.161 182.061 177.611 182.247 177.943 182.579C178.274 182.911 178.461 183.361 178.461 183.83V187.605C178.461 188.075 178.274 188.524 177.943 188.856C177.611 189.188 177.161 189.374 176.692 189.374Z" fill="url(#paint10_linear_1605_115589)"/>
<path opacity="0.79" d="M176.692 175.222C176.223 175.222 175.773 175.036 175.441 174.704C175.109 174.372 174.923 173.922 174.923 173.453V169.207C174.923 168.738 175.109 168.288 175.441 167.957C175.773 167.625 176.223 167.438 176.692 167.438C177.161 167.438 177.611 167.625 177.943 167.957C178.274 168.288 178.461 168.738 178.461 169.207V173.453C178.461 173.922 178.274 174.372 177.943 174.704C177.611 175.036 177.161 175.222 176.692 175.222Z" fill="url(#paint11_linear_1605_115589)"/>
<path opacity="0.79" d="M210.299 31.7197H206.524C206.054 31.7197 205.604 31.5333 205.273 31.2015C204.941 30.8698 204.755 30.4198 204.755 29.9507C204.755 29.4815 204.941 29.0315 205.273 28.6998C205.604 28.368 206.054 28.1816 206.524 28.1816H210.299C210.768 28.1816 211.218 28.368 211.55 28.6998C211.881 29.0315 212.068 29.4815 212.068 29.9507C212.068 30.4198 211.881 30.8698 211.55 31.2015C211.218 31.5333 210.768 31.7197 210.299 31.7197Z" fill="url(#paint12_linear_1605_115589)"/>
<path opacity="0.79" d="M224.917 31.7197H220.671C220.202 31.7197 219.752 31.5333 219.421 31.2015C219.089 30.8698 218.902 30.4198 218.902 29.9507C218.902 29.4815 219.089 29.0315 219.421 28.6998C219.752 28.368 220.202 28.1816 220.671 28.1816H224.917C225.386 28.1816 225.836 28.368 226.168 28.6998C226.5 29.0315 226.686 29.4815 226.686 29.9507C226.686 30.4198 226.5 30.8698 226.168 31.2015C225.836 31.5333 225.386 31.7197 224.917 31.7197Z" fill="url(#paint13_linear_1605_115589)"/>
<path opacity="0.79" d="M215.602 41.0352C215.368 41.0369 215.137 40.9923 214.921 40.9042C214.705 40.816 214.508 40.686 214.343 40.5215C214.177 40.3571 214.046 40.1615 213.956 39.9461C213.866 39.7306 213.82 39.4996 213.82 39.2662V35.4951C213.82 35.0259 214.007 34.576 214.338 34.2442C214.67 33.9125 215.12 33.7261 215.589 33.7261C216.058 33.7261 216.508 33.9125 216.84 34.2442C217.172 34.576 217.358 35.0259 217.358 35.4951V39.2662C217.358 39.7332 217.174 40.1813 216.844 40.5127C216.515 40.8441 216.069 41.0319 215.602 41.0352Z" fill="url(#paint14_linear_1605_115589)"/>
<path opacity="0.79" d="M215.602 26.8872C215.368 26.8883 215.137 26.8434 214.922 26.755C214.706 26.6666 214.509 26.5366 214.344 26.3722C214.178 26.2079 214.047 26.0126 213.957 25.7974C213.867 25.5822 213.821 25.3514 213.82 25.1182V20.8725C213.82 20.4034 214.007 19.9534 214.338 19.6216C214.67 19.2899 215.12 19.1035 215.589 19.1035C216.058 19.1035 216.508 19.2899 216.84 19.6216C217.172 19.9534 217.358 20.4034 217.358 20.8725V25.1182C217.358 25.5852 217.174 26.0333 216.844 26.3647C216.515 26.696 216.069 26.8839 215.602 26.8872Z" fill="url(#paint15_linear_1605_115589)"/>
<path opacity="0.79" d="M32.0238 191.847C30.8888 191.848 29.7789 191.513 28.8344 190.884C27.89 190.254 27.1535 189.359 26.7183 188.311C26.283 187.262 26.1685 186.109 26.3892 184.995C26.6099 183.882 27.1559 182.859 27.9582 182.056C28.7604 181.254 29.7828 180.707 30.8959 180.485C32.0091 180.264 33.1629 180.377 34.2114 180.812C35.2599 181.247 36.1559 181.982 36.786 182.926C37.4161 183.87 37.752 184.98 37.7512 186.115C37.749 187.634 37.145 189.09 36.0715 190.164C34.998 191.238 33.5425 191.843 32.0238 191.847ZM32.0238 183.917C31.5889 183.916 31.1636 184.045 30.8016 184.286C30.4397 184.527 30.1573 184.869 29.9903 185.271C29.8234 185.673 29.7792 186.115 29.8636 186.541C29.9479 186.968 30.1569 187.36 30.4641 187.667C30.7713 187.975 31.1629 188.185 31.5893 188.27C32.0157 188.355 32.4578 188.312 32.8597 188.146C33.2615 187.98 33.605 187.698 33.8467 187.336C34.0883 186.975 34.2173 186.55 34.2173 186.115C34.2162 185.533 33.9849 184.975 33.5739 184.564C33.1629 184.152 32.6056 183.919 32.0238 183.917Z" fill="url(#paint16_linear_1605_115589)"/>
<path opacity="0.79" d="M220.671 80.9398C219.537 80.9398 218.428 80.6034 217.485 79.9732C216.542 79.3429 215.806 78.4471 215.372 77.399C214.938 76.3509 214.825 75.1977 215.046 74.085C215.267 72.9724 215.813 71.9504 216.616 71.1482C217.418 70.3461 218.44 69.7998 219.552 69.5785C220.665 69.3572 221.818 69.4707 222.866 69.9049C223.915 70.339 224.81 71.0742 225.441 72.0174C226.071 72.9607 226.407 74.0696 226.407 75.204C226.406 76.7249 225.801 78.1832 224.726 79.2586C223.651 80.334 222.192 80.9387 220.671 80.9398ZM220.671 73.0105C220.237 73.0105 219.812 73.1395 219.45 73.3811C219.089 73.6228 218.807 73.9663 218.641 74.3681C218.474 74.7699 218.431 75.2121 218.516 75.6385C218.601 76.0649 218.811 76.4565 219.119 76.7637C219.427 77.0709 219.819 77.2799 220.245 77.3642C220.672 77.4485 221.114 77.4044 221.515 77.2374C221.917 77.0705 222.26 76.7881 222.501 76.4262C222.742 76.0642 222.87 75.6389 222.869 75.204C222.871 74.9144 222.815 74.6272 222.705 74.3592C222.596 74.0911 222.434 73.8473 222.23 73.6419C222.026 73.4365 221.783 73.2735 221.515 73.1623C221.248 73.0511 220.961 72.9938 220.671 72.9938V73.0105Z" fill="url(#paint17_linear_1605_115589)"/>
</g>
<g opacity="0.79">
<path opacity="0.79" d="M182.119 24.748C181.745 24.7495 181.381 24.6314 181.079 24.4108C177.677 21.9365 174.136 19.6601 170.473 17.5928C170.248 17.4931 170.046 17.3475 169.88 17.1651C169.714 16.9828 169.588 16.7679 169.51 16.5341C169.433 16.3003 169.404 16.0528 169.428 15.8075C169.451 15.5622 169.525 15.3245 169.646 15.1096C169.767 14.8947 169.931 14.7073 170.128 14.5595C170.325 14.4117 170.551 14.3068 170.791 14.2514C171.031 14.196 171.28 14.1913 171.522 14.2377C171.764 14.2842 171.994 14.3806 172.196 14.521C175.979 16.6558 179.636 19.0073 183.148 21.5637C183.448 21.7838 183.672 22.0933 183.786 22.448C183.901 22.8028 183.901 23.1846 183.785 23.539C183.67 23.8935 183.445 24.2024 183.144 24.4217C182.843 24.6411 182.48 24.7596 182.107 24.7605L182.119 24.748Z" fill="url(#paint18_linear_1605_115589)"/>
<path opacity="0.79" d="M84.6738 8.67709C84.2503 8.67744 83.8408 8.52587 83.5196 8.24992C83.1984 7.97397 82.9868 7.59195 82.9233 7.17327C82.8598 6.75459 82.9486 6.32703 83.1736 5.96827C83.3986 5.60951 83.7448 5.34335 84.1493 5.21815C103.445 -0.751643 123.992 -1.41875 143.634 3.2868C144.083 3.40386 144.468 3.69247 144.706 4.09049C144.944 4.4885 145.016 4.96409 144.907 5.41484C144.798 5.86559 144.516 6.25546 144.122 6.50049C143.728 6.74552 143.254 6.82612 142.801 6.72493C123.782 2.17186 103.887 2.81737 85.2024 8.59384C85.0313 8.64787 84.8532 8.67593 84.6738 8.67709Z" fill="url(#paint19_linear_1605_115589)"/>
<path opacity="0.79" d="M41.8679 33.743C41.5147 33.7407 41.1703 33.6327 40.879 33.4329C40.5877 33.2332 40.3629 32.9508 40.2335 32.6221C40.1041 32.2935 40.076 31.9336 40.1529 31.5889C40.2298 31.2441 40.4082 30.9303 40.665 30.6878C42.4173 29.0228 44.2405 27.4203 46.0761 25.8844C46.2534 25.7258 46.4609 25.6046 46.6862 25.5281C46.9114 25.4516 47.1498 25.4213 47.3871 25.439C47.6243 25.4567 47.8555 25.5221 48.0669 25.6313C48.2783 25.7404 48.4655 25.8911 48.6173 26.0743C48.7691 26.2575 48.8824 26.4694 48.9504 26.6974C49.0184 26.9253 49.0398 27.1647 49.0131 27.4011C48.9865 27.6375 48.9125 27.8661 48.7955 28.0733C48.6784 28.2804 48.5208 28.4618 48.3321 28.6066C46.5423 30.0926 44.7732 31.6576 43.0792 33.2602C42.7514 33.5691 42.3183 33.7417 41.8679 33.743Z" fill="url(#paint20_linear_1605_115589)"/>
<path opacity="0.79" d="M8.23575 127.763C7.80566 127.763 7.39025 127.606 7.06757 127.322C6.74489 127.038 6.53715 126.645 6.48339 126.219C5.29574 116.8 5.29574 107.27 6.48339 97.8518C8.28653 83.4505 12.9027 69.544 20.0694 56.9231C20.1842 56.7209 20.3377 56.5432 20.5212 56.4003C20.7046 56.2574 20.9144 56.152 21.1386 56.0901C21.3628 56.0283 21.5969 56.0112 21.8277 56.0399C22.0585 56.0685 22.2814 56.1423 22.4836 56.2571C22.6858 56.3719 22.8635 56.5254 23.0064 56.7089C23.1494 56.8923 23.2547 57.1021 23.3166 57.3263C23.3784 57.5505 23.3955 57.7846 23.3669 58.0154C23.3382 58.2462 23.2644 58.4691 23.1496 58.6713C16.2041 70.8884 11.7306 84.3528 9.98396 98.2972C8.8355 107.418 8.8355 116.648 9.98396 125.769C10.0429 126.234 9.91463 126.704 9.62739 127.075C9.34016 127.445 8.91745 127.687 8.4522 127.746C8.3804 127.756 8.30815 127.761 8.23575 127.763Z" fill="url(#paint21_linear_1605_115589)"/>
<path opacity="0.79" d="M62.4342 209.142C62.1242 209.143 61.8196 209.061 61.5518 208.905C57.2451 206.415 53.1083 203.642 49.1687 200.605C48.8062 200.315 48.5719 199.895 48.5164 199.434C48.4609 198.974 48.5885 198.51 48.8718 198.142C49.1552 197.775 49.5715 197.534 50.0311 197.47C50.4907 197.407 50.9568 197.527 51.3289 197.804C55.145 200.735 59.151 203.41 63.3208 205.812C63.6734 206 63.9522 206.301 64.1117 206.667C64.2713 207.033 64.3022 207.443 64.1994 207.829C64.0966 208.215 63.8662 208.555 63.5457 208.793C63.2252 209.032 62.8334 209.155 62.4342 209.142Z" fill="url(#paint22_linear_1605_115589)"/>
<path opacity="0.79" d="M117.398 223.81C107.474 223.816 97.5917 222.505 88.012 219.91C87.7833 219.853 87.5681 219.751 87.3793 219.61C87.1904 219.469 87.0316 219.292 86.9122 219.089C86.7928 218.886 86.7153 218.661 86.684 218.427C86.6528 218.194 86.6686 217.956 86.7305 217.729C86.7923 217.501 86.899 217.288 87.0442 217.103C87.1894 216.917 87.3703 216.762 87.5761 216.648C87.782 216.533 88.0087 216.46 88.243 216.435C88.4772 216.409 88.7143 216.43 88.9403 216.497C105.793 221.052 123.494 221.496 140.554 217.791C141.013 217.691 141.492 217.778 141.887 218.031C142.282 218.285 142.56 218.685 142.66 219.144C142.76 219.603 142.674 220.082 142.42 220.477C142.166 220.872 141.766 221.15 141.307 221.25C133.452 222.954 125.437 223.812 117.398 223.81Z" fill="url(#paint23_linear_1605_115589)"/>
<path opacity="0.79" d="M171.364 209.708C170.973 209.708 170.593 209.578 170.284 209.34C169.974 209.101 169.753 208.767 169.653 208.389C169.554 208.011 169.583 207.61 169.735 207.25C169.887 206.891 170.154 206.591 170.494 206.399C173.137 204.909 175.751 203.285 178.261 201.575C178.451 201.423 178.671 201.312 178.906 201.249C179.141 201.185 179.386 201.171 179.627 201.208C179.868 201.244 180.099 201.329 180.305 201.458C180.511 201.588 180.688 201.758 180.825 201.959C180.963 202.16 181.057 202.388 181.103 202.627C181.148 202.866 181.144 203.112 181.09 203.349C181.036 203.587 180.933 203.81 180.789 204.006C180.644 204.202 180.461 204.366 180.25 204.488C177.657 206.253 174.96 207.926 172.23 209.483C171.965 209.631 171.667 209.708 171.364 209.708Z" fill="url(#paint24_linear_1605_115589)"/>
<path opacity="0.79" d="M199.044 187.552C198.701 187.551 198.367 187.452 198.08 187.265C197.793 187.079 197.567 186.813 197.428 186.5C197.289 186.187 197.244 185.841 197.298 185.503C197.352 185.165 197.503 184.85 197.732 184.596C209.813 171.231 218.371 155.065 222.632 137.561C222.749 137.113 223.038 136.728 223.436 136.49C223.834 136.252 224.309 136.179 224.76 136.288C225.211 136.398 225.601 136.679 225.846 137.073C226.091 137.467 226.171 137.941 226.07 138.394C221.668 156.466 212.83 173.156 200.355 186.952C200.191 187.139 199.99 187.289 199.764 187.393C199.538 187.496 199.292 187.55 199.044 187.552Z" fill="url(#paint25_linear_1605_115589)"/>
<path opacity="0.79" d="M227.439 113.769C226.97 113.769 226.52 113.583 226.189 113.251C225.857 112.919 225.67 112.469 225.67 112C225.67 108.741 225.525 105.457 225.254 102.231C225.017 99.5878 224.68 96.9281 224.251 94.3224C224.175 93.8593 224.286 93.3849 224.559 93.0036C224.833 92.6223 225.247 92.3653 225.71 92.2891C226.173 92.2129 226.647 92.3238 227.029 92.5974C227.41 92.871 227.667 93.2849 227.743 93.748C228.184 96.4411 228.534 99.1882 228.776 101.915C229.075 105.245 229.225 108.637 229.225 112C229.225 112.234 229.179 112.465 229.089 112.681C228.999 112.897 228.867 113.092 228.701 113.257C228.535 113.421 228.338 113.551 228.121 113.639C227.905 113.727 227.673 113.771 227.439 113.769Z" fill="url(#paint26_linear_1605_115589)"/>
</g>
<path d="M237.373 164.286C253.023 148.636 253.023 123.262 237.373 107.611C221.722 91.9607 196.348 91.9607 180.697 107.611C165.047 123.262 165.047 148.636 180.697 164.286C196.348 179.937 221.722 179.937 237.373 164.286Z" fill="url(#paint27_linear_1605_115589)"/>
<path d="M209.033 176.259C201.064 176.26 193.273 173.897 186.647 169.47C180.02 165.043 174.855 158.751 171.805 151.388C168.755 144.026 167.957 135.924 169.511 128.108C171.066 120.291 174.903 113.112 180.539 107.477C186.174 101.841 193.353 98.0038 201.17 96.4493C208.986 94.8948 217.088 95.693 224.45 98.7431C231.813 101.793 238.105 106.958 242.532 113.585C246.959 120.211 249.322 128.002 249.321 135.971C249.308 146.652 245.059 156.892 237.507 164.444C229.954 171.997 219.714 176.246 209.033 176.259ZM209.033 96.1082C201.149 96.1074 193.441 98.4446 186.885 102.824C180.329 107.204 175.219 113.43 172.202 120.714C169.184 127.997 168.394 136.013 169.931 143.746C171.469 151.479 175.265 158.582 180.84 164.157C186.415 169.733 193.518 173.53 201.251 175.068C208.984 176.607 216.999 175.818 224.283 172.801C231.567 169.783 237.794 164.674 242.174 158.119C246.554 151.563 248.892 143.856 248.892 135.971C248.886 125.4 244.685 115.263 237.212 107.785C229.739 100.308 219.605 96.1006 209.033 96.0874V96.1082Z" fill="url(#paint28_linear_1605_115589)"/>
<path d="M207.934 151.701C207.481 151.701 207.033 151.606 206.619 151.421C206.205 151.236 205.835 150.965 205.533 150.627L187.51 130.419C186.941 129.782 186.649 128.945 186.697 128.092C186.746 127.24 187.131 126.442 187.768 125.873C188.405 125.305 189.241 125.013 190.094 125.061C190.946 125.109 191.745 125.494 192.313 126.131L207.656 143.334L224.759 119.409C225.256 118.715 226.008 118.246 226.85 118.106C227.692 117.967 228.556 118.167 229.25 118.664C229.944 119.161 230.413 119.913 230.553 120.755C230.692 121.598 230.492 122.461 229.995 123.155L210.553 150.361C210.272 150.754 209.906 151.078 209.482 151.31C209.058 151.542 208.588 151.676 208.105 151.701H207.934Z" fill="white"/>
</g>
</svg>
