<svg width="252" height="246" viewBox="0 0 252 246" fill="none" xmlns="http://www.w3.org/2000/svg">
<defs>
<linearGradient id="paint0_linear_1670_215509" x1="0.75" y1="163.797" x2="8.74966" y2="163.797" gradientUnits="userSpaceOnUse">
<stop stop-color="#2DB5E9"/>
<stop offset="1" stop-color="#365EA9"/>
</linearGradient>
<linearGradient id="paint1_linear_1670_215509" x1="315.057" y1="1594.3" x2="479.413" y2="1594.3" gradientUnits="userSpaceOnUse">
<stop stop-color="#2DB5E9"/>
<stop offset="1" stop-color="#365EA9"/>
</linearGradient>
<linearGradient id="paint2_linear_1670_215509" x1="97.8313" y1="3239.07" x2="131.768" y2="3239.07" gradientUnits="userSpaceOnUse">
<stop stop-color="#2DB5E9"/>
<stop offset="1" stop-color="#365EA9"/>
</linearGradient>
<linearGradient id="paint3_linear_1670_215509" x1="97.8313" y1="3122.85" x2="131.768" y2="3122.85" gradientUnits="userSpaceOnUse">
<stop stop-color="#2DB5E9"/>
<stop offset="1" stop-color="#365EA9"/>
</linearGradient>
<linearGradient id="paint4_linear_1670_215509" x1="3468.06" y1="1904.74" x2="3613.18" y2="1904.74" gradientUnits="userSpaceOnUse">
<stop stop-color="#2DB5E9"/>
<stop offset="1" stop-color="#365EA9"/>
</linearGradient>
<linearGradient id="paint5_linear_1670_215509" x1="3994.47" y1="1904.74" x2="4158.91" y2="1904.74" gradientUnits="userSpaceOnUse">
<stop stop-color="#2DB5E9"/>
<stop offset="1" stop-color="#365EA9"/>
</linearGradient>
<linearGradient id="paint6_linear_1670_215509" x1="1869.67" y1="3924.85" x2="1903.64" y2="3924.85" gradientUnits="userSpaceOnUse">
<stop stop-color="#2DB5E9"/>
<stop offset="1" stop-color="#365EA9"/>
</linearGradient>
<linearGradient id="paint7_linear_1670_215509" x1="1869.67" y1="3837.21" x2="1903.64" y2="3837.21" gradientUnits="userSpaceOnUse">
<stop stop-color="#2DB5E9"/>
<stop offset="1" stop-color="#365EA9"/>
</linearGradient>
<linearGradient id="paint8_linear_1670_215509" x1="4283.12" y1="317.225" x2="4428.31" y2="317.225" gradientUnits="userSpaceOnUse">
<stop stop-color="#2DB5E9"/>
<stop offset="1" stop-color="#365EA9"/>
</linearGradient>
<linearGradient id="paint9_linear_1670_215509" x1="4859.43" y1="317.225" x2="5023.87" y2="317.225" gradientUnits="userSpaceOnUse">
<stop stop-color="#2DB5E9"/>
<stop offset="1" stop-color="#365EA9"/>
</linearGradient>
<linearGradient id="paint10_linear_1670_215509" x1="2283.77" y1="767.126" x2="2317.71" y2="767.126" gradientUnits="userSpaceOnUse">
<stop stop-color="#2DB5E9"/>
<stop offset="1" stop-color="#365EA9"/>
</linearGradient>
<linearGradient id="paint11_linear_1670_215509" x1="2283.77" y1="498.117" x2="2317.71" y2="498.117" gradientUnits="userSpaceOnUse">
<stop stop-color="#2DB5E9"/>
<stop offset="1" stop-color="#365EA9"/>
</linearGradient>
<linearGradient id="paint12_linear_1670_215509" x1="838.345" y1="5983.96" x2="1195.11" y2="5983.96" gradientUnits="userSpaceOnUse">
<stop stop-color="#2DB5E9"/>
<stop offset="1" stop-color="#365EA9"/>
</linearGradient>
<linearGradient id="paint13_linear_1670_215509" x1="6915.89" y1="2410.53" x2="7272.65" y2="2410.53" gradientUnits="userSpaceOnUse">
<stop stop-color="#2DB5E9"/>
<stop offset="1" stop-color="#365EA9"/>
</linearGradient>
<linearGradient id="paint14_linear_1670_215509" x1="6761.86" y1="565.554" x2="7317.92" y2="565.554" gradientUnits="userSpaceOnUse">
<stop stop-color="#2DB5E9"/>
<stop offset="1" stop-color="#365EA9"/>
</linearGradient>
<linearGradient id="paint15_linear_1670_215509" x1="14014.6" y1="98.1223" x2="24477" y2="98.1223" gradientUnits="userSpaceOnUse">
<stop stop-color="#2DB5E9"/>
<stop offset="1" stop-color="#365EA9"/>
</linearGradient>
<linearGradient id="paint16_linear_1670_215509" x1="1006.71" y1="690.06" x2="1221.35" y2="690.06" gradientUnits="userSpaceOnUse">
<stop stop-color="#2DB5E9"/>
<stop offset="1" stop-color="#365EA9"/>
</linearGradient>
<linearGradient id="paint17_linear_1670_215509" x1="263.204" y1="17944.1" x2="1124.96" y2="17944.1" gradientUnits="userSpaceOnUse">
<stop stop-color="#2DB5E9"/>
<stop offset="1" stop-color="#365EA9"/>
</linearGradient>
<linearGradient id="paint18_linear_1670_215509" x1="2105.23" y1="6657.17" x2="2774.77" y2="6657.17" gradientUnits="userSpaceOnUse">
<stop stop-color="#2DB5E9"/>
<stop offset="1" stop-color="#365EA9"/>
</linearGradient>
<linearGradient id="paint19_linear_1670_215509" x1="13220.4" y1="4632.71" x2="21725.9" y2="4632.71" gradientUnits="userSpaceOnUse">
<stop stop-color="#2DB5E9"/>
<stop offset="1" stop-color="#365EA9"/>
</linearGradient>
<linearGradient id="paint20_linear_1670_215509" x1="5413.98" y1="4908.43" x2="5767.02" y2="4908.43" gradientUnits="userSpaceOnUse">
<stop stop-color="#2DB5E9"/>
<stop offset="1" stop-color="#365EA9"/>
</linearGradient>
<linearGradient id="paint21_linear_1670_215509" x1="15643.3" y1="22697.2" x2="17902.4" y2="22697.2" gradientUnits="userSpaceOnUse">
<stop stop-color="#2DB5E9"/>
<stop offset="1" stop-color="#365EA9"/>
</linearGradient>
<linearGradient id="paint22_linear_1670_215509" x1="3276.27" y1="6086.83" x2="3343.88" y2="6086.83" gradientUnits="userSpaceOnUse">
<stop stop-color="#2DB5E9"/>
<stop offset="1" stop-color="#365EA9"/>
</linearGradient>
<linearGradient id="paint23_linear_1670_215509" x1="11577.3" y1="11361.1" x2="23291.1" y2="34670.5" gradientUnits="userSpaceOnUse">
<stop stop-color="#2DB5E9"/>
<stop offset="1" stop-color="#365EA9"/>
</linearGradient>
<linearGradient id="paint24_linear_1670_215509" x1="13990.1" y1="3486.84" x2="33218.8" y2="27821.8" gradientUnits="userSpaceOnUse">
<stop stop-color="#2DB5E9"/>
<stop offset="1" stop-color="#365EA9"/>
</linearGradient>
<linearGradient id="paint25_linear_1670_215509" x1="18362.5" y1="16013.4" x2="23866.4" y2="16013.4" gradientUnits="userSpaceOnUse">
<stop stop-color="#2DB5E9"/>
<stop offset="1" stop-color="#365EA9"/>
</linearGradient>
<linearGradient id="paint26_linear_1670_215509" x1="128.229" y1="167.583" x2="198.853" y2="167.583" gradientUnits="userSpaceOnUse">
<stop stop-color="#D7EDF3"/>
<stop offset="1" stop-color="#B1DBDB"/>
</linearGradient>
<linearGradient id="paint27_linear_1670_215509" x1="128.135" y1="167.583" x2="198.95" y2="167.583" gradientUnits="userSpaceOnUse">
<stop stop-color="#CBE8EF"/>
<stop offset="1" stop-color="#B4D6D6"/>
</linearGradient>
<linearGradient id="paint28_linear_1670_215509" x1="5803.43" y1="11023.2" x2="9583.76" y2="8522.83" gradientUnits="userSpaceOnUse">
<stop stop-color="#2DB5E9"/>
<stop offset="1" stop-color="#365EA9"/>
</linearGradient>
<linearGradient id="paint29_linear_1670_215509" x1="6002.83" y1="20766.1" x2="10824.3" y2="19047.1" gradientUnits="userSpaceOnUse">
<stop stop-color="#2DB5E9"/>
<stop offset="1" stop-color="#365EA9"/>
</linearGradient>
<linearGradient id="paint30_linear_1670_215509" x1="6268.44" y1="28190.6" x2="11332.1" y2="26820.4" gradientUnits="userSpaceOnUse">
<stop stop-color="#2DB5E9"/>
<stop offset="1" stop-color="#365EA9"/>
</linearGradient>
<clipPath id="clip0_1670_215509">
<rect width="250.5" height="244.702" fill="white" transform="translate(0.75 0.648926)"/>
</clipPath>
</defs>
<g clip-path="url(#clip0_1670_215509)">
<g opacity="0.79">
<path opacity="0.79" d="M6.81262 165.734H2.68704C2.1733 165.734 1.68061 165.53 1.31735 165.167C0.95408 164.803 0.75 164.311 0.75 163.797C0.75 163.283 0.95408 162.79 1.31735 162.427C1.68061 162.064 2.1733 161.86 2.68704 161.86H6.81262C7.32635 161.86 7.81905 162.064 8.18231 162.427C8.54558 162.79 8.74966 163.283 8.74966 163.797C8.74966 164.311 8.54558 164.803 8.18231 165.167C7.81905 165.53 7.32635 165.734 6.81262 165.734Z" fill="url(#paint0_linear_1670_215509)"/>
<path opacity="0.79" d="M22.8123 165.734H18.1704C17.6567 165.734 17.164 165.53 16.8007 165.167C16.4375 164.803 16.2334 164.311 16.2334 163.797C16.2334 163.283 16.4375 162.79 16.8007 162.427C17.164 162.064 17.6567 161.86 18.1704 161.86H22.8123C23.326 161.86 23.8187 162.064 24.182 162.427C24.5452 162.79 24.7493 163.283 24.7493 163.797C24.7493 164.311 24.5452 164.803 24.182 165.167C23.8187 165.53 23.326 165.734 22.8123 165.734Z" fill="url(#paint1_linear_1670_215509)"/>
<path opacity="0.79" d="M12.6191 175.927C12.1062 175.926 11.6146 175.721 11.2523 175.358C10.89 174.995 10.6865 174.503 10.6865 173.99V169.86C10.7103 169.363 10.9245 168.894 11.2847 168.55C11.645 168.207 12.1236 168.015 12.6214 168.015C13.1191 168.015 13.5977 168.207 13.958 168.55C14.3182 168.894 14.5324 169.363 14.5562 169.86V173.99C14.5562 174.244 14.5061 174.496 14.4087 174.731C14.3114 174.966 14.1687 175.18 13.9888 175.359C13.809 175.539 13.5954 175.682 13.3604 175.779C13.1254 175.877 12.8735 175.927 12.6191 175.927Z" fill="url(#paint2_linear_1670_215509)"/>
<path opacity="0.79" d="M12.6191 160.444C12.1062 160.442 11.6146 160.238 11.2523 159.875C10.89 159.511 10.6865 159.019 10.6865 158.506V153.86C10.7103 153.363 10.9245 152.894 11.2847 152.551C11.645 152.207 12.1236 152.016 12.6214 152.016C13.1191 152.016 13.5977 152.207 13.958 152.551C14.3182 152.894 14.5324 153.363 14.5562 153.86V158.506C14.5562 158.761 14.5061 159.013 14.4087 159.248C14.3114 159.483 14.1687 159.696 13.9888 159.876C13.809 160.056 13.5954 160.199 13.3604 160.296C13.1254 160.393 12.8735 160.444 12.6191 160.444Z" fill="url(#paint3_linear_1670_215509)"/>
<path opacity="0.79" d="M187.977 197.472H183.864C183.603 197.485 183.341 197.444 183.095 197.353C182.85 197.261 182.625 197.121 182.435 196.94C182.246 196.759 182.095 196.541 181.991 196.3C181.888 196.059 181.835 195.8 181.835 195.538C181.835 195.275 181.888 195.016 181.991 194.775C182.095 194.534 182.246 194.317 182.435 194.136C182.625 193.955 182.85 193.814 183.095 193.723C183.341 193.631 183.603 193.59 183.864 193.603H187.994C188.492 193.627 188.961 193.841 189.304 194.201C189.647 194.561 189.839 195.04 189.839 195.538C189.839 196.035 189.647 196.514 189.304 196.874C188.961 197.234 188.492 197.449 187.994 197.472H187.977Z" fill="url(#paint4_linear_1670_215509)"/>
<path opacity="0.79" d="M203.976 197.472H199.33C199.068 197.485 198.807 197.444 198.561 197.353C198.315 197.261 198.091 197.121 197.901 196.94C197.711 196.759 197.56 196.541 197.457 196.3C197.354 196.059 197.301 195.8 197.301 195.538C197.301 195.275 197.354 195.016 197.457 194.775C197.56 194.534 197.711 194.317 197.901 194.136C198.091 193.955 198.315 193.814 198.561 193.723C198.807 193.631 199.068 193.59 199.33 193.603H203.976C204.474 193.627 204.943 193.841 205.286 194.201C205.63 194.561 205.821 195.04 205.821 195.538C205.821 196.035 205.63 196.514 205.286 196.874C204.943 197.234 204.474 197.449 203.976 197.472Z" fill="url(#paint5_linear_1670_215509)"/>
<path opacity="0.79" d="M193.784 207.669C193.27 207.669 192.778 207.465 192.414 207.102C192.051 206.739 191.847 206.246 191.847 205.732V201.602C191.834 201.34 191.875 201.079 191.967 200.833C192.058 200.587 192.199 200.363 192.38 200.173C192.561 199.983 192.778 199.832 193.019 199.729C193.26 199.626 193.52 199.573 193.782 199.573C194.044 199.573 194.303 199.626 194.544 199.729C194.785 199.832 195.003 199.983 195.184 200.173C195.365 200.363 195.505 200.587 195.597 200.833C195.688 201.079 195.729 201.34 195.717 201.602V205.732C195.717 206.245 195.513 206.737 195.151 207.1C194.788 207.463 194.297 207.668 193.784 207.669Z" fill="url(#paint6_linear_1670_215509)"/>
<path opacity="0.79" d="M193.784 192.182C193.53 192.183 193.278 192.133 193.043 192.036C192.808 191.939 192.594 191.797 192.415 191.618C192.235 191.438 192.092 191.225 191.994 190.99C191.897 190.755 191.847 190.504 191.847 190.249V185.603C191.834 185.341 191.875 185.08 191.967 184.834C192.058 184.588 192.199 184.364 192.38 184.174C192.561 183.984 192.778 183.833 193.019 183.73C193.26 183.627 193.52 183.574 193.782 183.574C194.044 183.574 194.303 183.627 194.544 183.73C194.785 183.833 195.003 183.984 195.184 184.174C195.365 184.364 195.505 184.588 195.597 184.834C195.688 185.08 195.729 185.341 195.717 185.603V190.249C195.717 190.762 195.513 191.254 195.151 191.616C194.788 191.978 194.297 192.182 193.784 192.182Z" fill="url(#paint7_linear_1670_215509)"/>
<path opacity="0.79" d="M230.556 35.1539H226.426C225.913 35.1539 225.42 34.9498 225.057 34.5865C224.693 34.2233 224.489 33.7306 224.489 33.2168C224.489 32.7031 224.693 32.2104 225.057 31.8471C225.42 31.4839 225.913 31.2798 226.426 31.2798H230.556C231.07 31.2798 231.563 31.4839 231.926 31.8471C232.289 32.2104 232.493 32.7031 232.493 33.2168C232.493 33.7306 232.289 34.2233 231.926 34.5865C231.563 34.9498 231.07 35.1539 230.556 35.1539Z" fill="url(#paint8_linear_1670_215509)"/>
<path opacity="0.79" d="M246.555 35.1539H241.909C241.395 35.1539 240.902 34.9498 240.539 34.5865C240.176 34.2233 239.972 33.7306 239.972 33.2168C239.972 32.7031 240.176 32.2104 240.539 31.8471C240.902 31.4839 241.395 31.2798 241.909 31.2798H246.555C247.069 31.2798 247.561 31.4839 247.925 31.8471C248.288 32.2104 248.492 32.7031 248.492 33.2168C248.492 33.7306 248.288 34.2233 247.925 34.5865C247.561 34.9498 247.069 35.1539 246.555 35.1539Z" fill="url(#paint9_linear_1670_215509)"/>
<path opacity="0.79" d="M236.372 45.3467C235.858 45.3455 235.366 45.1411 235.003 44.7781C234.64 44.4151 234.436 43.923 234.435 43.4097V39.2797C234.458 38.7825 234.673 38.3136 235.033 37.9701C235.393 37.6267 235.872 37.4351 236.369 37.4351C236.867 37.4351 237.346 37.6267 237.706 37.9701C238.066 38.3136 238.28 38.7825 238.304 39.2797V43.4097C238.304 43.9226 238.101 44.4147 237.738 44.7778C237.376 45.1409 236.885 45.3455 236.372 45.3467Z" fill="url(#paint10_linear_1670_215509)"/>
<path opacity="0.79" d="M236.372 29.8634C235.858 29.8623 235.366 29.6578 235.003 29.2948C234.64 28.9318 234.436 28.4398 234.435 27.9264V23.2802C234.458 22.783 234.673 22.314 235.033 21.9706C235.393 21.6271 235.872 21.4355 236.369 21.4355C236.867 21.4355 237.346 21.6271 237.706 21.9706C238.066 22.314 238.28 22.783 238.304 23.2802V27.9264C238.304 28.4394 238.101 28.9314 237.738 29.2945C237.376 29.6577 236.885 29.8623 236.372 29.8634Z" fill="url(#paint11_linear_1670_215509)"/>
<path opacity="0.79" d="M35.4751 210.374C34.234 210.375 33.0204 210.008 31.988 209.319C30.9556 208.63 30.1507 207.65 29.6752 206.504C29.1996 205.357 29.0747 204.096 29.3163 202.878C29.5579 201.661 30.1552 200.542 31.0325 199.664C31.9098 198.787 33.0278 198.189 34.245 197.946C35.4622 197.704 36.724 197.828 37.8708 198.302C39.0176 198.777 39.9977 199.581 40.6874 200.613C41.377 201.645 41.7451 202.858 41.7451 204.1C41.7428 205.762 41.0816 207.356 39.9064 208.532C38.7311 209.708 37.1377 210.371 35.4751 210.374ZM35.4751 201.699C34.9991 201.698 34.5336 201.839 34.1375 202.103C33.7413 202.367 33.4324 202.742 33.2499 203.182C33.0673 203.621 33.0193 204.105 33.112 204.572C33.2046 205.039 33.4337 205.468 33.7703 205.804C34.1069 206.141 34.5358 206.37 35.0026 206.463C35.4695 206.555 35.9534 206.507 36.393 206.325C36.8326 206.142 37.2081 205.833 37.472 205.437C37.7359 205.041 37.8763 204.576 37.8755 204.1C37.8743 203.463 37.621 202.853 37.1711 202.404C36.7212 201.954 36.1114 201.7 35.4751 201.699Z" fill="url(#paint12_linear_1670_215509)"/>
<path opacity="0.79" d="M241.908 88.9937C240.667 88.9937 239.454 88.6257 238.422 87.9362C237.391 87.2468 236.586 86.2669 236.111 85.1204C235.637 83.9739 235.512 82.7123 235.754 81.4952C235.996 80.278 236.594 79.1601 237.472 78.2826C238.349 77.4051 239.467 76.8075 240.684 76.5654C241.901 76.3233 243.163 76.4475 244.309 76.9224C245.456 77.3973 246.436 78.2015 247.125 79.2334C247.815 80.2652 248.183 81.4783 248.183 82.7192C248.181 84.383 247.52 85.9782 246.344 87.1546C245.167 88.3311 243.572 88.9925 241.908 88.9937ZM241.908 80.3145C241.433 80.3145 240.968 80.4555 240.572 80.7198C240.177 80.984 239.869 81.3596 239.687 81.799C239.504 82.2384 239.457 82.7219 239.55 83.1884C239.642 83.6549 239.871 84.0833 240.208 84.4197C240.544 84.756 240.973 84.985 241.439 85.0778C241.906 85.1706 242.389 85.1229 242.828 84.9409C243.268 84.7589 243.643 84.4507 243.908 84.0552C244.172 83.6598 244.313 83.1949 244.313 82.7192C244.313 82.0815 244.06 81.4698 243.609 81.0188C243.158 80.5678 242.546 80.3145 241.908 80.3145Z" fill="url(#paint13_linear_1670_215509)"/>
</g>
<g opacity="0.79">
<path opacity="0.79" d="M199.72 27.5379C199.31 27.5383 198.912 27.4085 198.581 27.1673C194.86 24.4578 190.986 21.9665 186.977 19.706C186.529 19.4538 186.2 19.0341 186.062 18.5393C185.923 18.0444 185.987 17.515 186.24 17.0674C186.492 16.6197 186.912 16.2906 187.406 16.1524C187.901 16.0143 188.431 16.0783 188.878 16.3305C193.018 18.6647 197.02 21.237 200.862 24.0345C201.191 24.2759 201.436 24.615 201.561 25.0035C201.686 25.3919 201.685 25.81 201.558 26.1979C201.431 26.5858 201.185 26.9238 200.855 27.1637C200.525 27.4035 200.128 27.533 199.72 27.5335V27.5379Z" fill="url(#paint14_linear_1670_215509)"/>
<path opacity="0.79" d="M93.0933 9.91513C92.6394 9.90309 92.2042 9.73162 91.8641 9.4308C91.524 9.12998 91.3007 8.71901 91.2333 8.26998C91.1659 7.82095 91.2588 7.36253 91.4956 6.97513C91.7325 6.58773 92.0982 6.29609 92.5285 6.15136C113.639 -0.378811 136.117 -1.10884 157.607 4.03783C157.863 4.08854 158.106 4.19044 158.321 4.33742C158.537 4.48441 158.721 4.67344 158.862 4.89317C159.002 5.1129 159.097 5.35881 159.141 5.61612C159.184 5.87344 159.175 6.13686 159.114 6.39058C159.053 6.64429 158.941 6.88308 158.786 7.09259C158.63 7.30211 158.434 7.47803 158.209 7.60981C157.983 7.74159 157.734 7.82651 157.475 7.85947C157.216 7.89242 156.953 7.87274 156.702 7.8016C135.888 2.81472 114.115 3.52036 93.6669 9.84453C93.4806 9.89799 93.287 9.92181 93.0933 9.91513Z" fill="url(#paint15_linear_1670_215509)"/>
<path opacity="0.79" d="M46.2474 37.3645C45.8603 37.3631 45.4824 37.2457 45.1626 37.0275C44.8429 36.8093 44.5958 36.5003 44.4533 36.1403C44.3108 35.7804 44.2795 35.386 44.3634 35.008C44.4472 34.6301 44.6424 34.2859 44.9237 34.0199C46.8387 32.2153 48.8375 30.4459 50.8628 28.7648C51.0578 28.5965 51.2845 28.4688 51.5295 28.3892C51.7746 28.3096 52.033 28.2797 52.2897 28.3012C52.5465 28.3227 52.7963 28.3952 53.0247 28.5145C53.2531 28.6337 53.4554 28.7974 53.6197 28.9958C53.7841 29.1942 53.9072 29.4233 53.9819 29.6699C54.0566 29.9165 54.0813 30.1755 54.0547 30.4317C54.0281 30.688 53.9506 30.9364 53.8268 31.1623C53.703 31.3882 53.5353 31.5872 53.3337 31.7476C51.3702 33.3713 49.4375 35.0833 47.5976 36.835C47.2338 37.1809 46.7493 37.3709 46.2474 37.3645Z" fill="url(#paint16_linear_1670_215509)"/>
<path opacity="0.79" d="M9.44807 140.253C8.97678 140.252 8.52187 140.08 8.16854 139.768C7.81522 139.456 7.58773 139.026 7.52868 138.558C6.22872 128.254 6.22872 117.826 7.52868 107.522C9.50114 91.7613 14.5536 76.5425 22.3984 62.7316C22.5123 62.4914 22.6745 62.2772 22.8748 62.1023C23.075 61.9275 23.3091 61.7958 23.5625 61.7153C23.8159 61.6349 24.0832 61.6074 24.3476 61.6348C24.6121 61.6621 24.8681 61.7435 25.0997 61.874C25.3313 62.0046 25.5335 62.1814 25.6939 62.3935C25.8542 62.6055 25.9691 62.8483 26.0315 63.1068C26.094 63.3652 26.1025 63.6337 26.0567 63.8956C26.0108 64.1574 25.9116 64.4071 25.7651 64.6289C18.1579 78.0005 13.2568 92.7385 11.341 108.003C10.082 117.987 10.082 128.089 11.341 138.073C11.3737 138.325 11.3563 138.581 11.2896 138.827C11.2229 139.072 11.1084 139.302 10.9525 139.503C10.7967 139.704 10.6026 139.872 10.3815 139.998C10.1604 140.123 9.91668 140.204 9.66428 140.235C9.59254 140.245 9.52038 140.25 9.44807 140.253Z" fill="url(#paint17_linear_1670_215509)"/>
<path opacity="0.79" d="M68.7552 229.281C68.4158 229.281 68.0825 229.191 67.7889 229.021C63.0765 226.298 58.5498 223.266 54.2385 219.945C53.8473 219.626 53.5961 219.167 53.5382 218.666C53.4803 218.164 53.6204 217.66 53.9286 217.26C54.2368 216.861 54.6888 216.597 55.1884 216.526C55.688 216.454 56.1957 216.581 56.6035 216.878C60.7774 220.1 65.1612 223.041 69.7259 225.681C70.095 225.894 70.3833 226.224 70.5461 226.618C70.709 227.012 70.7373 227.448 70.6267 227.86C70.5161 228.272 70.2728 228.636 69.9344 228.895C69.596 229.154 69.1815 229.295 68.7552 229.295V229.281Z" fill="url(#paint18_linear_1670_215509)"/>
<path opacity="0.79" d="M128.9 245.351C118.04 245.358 107.226 243.923 96.7428 241.085C96.2597 240.939 95.8524 240.611 95.6075 240.17C95.3627 239.728 95.2997 239.209 95.432 238.722C95.5642 238.235 95.8812 237.819 96.3155 237.562C96.7499 237.306 97.2673 237.228 97.7577 237.347C116.2 242.329 135.568 242.815 154.236 238.764C154.486 238.706 154.745 238.699 154.998 238.742C155.25 238.785 155.492 238.879 155.709 239.016C155.925 239.153 156.112 239.332 156.259 239.543C156.406 239.753 156.509 239.99 156.564 240.241C156.618 240.492 156.622 240.751 156.575 241.003C156.529 241.255 156.433 241.495 156.293 241.71C156.153 241.925 155.971 242.11 155.759 242.254C155.547 242.398 155.308 242.498 155.057 242.549C146.463 244.413 137.694 245.353 128.9 245.351Z" fill="url(#paint19_linear_1670_215509)"/>
<path opacity="0.79" d="M187.928 229.917C187.5 229.918 187.084 229.778 186.744 229.517C186.405 229.256 186.161 228.89 186.052 228.476C185.943 228.062 185.974 227.624 186.142 227.23C186.309 226.835 186.602 226.508 186.975 226.298C189.87 224.666 192.712 222.892 195.478 221.004C195.902 220.739 196.413 220.648 196.903 220.751C197.392 220.854 197.823 221.142 198.105 221.556C198.387 221.969 198.497 222.476 198.414 222.969C198.331 223.463 198.06 223.905 197.658 224.203C194.821 226.135 191.864 227.966 188.877 229.652C188.589 229.82 188.262 229.911 187.928 229.917Z" fill="url(#paint20_linear_1670_215509)"/>
<path opacity="0.79" d="M218.242 205.675C217.868 205.674 217.502 205.565 217.189 205.361C216.875 205.156 216.628 204.865 216.476 204.523C216.324 204.181 216.275 203.802 216.334 203.433C216.393 203.063 216.558 202.719 216.808 202.441C230.025 187.822 239.39 170.14 244.055 150.992C244.107 150.738 244.21 150.497 244.358 150.283C244.506 150.07 244.695 149.888 244.914 149.749C245.134 149.61 245.379 149.516 245.635 149.474C245.892 149.431 246.154 149.441 246.406 149.502C246.659 149.563 246.896 149.674 247.105 149.829C247.314 149.983 247.489 150.178 247.621 150.402C247.753 150.626 247.838 150.874 247.872 151.132C247.906 151.389 247.888 151.651 247.818 151.901C243.001 171.677 233.328 189.939 219.676 205.035C219.496 205.237 219.275 205.398 219.027 205.508C218.78 205.618 218.513 205.675 218.242 205.675Z" fill="url(#paint21_linear_1670_215509)"/>
<path opacity="0.79" d="M249.318 124.937C248.805 124.937 248.312 124.733 247.949 124.37C247.585 124.007 247.381 123.514 247.381 123C247.381 119.435 247.223 115.839 246.905 112.309C246.649 109.419 246.278 106.507 245.811 103.656C245.745 103.158 245.876 102.653 246.176 102.249C246.476 101.845 246.921 101.573 247.418 101.492C247.914 101.41 248.423 101.525 248.836 101.812C249.249 102.1 249.535 102.536 249.632 103.03C250.113 105.973 250.514 108.978 250.761 111.965C251.088 115.61 251.251 119.32 251.251 122.996C251.252 123.25 251.202 123.502 251.105 123.738C251.008 123.973 250.866 124.187 250.687 124.367C250.507 124.547 250.294 124.69 250.059 124.788C249.825 124.886 249.573 124.937 249.318 124.937Z" fill="url(#paint22_linear_1670_215509)"/>
</g>
<path d="M173.826 133.828C166.475 131.438 158.544 131.515 151.24 134.048C143.937 136.581 137.661 141.431 133.369 147.86C129.076 154.289 127.002 161.944 127.461 169.661C127.921 177.378 130.89 184.733 135.915 190.606H67.042C63.3709 190.606 60.3926 187.844 60.3926 184.429V155.784C60.3926 135.169 71.4633 118.459 100.66 118.459H138.858C157.293 118.459 168.125 124.513 173.826 133.828Z" fill="url(#paint23_linear_1670_215509)"/>
<path d="M124.515 106.241C145.474 102.839 159.706 83.0909 156.304 62.1325C152.902 41.1742 133.154 26.942 112.196 30.344C91.2372 33.746 77.005 53.494 80.407 74.4523C83.809 95.4107 103.557 109.643 124.515 106.241Z" fill="url(#paint24_linear_1670_215509)"/>
<path d="M212.985 167.49H198.865C198.842 158.167 195.132 149.232 188.544 142.635C181.956 136.038 173.026 132.315 163.703 132.279V118.16C176.771 118.196 189.292 123.406 198.528 132.651C207.764 141.896 212.962 154.422 212.985 167.49Z" fill="url(#paint25_linear_1670_215509)"/>
<path d="M163.541 202.895C183.043 202.895 198.853 187.085 198.853 167.583C198.853 148.08 183.043 132.271 163.541 132.271C144.038 132.271 128.229 148.08 128.229 167.583C128.229 187.085 144.038 202.895 163.541 202.895Z" fill="url(#paint26_linear_1670_215509)"/>
<path d="M163.54 202.992C156.537 202.992 149.691 200.915 143.868 197.025C138.045 193.134 133.506 187.604 130.826 181.133C128.146 174.663 127.445 167.543 128.811 160.675C130.178 153.806 133.55 147.497 138.502 142.545C143.454 137.592 149.763 134.22 156.632 132.854C163.501 131.487 170.621 132.189 177.091 134.869C183.561 137.549 189.091 142.087 192.982 147.91C196.873 153.733 198.95 160.579 198.95 167.583C198.939 176.971 195.205 185.971 188.567 192.609C181.929 199.248 172.928 202.982 163.54 202.992ZM163.54 132.367C156.575 132.367 149.767 134.433 143.976 138.302C138.185 142.172 133.671 147.672 131.006 154.106C128.34 160.541 127.643 167.622 129.002 174.453C130.36 181.284 133.714 187.559 138.639 192.484C143.564 197.409 149.839 200.763 156.67 202.121C163.501 203.48 170.582 202.783 177.017 200.117C183.451 197.452 188.951 192.938 192.821 187.147C196.69 181.356 198.756 174.548 198.756 167.583C198.745 158.246 195.031 149.295 188.43 142.693C181.828 136.092 172.877 132.378 163.54 132.367Z" fill="url(#paint27_linear_1670_215509)"/>
<path d="M171.736 175.779C176.263 171.252 176.263 163.913 171.736 159.386C167.21 154.86 159.87 154.86 155.344 159.386C150.817 163.913 150.817 171.252 155.344 175.779C159.87 180.306 167.21 180.306 171.736 175.779Z" fill="white"/>
<path d="M143.557 187.112H138.126C134.102 187.112 130.841 190.373 130.841 194.397V202.683C130.841 206.706 134.102 209.968 138.126 209.968H143.557C147.581 209.968 150.842 206.706 150.842 202.683V194.397C150.842 190.373 147.581 187.112 143.557 187.112Z" fill="url(#paint28_linear_1670_215509)"/>
<path d="M167.15 167.561H161.718C157.695 167.561 154.434 170.822 154.434 174.845V202.683C154.434 206.706 157.695 209.968 161.718 209.968H167.15C171.173 209.968 174.435 206.706 174.435 202.683V174.845C174.435 170.822 171.173 167.561 167.15 167.561Z" fill="url(#paint29_linear_1670_215509)"/>
<path d="M190.748 154.09H185.316C181.293 154.09 178.031 157.351 178.031 161.375V202.683C178.031 206.707 181.293 209.968 185.316 209.968H190.748C194.771 209.968 198.033 206.707 198.033 202.683V161.375C198.033 157.351 194.771 154.09 190.748 154.09Z" fill="url(#paint30_linear_1670_215509)"/>
</g>
</svg>
