<svg width="257" height="251" viewBox="0 0 257 251" fill="none" xmlns="http://www.w3.org/2000/svg">
<defs>
<linearGradient id="paint0_linear_1605_115505" x1="30.2662" y1="119.889" x2="85.9282" y2="102.083" gradientUnits="userSpaceOnUse">
<stop stop-color="#D7EDF3"/>
<stop offset="1" stop-color="#B1DBDB"/>
</linearGradient>
<linearGradient id="paint1_linear_1605_115505" x1="29.9895" y1="120.064" x2="86.3698" y2="102.038" gradientUnits="userSpaceOnUse">
<stop stop-color="#CBE8EF"/>
<stop offset="1" stop-color="#D9EEF4"/>
</linearGradient>
<linearGradient id="paint2_linear_1605_115505" x1="0.0371094" y1="167.179" x2="8.2331" y2="167.179" gradientUnits="userSpaceOnUse">
<stop stop-color="#2DB5E9"/>
<stop offset="1" stop-color="#365EA9"/>
</linearGradient>
<linearGradient id="paint3_linear_1605_115505" x1="306.875" y1="1559.46" x2="466.949" y2="1559.46" gradientUnits="userSpaceOnUse">
<stop stop-color="#2DB5E9"/>
<stop offset="1" stop-color="#365EA9"/>
</linearGradient>
<linearGradient id="paint4_linear_1605_115505" x1="95.2388" y1="3164.9" x2="128.366" y2="3164.9" gradientUnits="userSpaceOnUse">
<stop stop-color="#2DB5E9"/>
<stop offset="1" stop-color="#365EA9"/>
</linearGradient>
<linearGradient id="paint5_linear_1605_115505" x1="95.2388" y1="3047.12" x2="128.366" y2="3047.12" gradientUnits="userSpaceOnUse">
<stop stop-color="#2DB5E9"/>
<stop offset="1" stop-color="#365EA9"/>
</linearGradient>
<linearGradient id="paint6_linear_1605_115505" x1="3315.85" y1="1865.27" x2="3454.05" y2="1865.27" gradientUnits="userSpaceOnUse">
<stop stop-color="#2DB5E9"/>
<stop offset="1" stop-color="#365EA9"/>
</linearGradient>
<linearGradient id="paint7_linear_1605_115505" x1="3983.41" y1="1867.26" x2="4147.22" y2="1867.26" gradientUnits="userSpaceOnUse">
<stop stop-color="#2DB5E9"/>
<stop offset="1" stop-color="#365EA9"/>
</linearGradient>
<linearGradient id="paint8_linear_1605_115505" x1="1829" y1="3792.56" x2="1862.05" y2="3792.56" gradientUnits="userSpaceOnUse">
<stop stop-color="#2DB5E9"/>
<stop offset="1" stop-color="#365EA9"/>
</linearGradient>
<linearGradient id="paint9_linear_1605_115505" x1="1828.99" y1="3707.09" x2="1862.04" y2="3707.09" gradientUnits="userSpaceOnUse">
<stop stop-color="#2DB5E9"/>
<stop offset="1" stop-color="#365EA9"/>
</linearGradient>
<linearGradient id="paint10_linear_1605_115505" x1="4280.12" y1="310.384" x2="4425.02" y2="310.384" gradientUnits="userSpaceOnUse">
<stop stop-color="#2DB5E9"/>
<stop offset="1" stop-color="#365EA9"/>
</linearGradient>
<linearGradient id="paint11_linear_1605_115505" x1="4645.8" y1="310.053" x2="4802.4" y2="310.053" gradientUnits="userSpaceOnUse">
<stop stop-color="#2DB5E9"/>
<stop offset="1" stop-color="#365EA9"/>
</linearGradient>
<linearGradient id="paint12_linear_1605_115505" x1="2241.31" y1="765.812" x2="2274.48" y2="765.812" gradientUnits="userSpaceOnUse">
<stop stop-color="#2DB5E9"/>
<stop offset="1" stop-color="#365EA9"/>
</linearGradient>
<linearGradient id="paint13_linear_1605_115505" x1="2238.91" y1="485.325" x2="2272.04" y2="485.325" gradientUnits="userSpaceOnUse">
<stop stop-color="#2DB5E9"/>
<stop offset="1" stop-color="#365EA9"/>
</linearGradient>
<linearGradient id="paint14_linear_1605_115505" x1="818.098" y1="5843.45" x2="1166.01" y2="5843.45" gradientUnits="userSpaceOnUse">
<stop stop-color="#2DB5E9"/>
<stop offset="1" stop-color="#365EA9"/>
</linearGradient>
<linearGradient id="paint15_linear_1605_115505" x1="6753.85" y1="2353.36" x2="7101.76" y2="2353.36" gradientUnits="userSpaceOnUse">
<stop stop-color="#2DB5E9"/>
<stop offset="1" stop-color="#365EA9"/>
</linearGradient>
<linearGradient id="paint16_linear_1605_115505" x1="6603.2" y1="551.409" x2="7145.47" y2="551.409" gradientUnits="userSpaceOnUse">
<stop stop-color="#2DB5E9"/>
<stop offset="1" stop-color="#365EA9"/>
</linearGradient>
<linearGradient id="paint17_linear_1605_115505" x1="13664.1" y1="95.1768" x2="23861.9" y2="95.1768" gradientUnits="userSpaceOnUse">
<stop stop-color="#2DB5E9"/>
<stop offset="1" stop-color="#365EA9"/>
</linearGradient>
<linearGradient id="paint18_linear_1605_115505" x1="978.829" y1="670.593" x2="1187.13" y2="670.593" gradientUnits="userSpaceOnUse">
<stop stop-color="#2DB5E9"/>
<stop offset="1" stop-color="#365EA9"/>
</linearGradient>
<linearGradient id="paint19_linear_1605_115505" x1="255.576" y1="17474.3" x2="1094.02" y2="17474.3" gradientUnits="userSpaceOnUse">
<stop stop-color="#2DB5E9"/>
<stop offset="1" stop-color="#365EA9"/>
</linearGradient>
<linearGradient id="paint20_linear_1605_115505" x1="2059.22" y1="6519.76" x2="2713.68" y2="6519.76" gradientUnits="userSpaceOnUse">
<stop stop-color="#2DB5E9"/>
<stop offset="1" stop-color="#365EA9"/>
</linearGradient>
<linearGradient id="paint21_linear_1605_115505" x1="12941.9" y1="4556.93" x2="21265" y2="4556.93" gradientUnits="userSpaceOnUse">
<stop stop-color="#2DB5E9"/>
<stop offset="1" stop-color="#365EA9"/>
</linearGradient>
<linearGradient id="paint22_linear_1605_115505" x1="5298.21" y1="4795.35" x2="5643.19" y2="4795.35" gradientUnits="userSpaceOnUse">
<stop stop-color="#2DB5E9"/>
<stop offset="1" stop-color="#365EA9"/>
</linearGradient>
<linearGradient id="paint23_linear_1605_115505" x1="15265" y1="22123.6" x2="17468.1" y2="22123.6" gradientUnits="userSpaceOnUse">
<stop stop-color="#2DB5E9"/>
<stop offset="1" stop-color="#365EA9"/>
</linearGradient>
<linearGradient id="paint24_linear_1605_115505" x1="3212.7" y1="5954.96" x2="3278.83" y2="5954.96" gradientUnits="userSpaceOnUse">
<stop stop-color="#2DB5E9"/>
<stop offset="1" stop-color="#365EA9"/>
</linearGradient>
<linearGradient id="paint25_linear_1605_115505" x1="13236.3" y1="10426.7" x2="23120.8" y2="30095.9" gradientUnits="userSpaceOnUse">
<stop stop-color="#2DB5E9"/>
<stop offset="1" stop-color="#365EA9"/>
</linearGradient>
<linearGradient id="paint26_linear_1605_115505" x1="14164.5" y1="3825.72" x2="30389.5" y2="24361.1" gradientUnits="userSpaceOnUse">
<stop stop-color="#2DB5E9"/>
<stop offset="1" stop-color="#365EA9"/>
</linearGradient>
<linearGradient id="paint27_linear_1605_115505" x1="-15684.4" y1="137697" x2="-2113.68" y2="142993" gradientUnits="userSpaceOnUse">
<stop stop-color="#D7EDF3"/>
<stop offset="1" stop-color="#B1DBDB"/>
</linearGradient>
<linearGradient id="paint28_linear_1605_115505" x1="-15821.7" y1="138311" x2="-2091.1" y2="143670" gradientUnits="userSpaceOnUse">
<stop stop-color="#CBE8EF"/>
<stop offset="1" stop-color="#D9EEF4"/>
</linearGradient>
<clipPath id="clip0_1605_115505">
<rect width="256.694" height="250.75" fill="white" transform="translate(0.0371094)"/>
</clipPath>
</defs>
<g clip-path="url(#clip0_1605_115505)">
<path d="M59.5529 68.8962L32.5545 77.5333C24.6392 80.0654 20.2754 88.5348 22.8076 96.45L37.8044 143.328C40.3366 151.244 48.8059 155.607 56.7212 153.075L83.7195 144.438C91.6348 141.906 95.9987 133.437 93.4665 125.521L78.4696 78.6432C75.9375 70.7279 67.4681 66.364 59.5529 68.8962Z" fill="url(#paint0_linear_1605_115505)"/>
<path d="M52.1107 154.18C48.8452 154.171 45.6663 153.129 43.0303 151.201C40.3943 149.274 38.4368 146.561 37.4386 143.451L22.4435 96.5702C21.203 92.6764 21.5565 88.4495 23.4268 84.8159C25.2971 81.1822 28.5315 78.4381 32.4213 77.1849L59.4277 68.547C63.3215 67.3012 67.5506 67.6524 71.1856 69.5233C74.8206 71.3943 77.5641 74.632 78.813 78.5248L93.8176 125.434C95.0622 129.329 94.7106 133.558 92.8399 137.193C90.9692 140.829 87.7323 143.573 83.8399 144.824L56.824 153.467C55.2991 153.947 53.7091 154.187 52.1107 154.18ZM64.1505 68.5565C62.6276 68.5571 61.1142 68.796 59.6652 69.2645L32.6636 77.9214C28.9607 79.1116 25.8809 81.7217 24.0995 85.1793C22.3181 88.6369 21.9806 92.6598 23.161 96.3659L38.1561 143.247C39.342 146.953 41.9515 150.036 45.4104 151.818C48.8694 153.6 52.8946 153.935 56.6006 152.75L83.6023 144.116C87.3067 142.928 90.3882 140.319 92.1699 136.86C93.9516 133.402 94.2879 129.378 93.1049 125.672L78.1098 78.7908C77.1569 75.8344 75.2937 73.2548 72.7866 71.421C70.2794 69.5871 67.2567 68.5929 64.1505 68.5803V68.5565Z" fill="url(#paint1_linear_1605_115505)"/>
<path d="M45.8498 131.934C45.3041 131.936 44.7756 131.743 44.3598 131.39C43.944 131.036 43.6685 130.546 43.5829 130.007C43.4974 129.468 43.6076 128.916 43.8935 128.451C44.1794 127.986 44.6223 127.639 45.1419 127.472L69.7061 119.466C69.9916 119.373 70.2927 119.336 70.5922 119.359C70.8918 119.382 71.1839 119.463 71.4519 119.599C71.7199 119.735 71.9586 119.922 72.1543 120.15C72.35 120.378 72.4989 120.642 72.5925 120.927C72.6861 121.213 72.7226 121.514 72.6998 121.814C72.677 122.113 72.5955 122.405 72.4598 122.673C72.3241 122.941 72.137 123.18 71.9091 123.376C71.6812 123.571 71.417 123.72 71.1315 123.814L46.5578 131.82C46.3291 131.894 46.0903 131.933 45.8498 131.934Z" fill="white"/>
<path d="M49.3088 141.974C48.7631 141.976 48.2346 141.783 47.8188 141.43C47.403 141.076 47.1274 140.585 47.0419 140.046C46.9564 139.508 47.0666 138.956 47.3525 138.491C47.6384 138.026 48.0812 137.679 48.6009 137.512L67.3875 131.388C67.964 131.199 68.592 131.247 69.1333 131.52C69.6746 131.794 70.0849 132.272 70.2739 132.849C70.4629 133.425 70.4152 134.053 70.1412 134.595C69.8672 135.136 69.3894 135.546 68.8129 135.735L50.0263 141.86C49.7947 141.935 49.5525 141.974 49.3088 141.974Z" fill="white"/>
<g opacity="0.79">
<path opacity="0.79" d="M6.25181 169.146H2.0184C1.49293 169.146 0.988981 168.937 0.617417 168.566C0.245852 168.194 0.0371094 167.69 0.0371094 167.165C0.0371094 166.639 0.245852 166.135 0.617417 165.764C0.988981 165.392 1.49293 165.184 2.0184 165.184H6.25181C6.77728 165.184 7.28123 165.392 7.6528 165.764C8.02436 166.135 8.2331 166.639 8.2331 167.165C8.2331 167.69 8.02436 168.194 7.6528 168.566C7.28123 168.937 6.77728 169.146 6.25181 169.146Z" fill="url(#paint2_linear_1605_115505)"/>
<path opacity="0.79" d="M22.6506 169.146H17.8993C17.3738 169.146 16.8698 168.937 16.4983 168.566C16.1267 168.194 15.918 167.69 15.918 167.165C15.918 166.639 16.1267 166.135 16.4983 165.764C16.8698 165.392 17.3738 165.184 17.8993 165.184H22.6506C23.176 165.184 23.68 165.392 24.0515 165.764C24.4231 166.135 24.6319 166.639 24.6319 167.165C24.6319 167.69 24.4231 168.194 24.0515 168.566C23.68 168.937 23.176 169.146 22.6506 169.146Z" fill="url(#paint3_linear_1605_115505)"/>
<path opacity="0.79" d="M12.2 179.599C11.6741 179.597 11.1702 179.388 10.7988 179.015C10.4273 178.643 10.2187 178.139 10.2188 177.613V173.384C10.2437 172.875 10.4636 172.395 10.8328 172.043C11.2021 171.691 11.6925 171.495 12.2024 171.495C12.7123 171.495 13.2027 171.691 13.572 172.043C13.9413 172.395 14.1612 172.875 14.1861 173.384V177.613C14.1861 178.139 13.9768 178.645 13.6044 179.017C13.2319 179.389 12.7268 179.599 12.2 179.599Z" fill="url(#paint4_linear_1605_115505)"/>
<path opacity="0.79" d="M12.2 163.74C11.6746 163.74 11.1706 163.531 10.7991 163.159C10.4275 162.788 10.2187 162.284 10.2188 161.758V157.007C10.2437 156.498 10.4636 156.018 10.8328 155.666C11.2021 155.314 11.6925 155.118 12.2024 155.118C12.7123 155.118 13.2027 155.314 13.572 155.666C13.9413 156.018 14.1612 156.498 14.1861 157.007V161.758C14.1861 162.019 14.1347 162.277 14.0348 162.518C13.9349 162.758 13.7886 162.977 13.6041 163.161C13.4196 163.345 13.2006 163.491 12.9597 163.59C12.7188 163.69 12.4606 163.74 12.2 163.74Z" fill="url(#paint5_linear_1605_115505)"/>
<path opacity="0.79" d="M191.89 201.688H187.657C187.147 201.663 186.667 201.443 186.315 201.074C185.964 200.705 185.768 200.214 185.768 199.704C185.768 199.194 185.964 198.704 186.315 198.335C186.667 197.966 187.147 197.746 187.657 197.721H191.89C192.399 197.746 192.879 197.966 193.231 198.335C193.583 198.704 193.779 199.194 193.779 199.704C193.779 200.214 193.583 200.705 193.231 201.074C192.879 201.443 192.399 201.663 191.89 201.688Z" fill="url(#paint6_linear_1605_115505)"/>
<path opacity="0.79" d="M208.284 201.688H203.532C203.264 201.701 202.995 201.66 202.743 201.566C202.491 201.472 202.26 201.328 202.066 201.143C201.871 200.957 201.716 200.734 201.61 200.487C201.504 200.239 201.449 199.973 201.449 199.704C201.449 199.435 201.504 199.169 201.61 198.922C201.716 198.675 201.871 198.452 202.066 198.266C202.26 198.081 202.491 197.937 202.743 197.843C202.995 197.749 203.264 197.707 203.532 197.721H208.284C208.552 197.707 208.821 197.749 209.073 197.843C209.325 197.937 209.556 198.081 209.75 198.266C209.945 198.452 210.1 198.675 210.206 198.922C210.312 199.169 210.367 199.435 210.367 199.704C210.367 199.973 210.312 200.239 210.206 200.487C210.1 200.734 209.945 200.957 209.75 201.143C209.556 201.328 209.325 201.472 209.073 201.566C208.821 201.66 208.552 201.701 208.284 201.688Z" fill="url(#paint7_linear_1605_115505)"/>
<path opacity="0.79" d="M197.837 212.136C197.576 212.136 197.318 212.085 197.077 211.985C196.837 211.885 196.618 211.739 196.434 211.554C196.25 211.37 196.104 211.151 196.005 210.91C195.906 210.669 195.855 210.411 195.855 210.15V205.922C195.855 205.396 196.064 204.892 196.436 204.521C196.807 204.149 197.311 203.94 197.837 203.94C198.362 203.94 198.866 204.149 199.238 204.521C199.609 204.892 199.818 205.396 199.818 205.922V210.15C199.819 210.411 199.768 210.669 199.669 210.91C199.569 211.151 199.423 211.37 199.239 211.554C199.055 211.739 198.837 211.885 198.596 211.985C198.355 212.085 198.097 212.136 197.837 212.136Z" fill="url(#paint8_linear_1605_115505)"/>
<path opacity="0.79" d="M197.837 196.267C197.311 196.267 196.807 196.058 196.436 195.686C196.064 195.315 195.855 194.811 195.855 194.285V189.534C195.855 189.009 196.064 188.505 196.436 188.133C196.807 187.761 197.311 187.553 197.837 187.553C198.362 187.553 198.866 187.761 199.238 188.133C199.609 188.505 199.818 189.009 199.818 189.534V194.285C199.818 194.811 199.609 195.315 199.238 195.686C198.866 196.058 198.362 196.267 197.837 196.267Z" fill="url(#paint9_linear_1605_115505)"/>
<path opacity="0.79" d="M235.521 35.3545H231.292C231.023 35.3676 230.755 35.3261 230.503 35.2323C230.251 35.1386 230.02 34.9946 229.825 34.8091C229.631 34.6236 229.476 34.4005 229.37 34.1532C229.264 33.906 229.209 33.6398 229.209 33.3708C229.209 33.1018 229.264 32.8356 229.37 32.5884C229.476 32.3412 229.631 32.118 229.825 31.9325C230.02 31.747 230.251 31.6031 230.503 31.5093C230.755 31.4155 231.023 31.374 231.292 31.3871H235.521C235.789 31.374 236.058 31.4155 236.31 31.5093C236.562 31.6031 236.793 31.747 236.987 31.9325C237.182 32.118 237.337 32.3412 237.443 32.5884C237.549 32.8356 237.604 33.1018 237.604 33.3708C237.604 33.6398 237.549 33.906 237.443 34.1532C237.337 34.4005 237.182 34.6236 236.987 34.8091C236.793 34.9946 236.562 35.1386 236.31 35.2323C236.058 35.3261 235.789 35.3676 235.521 35.3545Z" fill="url(#paint10_linear_1605_115505)"/>
<path opacity="0.79" d="M251.918 35.3545H247.166C246.657 35.3296 246.177 35.1097 245.825 34.7405C245.473 34.3712 245.277 33.8808 245.277 33.3709C245.277 32.861 245.473 32.3706 245.825 32.0013C246.177 31.632 246.657 31.4121 247.166 31.3872H251.918C252.427 31.4121 252.907 31.632 253.259 32.0013C253.61 32.3706 253.806 32.861 253.806 33.3709C253.806 33.8808 253.61 34.3712 253.259 34.7405C252.907 35.1097 252.427 35.3296 251.918 35.3545Z" fill="url(#paint11_linear_1605_115505)"/>
<path opacity="0.79" d="M241.471 45.8023C240.948 45.7972 240.448 45.5858 240.079 45.2139C239.711 44.842 239.504 44.3397 239.504 43.8162V39.5876C239.491 39.3189 239.533 39.0503 239.626 38.7982C239.72 38.5461 239.864 38.3157 240.05 38.1209C240.235 37.9261 240.458 37.771 240.706 37.665C240.953 37.559 241.219 37.5044 241.488 37.5044C241.757 37.5044 242.023 37.559 242.27 37.665C242.518 37.771 242.741 37.9261 242.926 38.1209C243.112 38.3157 243.256 38.5461 243.35 38.7982C243.443 39.0503 243.485 39.3189 243.472 39.5876V43.8162C243.472 44.0782 243.42 44.3376 243.319 44.5795C243.218 44.8214 243.071 45.041 242.885 45.2256C242.699 45.4102 242.478 45.5562 242.236 45.6552C241.993 45.7542 241.733 45.8041 241.471 45.8023Z" fill="url(#paint12_linear_1605_115505)"/>
<path opacity="0.79" d="M241.469 29.9331C240.946 29.9293 240.446 29.7189 240.077 29.3477C239.709 28.9766 239.502 28.4748 239.502 27.9518V23.2005C239.527 22.6911 239.747 22.2109 240.116 21.8593C240.485 21.5077 240.976 21.3115 241.486 21.3115C241.996 21.3115 242.486 21.5077 242.855 21.8593C243.224 22.2109 243.444 22.6911 243.469 23.2005V27.9518C243.469 28.2134 243.416 28.4723 243.315 28.7136C243.214 28.955 243.067 29.174 242.881 29.3581C242.695 29.5422 242.475 29.6878 242.232 29.7864C241.99 29.8851 241.731 29.9349 241.469 29.9331Z" fill="url(#paint13_linear_1605_115505)"/>
<path opacity="0.79" d="M35.6199 214.906C34.3485 214.906 33.1056 214.529 32.0484 213.823C30.9913 213.117 30.1673 212.113 29.6808 210.938C29.1942 209.763 29.0669 208.471 29.3149 207.224C29.563 205.977 30.1752 204.831 31.0743 203.932C31.9733 203.033 33.1188 202.421 34.3658 202.173C35.6128 201.925 36.9053 202.052 38.08 202.539C39.2547 203.025 40.2587 203.849 40.965 204.906C41.6714 205.963 42.0484 207.206 42.0484 208.478C42.0459 210.182 41.3678 211.816 40.1628 213.021C38.9577 214.226 37.3241 214.904 35.6199 214.906ZM35.6199 206.017C35.1331 206.017 34.6573 206.161 34.2526 206.431C33.8478 206.702 33.5324 207.086 33.3461 207.536C33.1598 207.986 33.1111 208.481 33.206 208.958C33.301 209.435 33.5354 209.874 33.8796 210.218C34.2238 210.562 34.6623 210.797 35.1398 210.892C35.6172 210.987 36.112 210.938 36.5618 210.752C37.0115 210.565 37.3959 210.25 37.6663 209.845C37.9367 209.44 38.0811 208.965 38.0811 208.478C38.0798 207.825 37.8201 207.2 37.3588 206.739C36.8976 206.278 36.2723 206.018 35.6199 206.017Z" fill="url(#paint14_linear_1605_115505)"/>
<path opacity="0.79" d="M247.159 90.5269C245.888 90.5269 244.645 90.1499 243.587 89.4435C242.53 88.7372 241.706 87.7332 241.22 86.5585C240.733 85.3839 240.606 84.0913 240.854 82.8443C241.102 81.5973 241.714 80.4518 242.613 79.5528C243.512 78.6537 244.658 78.0415 245.905 77.7934C247.152 77.5454 248.444 77.6727 249.619 78.1593C250.794 78.6458 251.798 79.4698 252.504 80.5269C253.21 81.5841 253.588 82.827 253.588 84.0984C253.585 85.8026 252.907 87.4363 251.702 88.6413C250.497 89.8463 248.863 90.5244 247.159 90.5269ZM247.159 81.6373C246.672 81.6373 246.196 81.7816 245.792 82.052C245.387 82.3225 245.071 82.7069 244.885 83.1566C244.699 83.6063 244.65 84.1012 244.745 84.5786C244.84 85.056 245.074 85.4945 245.419 85.8387C245.763 86.1829 246.201 86.4174 246.679 86.5123C247.156 86.6073 247.651 86.5585 248.101 86.3723C248.551 86.186 248.935 85.8705 249.205 85.4658C249.476 85.0611 249.62 84.5852 249.62 84.0984C249.62 83.4457 249.361 82.8197 248.899 82.3581C248.438 81.8966 247.812 81.6373 247.159 81.6373Z" fill="url(#paint15_linear_1605_115505)"/>
</g>
<g opacity="0.79">
<path opacity="0.79" d="M203.923 27.5581C203.503 27.5592 203.093 27.426 202.754 27.178C198.946 24.4017 194.98 21.8491 190.876 19.5332C190.649 19.4053 190.45 19.2339 190.289 19.029C190.129 18.824 190.01 18.5894 189.94 18.3386C189.87 18.0877 189.85 17.8256 189.882 17.5671C189.913 17.3086 189.995 17.0589 190.123 16.832C190.251 16.6052 190.422 16.4058 190.627 16.2453C190.832 16.0847 191.067 15.966 191.317 15.8961C191.568 15.8262 191.83 15.8063 192.089 15.8377C192.347 15.8691 192.597 15.9511 192.824 16.079C197.067 18.4695 201.168 21.1046 205.106 23.9709C205.317 24.1243 205.495 24.3176 205.63 24.5399C205.766 24.7622 205.856 25.009 205.896 25.2663C205.937 25.5235 205.926 25.7862 205.864 26.0392C205.803 26.2922 205.692 26.5307 205.538 26.7409C205.355 26.9971 205.112 27.2052 204.831 27.3475C204.55 27.4897 204.238 27.562 203.923 27.5581Z" fill="url(#paint16_linear_1605_115505)"/>
<path opacity="0.79" d="M94.6571 9.50245C94.1825 9.50178 93.7238 9.33117 93.3641 9.02153C93.0044 8.71188 92.7675 8.28366 92.6963 7.81443C92.6251 7.3452 92.7243 6.86597 92.9759 6.46355C93.2275 6.06112 93.6149 5.7621 94.0679 5.62064C115.706 -1.06397 138.743 -1.80737 160.767 3.4683C161.278 3.59431 161.719 3.9184 161.992 4.36927C162.264 4.82013 162.347 5.36085 162.221 5.87246C162.095 6.38407 161.77 6.82467 161.32 7.09732C160.869 7.36998 160.328 7.45237 159.816 7.32635C138.486 2.2208 116.176 2.94616 95.2225 9.42643C95.0383 9.47725 94.8481 9.50283 94.6571 9.50245Z" fill="url(#paint17_linear_1605_115505)"/>
<path opacity="0.79" d="M46.6612 37.6208C46.2665 37.6193 45.8811 37.4999 45.5547 37.2779C45.2282 37.0559 44.9756 36.7415 44.829 36.3749C44.6825 36.0084 44.6488 35.6064 44.7323 35.2205C44.8158 34.8347 45.0126 34.4826 45.2976 34.2094C47.2599 32.3564 49.3077 30.5461 51.384 28.8262C51.7891 28.491 52.3108 28.3304 52.8343 28.3799C53.3578 28.4293 53.8402 28.6847 54.1754 29.0899C54.5106 29.495 54.6711 30.0167 54.6217 30.5402C54.5722 31.0636 54.3168 31.546 53.9117 31.8812C51.9019 33.5442 49.9206 35.3022 48.0201 37.1077C47.6484 37.4446 47.1628 37.628 46.6612 37.6208Z" fill="url(#paint18_linear_1605_115505)"/>
<path opacity="0.79" d="M8.94526 143.052C8.46319 143.051 7.99797 142.874 7.63675 142.555C7.27553 142.236 7.04309 141.796 6.98297 141.318C5.6463 130.758 5.6463 120.072 6.98297 109.512C9.00312 93.3636 14.1806 77.7699 22.2204 63.6196C22.4787 63.1591 22.9094 62.82 23.4178 62.677C23.9261 62.5339 24.4704 62.5987 24.931 62.857C25.3916 63.1154 25.7307 63.5461 25.8737 64.0544C26.0167 64.5628 25.9519 65.1071 25.6936 65.5677C17.906 79.2674 12.89 94.3655 10.9313 110.002C9.63894 120.232 9.63894 130.584 10.9313 140.814C10.9972 141.336 10.8531 141.863 10.5306 142.279C10.2081 142.695 9.73355 142.966 9.21133 143.033C9.12312 143.045 9.03426 143.051 8.94526 143.052Z" fill="url(#paint19_linear_1605_115505)"/>
<path opacity="0.79" d="M69.7251 234.282C69.3765 234.282 69.034 234.19 68.7321 234.016C63.9031 231.222 59.2637 228.113 54.8441 224.708C54.4276 224.387 54.1558 223.913 54.0886 223.391C54.0213 222.87 54.164 222.343 54.4853 221.926C54.8067 221.51 55.2803 221.238 55.802 221.171C56.3237 221.103 56.8508 221.246 57.2672 221.567C61.5456 224.872 66.0392 227.887 70.7182 230.595C71.0944 230.814 71.3881 231.152 71.5538 231.555C71.7195 231.958 71.7481 232.404 71.6352 232.825C71.5223 233.246 71.2742 233.618 70.929 233.883C70.5838 234.149 70.1608 234.294 69.7251 234.296V234.282Z" fill="url(#paint20_linear_1605_115505)"/>
<path opacity="0.79" d="M131.354 250.75C120.22 250.758 109.135 249.286 98.3892 246.374C98.1152 246.329 97.8537 246.227 97.6217 246.075C97.3897 245.922 97.1923 245.723 97.0423 245.489C96.8924 245.255 96.7932 244.993 96.7513 244.718C96.7093 244.444 96.7255 244.163 96.7988 243.896C96.8721 243.628 97.0009 243.378 97.1768 243.164C97.3527 242.949 97.5718 242.773 97.8198 242.649C98.0679 242.524 98.3394 242.453 98.6168 242.44C98.8941 242.427 99.1711 242.472 99.4298 242.573C118.33 247.666 138.176 248.156 157.305 244.003C157.56 243.947 157.823 243.942 158.079 243.988C158.335 244.034 158.58 244.13 158.799 244.271C159.019 244.412 159.208 244.594 159.357 244.808C159.505 245.022 159.61 245.264 159.665 245.518C159.721 245.773 159.725 246.036 159.679 246.292C159.632 246.548 159.536 246.793 159.395 247.012C159.254 247.231 159.071 247.42 158.856 247.568C158.642 247.716 158.401 247.821 158.146 247.875C149.344 249.789 140.362 250.752 131.354 250.75Z" fill="url(#paint21_linear_1605_115505)"/>
<path opacity="0.79" d="M191.838 234.933C191.399 234.935 190.972 234.79 190.624 234.523C190.275 234.255 190.026 233.879 189.915 233.455C189.803 233.03 189.836 232.58 190.008 232.176C190.18 231.772 190.481 231.436 190.864 231.222C193.829 229.554 196.761 227.735 199.578 225.815C200.014 225.536 200.541 225.438 201.048 225.541C201.555 225.645 202.001 225.942 202.292 226.37C202.583 226.798 202.696 227.322 202.606 227.832C202.516 228.341 202.231 228.796 201.811 229.098C198.903 231.075 195.877 232.952 192.812 234.681C192.514 234.847 192.179 234.933 191.838 234.933Z" fill="url(#paint22_linear_1605_115505)"/>
<path opacity="0.79" d="M222.901 210.093C222.514 210.095 222.136 209.985 221.811 209.775C221.487 209.565 221.231 209.265 221.075 208.912C220.919 208.558 220.87 208.167 220.933 207.786C220.997 207.405 221.17 207.05 221.432 206.767C234.978 191.781 244.575 173.654 249.356 154.027C249.482 153.516 249.806 153.076 250.256 152.804C250.706 152.532 251.247 152.45 251.758 152.576C252.269 152.702 252.709 153.026 252.981 153.476C253.253 153.926 253.335 154.467 253.209 154.978C248.273 175.245 238.363 193.963 224.373 209.437C224.187 209.643 223.96 209.808 223.706 209.921C223.453 210.034 223.178 210.092 222.901 210.093Z" fill="url(#paint23_linear_1605_115505)"/>
<path opacity="0.79" d="M254.744 127.358C254.219 127.358 253.715 127.15 253.343 126.778C252.972 126.407 252.763 125.903 252.763 125.377C252.763 121.723 252.597 118.036 252.288 114.421C252.022 111.456 251.647 108.472 251.167 105.55C251.082 105.031 251.206 104.499 251.513 104.072C251.82 103.645 252.284 103.357 252.804 103.272C253.323 103.187 253.854 103.311 254.282 103.618C254.709 103.925 254.997 104.389 255.082 104.909C255.557 107.926 255.966 111.009 256.241 114.064C256.574 117.799 256.745 121.605 256.745 125.377C256.744 125.639 256.692 125.898 256.591 126.139C256.49 126.38 256.342 126.599 256.156 126.783C255.97 126.968 255.75 127.113 255.508 127.212C255.265 127.31 255.006 127.36 254.744 127.358Z" fill="url(#paint24_linear_1605_115505)"/>
</g>
<path d="M180.159 132.623C173.149 130.338 165.585 130.407 158.619 132.819C151.652 135.232 145.665 139.855 141.57 145.986C137.475 152.116 135.496 159.417 135.935 166.777C136.374 174.136 139.206 181.15 144.001 186.75H78.3667C74.8697 186.75 72.0332 184.113 72.0332 180.868V153.553C72.0332 133.906 82.5858 117.975 110.414 117.975H146.852C164.398 117.975 174.723 123.748 180.159 132.623Z" fill="url(#paint25_linear_1605_115505)"/>
<path d="M133.151 106.327C153.129 103.085 166.696 84.2603 163.453 64.2823C160.21 44.3044 141.386 30.7379 121.408 33.9808C101.43 37.2237 87.8633 56.0479 91.1061 76.0259C94.349 96.0038 113.173 109.57 133.151 106.327Z" fill="url(#paint26_linear_1605_115505)"/>
<path d="M211.811 175.832C210.326 174.484 209.125 172.854 208.277 171.038C207.428 169.221 206.95 167.254 206.869 165.25C206.788 163.247 207.106 161.247 207.805 159.368C208.505 157.489 209.571 155.767 210.941 154.304C211.354 153.868 211.633 153.324 211.748 152.735C211.862 152.146 211.807 151.537 211.588 150.978C211.011 149.527 210.355 148.109 209.62 146.73C209.345 146.208 208.927 145.775 208.415 145.481C207.902 145.187 207.317 145.046 206.727 145.072C204.716 145.174 202.704 144.874 200.811 144.188C198.917 143.502 197.18 142.445 195.7 141.079C194.221 139.713 193.029 138.065 192.195 136.232C191.361 134.399 190.901 132.418 190.843 130.405C190.819 129.814 190.627 129.241 190.291 128.754C189.955 128.268 189.487 127.886 188.943 127.654C187.514 127.038 186.054 126.5 184.567 126.043C183.993 125.871 183.383 125.866 182.806 126.029C182.23 126.191 181.712 126.514 181.312 126.96C179.962 128.447 178.329 129.649 176.509 130.499C174.689 131.348 172.718 131.826 170.712 131.906C168.705 131.986 166.702 131.666 164.821 130.965C162.939 130.263 161.215 129.194 159.751 127.82C159.316 127.406 158.772 127.125 158.183 127.009C157.594 126.894 156.984 126.95 156.425 127.169C154.984 127.74 153.576 128.388 152.206 129.113C151.683 129.389 151.249 129.809 150.955 130.323C150.662 130.837 150.52 131.424 150.548 132.016C150.654 134.032 150.355 136.048 149.67 137.947C148.985 139.846 147.926 141.589 146.557 143.072C145.188 144.556 143.536 145.751 141.699 146.586C139.861 147.422 137.875 147.881 135.857 147.937C135.263 147.959 134.689 148.149 134.2 148.486C133.711 148.822 133.328 149.291 133.096 149.838C132.486 151.259 131.953 152.711 131.5 154.19C131.326 154.764 131.321 155.376 131.483 155.953C131.645 156.531 131.969 157.05 132.417 157.449C133.907 158.8 135.113 160.434 135.965 162.255C136.816 164.077 137.297 166.05 137.378 168.06C137.459 170.069 137.138 172.074 136.436 173.959C135.734 175.843 134.663 177.568 133.286 179.034C132.873 179.47 132.592 180.014 132.477 180.603C132.362 181.192 132.417 181.801 132.635 182.36C133.207 183.797 133.857 185.2 134.583 186.565C134.858 187.09 135.278 187.525 135.792 187.819C136.307 188.113 136.895 188.253 137.486 188.223C139.502 188.114 141.519 188.408 143.42 189.089C145.32 189.771 147.065 190.825 148.552 192.191C150.038 193.557 151.237 195.206 152.076 197.042C152.916 198.878 153.38 200.863 153.441 202.881C153.461 203.474 153.651 204.049 153.988 204.537C154.325 205.026 154.795 205.407 155.342 205.637C156.763 206.251 158.218 206.785 159.699 207.238C160.272 207.41 160.882 207.415 161.458 207.254C162.034 207.092 162.553 206.771 162.953 206.326C164.411 204.72 166.197 203.446 168.19 202.591C170.182 201.736 172.336 201.318 174.504 201.368C176.672 201.418 178.805 201.933 180.756 202.878C182.708 203.824 184.434 205.178 185.816 206.849C187.969 206.12 190.058 205.217 192.064 204.15C192.586 203.873 193.018 203.455 193.31 202.943C193.603 202.43 193.744 201.846 193.718 201.256C193.615 199.245 193.914 197.233 194.598 195.339C195.282 193.445 196.337 191.706 197.702 190.225C199.067 188.744 200.713 187.55 202.545 186.714C204.377 185.877 206.358 185.415 208.371 185.354C208.963 185.332 209.536 185.142 210.024 184.805C210.511 184.468 210.892 183.999 211.122 183.453C211.741 182.021 212.281 180.555 212.737 179.063C212.903 178.492 212.904 177.886 212.74 177.314C212.576 176.742 212.254 176.229 211.811 175.832Z" fill="url(#paint27_linear_1605_115505)"/>
<path d="M160.582 207.584C160.26 207.584 159.939 207.536 159.631 207.441C158.144 206.984 156.681 206.448 155.251 205.835C154.674 205.587 154.18 205.18 153.825 204.662C153.471 204.144 153.27 203.536 153.246 202.909C153.19 200.916 152.736 198.955 151.911 197.14C151.085 195.326 149.905 193.695 148.439 192.344C146.974 190.993 145.252 189.949 143.377 189.274C141.501 188.599 139.509 188.306 137.519 188.412C136.891 188.44 136.268 188.289 135.722 187.977C135.176 187.665 134.73 187.205 134.435 186.65C133.708 185.278 133.056 183.868 132.482 182.426C132.252 181.834 132.193 181.189 132.315 180.566C132.436 179.943 132.731 179.367 133.167 178.905C134.527 177.458 135.585 175.754 136.279 173.894C136.974 172.033 137.29 170.053 137.211 168.068C137.131 166.084 136.657 164.136 135.816 162.337C134.974 160.537 133.783 158.924 132.311 157.591C131.838 157.166 131.495 156.615 131.323 156.002C131.151 155.39 131.156 154.741 131.337 154.132C131.793 152.647 132.33 151.188 132.943 149.761C133.193 149.183 133.6 148.689 134.119 148.334C134.638 147.979 135.247 147.779 135.875 147.756C137.867 147.701 139.829 147.247 141.643 146.423C143.458 145.598 145.089 144.419 146.441 142.954C147.792 141.49 148.837 139.769 149.514 137.895C150.191 136.02 150.485 134.029 150.381 132.038C150.353 131.411 150.504 130.79 150.815 130.245C151.126 129.7 151.585 129.255 152.139 128.959C153.508 128.231 154.917 127.577 156.358 127.002C156.95 126.773 157.595 126.716 158.218 126.838C158.841 126.96 159.416 127.255 159.878 127.691C161.323 129.049 163.025 130.106 164.883 130.8C166.741 131.493 168.718 131.81 170.7 131.731C172.681 131.651 174.627 131.178 176.424 130.339C178.221 129.499 179.832 128.31 181.164 126.84C181.592 126.373 182.143 126.035 182.754 125.867C183.366 125.699 184.012 125.707 184.619 125.89C186.112 126.347 187.579 126.886 189.013 127.505C189.588 127.755 190.081 128.161 190.435 128.678C190.789 129.195 190.989 129.802 191.014 130.428C191.071 132.417 191.526 134.376 192.351 136.187C193.176 137.999 194.355 139.628 195.818 140.977C197.282 142.327 199 143.37 200.872 144.047C202.745 144.723 204.734 145.018 206.722 144.914C207.348 144.888 207.968 145.039 208.512 145.35C209.056 145.661 209.501 146.119 209.796 146.672C210.534 148.059 211.192 149.487 211.767 150.948C211.997 151.539 212.054 152.183 211.933 152.805C211.812 153.427 211.517 154.003 211.083 154.464C209.736 155.91 208.69 157.608 208.003 159.46C207.317 161.313 207.005 163.283 207.086 165.257C207.166 167.231 207.637 169.169 208.472 170.96C209.307 172.75 210.488 174.358 211.948 175.688C212.415 176.115 212.752 176.666 212.921 177.276C213.089 177.886 213.081 178.532 212.898 179.138C212.441 180.637 211.9 182.109 211.278 183.547C211.029 184.122 210.622 184.615 210.105 184.968C209.588 185.322 208.982 185.523 208.356 185.547C206.37 185.607 204.417 186.063 202.61 186.887C200.802 187.712 199.178 188.889 197.831 190.349C196.484 191.809 195.442 193.523 194.766 195.391C194.09 197.259 193.793 199.243 193.893 201.227C193.919 201.853 193.768 202.473 193.457 203.017C193.146 203.561 192.688 204.006 192.135 204.301C190.119 205.37 188.02 206.276 185.859 207.009H185.802H185.711L185.645 206.938C184.279 205.29 182.574 203.954 180.647 203.022C178.72 202.091 176.615 201.584 174.474 201.537C172.334 201.489 170.209 201.902 168.242 202.748C166.276 203.594 164.514 204.853 163.076 206.439C162.764 206.794 162.381 207.08 161.951 207.277C161.521 207.474 161.055 207.579 160.582 207.584ZM138.336 188.004C142.318 188.011 146.142 189.567 148.997 192.344C151.851 195.121 153.513 198.899 153.631 202.88C153.651 203.435 153.828 203.972 154.142 204.43C154.455 204.887 154.893 205.246 155.403 205.465C156.817 206.077 158.266 206.608 159.741 207.056C160.279 207.217 160.851 207.222 161.392 207.071C161.933 206.92 162.42 206.618 162.796 206.201C164.263 204.582 166.059 203.295 168.065 202.427C170.07 201.56 172.238 201.131 174.422 201.169C176.607 201.208 178.758 201.713 180.731 202.652C182.705 203.59 184.454 204.94 185.863 206.61C187.962 205.891 190.001 205.006 191.959 203.963C192.448 203.704 192.854 203.312 193.129 202.832C193.404 202.352 193.537 201.803 193.513 201.25C193.408 199.214 193.711 197.177 194.404 195.259C195.097 193.341 196.166 191.58 197.548 190.08C198.93 188.581 200.597 187.372 202.452 186.525C204.307 185.678 206.313 185.21 208.351 185.148C208.904 185.128 209.44 184.951 209.897 184.638C210.354 184.325 210.712 183.889 210.931 183.381C211.546 181.956 212.083 180.498 212.537 179.014C212.696 178.476 212.7 177.904 212.549 177.364C212.398 176.823 212.097 176.337 211.682 175.959C210.179 174.594 208.963 172.944 208.104 171.104C207.245 169.265 206.76 167.273 206.678 165.245C206.596 163.216 206.917 161.192 207.625 159.289C208.332 157.386 209.411 155.642 210.798 154.16C211.183 153.751 211.444 153.241 211.551 152.689C211.659 152.138 211.609 151.567 211.406 151.043C210.834 149.6 210.182 148.19 209.454 146.82C209.195 146.329 208.802 145.923 208.32 145.648C207.839 145.373 207.29 145.24 206.736 145.266C204.699 145.368 202.663 145.063 200.746 144.368C198.829 143.673 197.07 142.603 195.572 141.219C194.073 139.836 192.866 138.168 192.021 136.313C191.175 134.457 190.709 132.451 190.648 130.413C190.628 129.86 190.451 129.324 190.138 128.867C189.825 128.41 189.389 128.052 188.88 127.833C187.459 127.217 186.005 126.681 184.523 126.227C183.985 126.066 183.412 126.062 182.871 126.214C182.33 126.366 181.844 126.669 181.468 127.087C180.102 128.598 178.447 129.82 176.602 130.683C174.757 131.546 172.758 132.032 170.723 132.113C168.688 132.194 166.657 131.868 164.749 131.155C162.841 130.441 161.095 129.354 159.612 127.957C159.203 127.571 158.694 127.31 158.142 127.202C157.59 127.094 157.019 127.145 156.496 127.349C155.061 127.916 153.659 128.561 152.295 129.282C151.805 129.542 151.398 129.936 151.123 130.418C150.847 130.9 150.715 131.45 150.742 132.005C150.849 134.047 150.547 136.089 149.852 138.012C149.158 139.935 148.086 141.7 146.699 143.202C145.312 144.705 143.639 145.914 141.778 146.76C139.916 147.605 137.904 148.07 135.861 148.126C135.306 148.146 134.768 148.323 134.311 148.636C133.853 148.95 133.494 149.388 133.276 149.898C132.668 151.311 132.136 152.756 131.684 154.227C131.523 154.767 131.518 155.341 131.671 155.884C131.823 156.426 132.126 156.914 132.544 157.291C134.053 158.659 135.275 160.313 136.138 162.157C137.001 164.002 137.487 166 137.569 168.035C137.651 170.07 137.326 172.1 136.614 174.008C135.903 175.916 134.818 177.663 133.423 179.147C133.038 179.556 132.776 180.066 132.668 180.618C132.561 181.169 132.612 181.74 132.815 182.264C133.384 183.693 134.029 185.091 134.749 186.45C135.008 186.941 135.402 187.348 135.884 187.624C136.366 187.9 136.917 188.033 137.471 188.009C137.775 188.013 138.056 188.004 138.336 188.004Z" fill="url(#paint28_linear_1605_115505)"/>
<path d="M181.976 173.73C185.886 168.281 184.638 160.693 179.189 156.783C173.739 152.873 166.152 154.121 162.242 159.57C158.332 165.02 159.58 172.607 165.029 176.517C170.479 180.427 178.066 179.179 181.976 173.73Z" fill="white"/>
</g>
</svg>
