<svg width="24" height="24" viewBox="0 0 24 24" fill="none" xmlns="http://www.w3.org/2000/svg">
<path d="M10.4641 15.5921H8.59082L9.76889 8.36914H11.6422L10.4641 15.5921Z" fill="#005CA9"/>
<path d="M7.00717 8.36914L5.21109 13.3325L4.99865 12.2703L4.36133 9.02577C4.36133 9.02577 4.28408 8.36914 3.47295 8.36914H0.518117L0.479492 8.48502C0.479492 8.48502 1.38719 8.67814 2.44938 9.31546L4.09096 15.5921H6.04154L9.035 8.36914H7.00717Z" fill="#005CA9"/>
<path d="M21.8012 15.5921H23.5201L22.0137 8.36914H20.5073C19.812 8.36914 19.6382 8.90989 19.6382 8.90989L16.8379 15.5921H18.7885L19.1747 14.5106H21.5695L21.8012 15.5921ZM19.7348 13.0235L20.7197 10.3197L21.2798 13.0235H19.7348Z" fill="#005CA9"/>
<path d="M16.9726 10.1074L17.243 8.56242C17.243 8.56242 16.4126 8.25342 15.5435 8.25342C14.6165 8.25342 12.3956 8.65898 12.3956 10.6482C12.3956 12.5215 15.0028 12.5408 15.0028 13.5258C15.0028 14.5107 12.6659 14.3369 11.8934 13.7189L11.623 15.3412C11.623 15.3412 12.4535 15.7467 13.7474 15.7467C15.0221 15.7467 16.9726 15.0901 16.9726 13.2747C16.9726 11.4014 14.3461 11.2276 14.3461 10.3971C14.3461 9.54737 16.1808 9.66324 16.9726 10.1074Z" fill="#005CA9"/>
<path d="M4.99865 12.2703L4.36133 9.02577C4.36133 9.02577 4.28408 8.36914 3.47295 8.36914H0.518117L0.479492 8.48502C0.479492 8.48502 1.90863 8.77471 3.26051 9.89484C4.57377 10.9377 4.99865 12.2703 4.99865 12.2703Z" fill="#F7A823"/>
</svg>
